<svg width="411" height="222" viewBox="0 0 411 222" fill="none" xmlns="http://www.w3.org/2000/svg">
<path d="M31 197.223C31 196.932 31.057 196.659 31.171 196.406C31.285 196.153 31.437 195.931 31.627 195.741C31.817 195.551 32.0387 195.399 32.292 195.285C32.5453 195.171 32.8177 195.114 33.109 195.114H44.718C45.0093 195.114 45.2817 195.171 45.535 195.285C45.7883 195.399 46.01 195.551 46.2 195.741C46.39 195.931 46.542 196.153 46.656 196.406C46.77 196.659 46.827 196.932 46.827 197.223V197.28C46.827 197.571 46.77 197.844 46.656 198.097C46.542 198.35 46.39 198.572 46.2 198.762C46.01 198.952 45.7883 199.104 45.535 199.218C45.2817 199.332 45.0093 199.389 44.718 199.389H41.222V211.834C41.222 212.151 41.1587 212.448 41.032 212.727C40.918 212.993 40.7533 213.234 40.538 213.449C40.3353 213.652 40.0947 213.816 39.816 213.943C39.55 214.057 39.2587 214.114 38.942 214.114H38.904C38.5873 214.114 38.2897 214.057 38.011 213.943C37.745 213.816 37.5043 213.652 37.289 213.449C37.0863 213.234 36.9217 212.993 36.795 212.727C36.681 212.448 36.624 212.151 36.624 211.834V199.389H33.109C32.8177 199.389 32.5453 199.332 32.292 199.218C32.0387 199.104 31.817 198.952 31.627 198.762C31.437 198.572 31.285 198.35 31.171 198.097C31.057 197.844 31 197.571 31 197.28V197.223ZM60.9197 197.394C60.9197 197.077 60.9767 196.786 61.0907 196.52C61.2173 196.241 61.382 196.001 61.5847 195.798C61.8 195.583 62.0407 195.418 62.3067 195.304C62.5853 195.177 62.883 195.114 63.1997 195.114H63.2567C63.5733 195.114 63.8647 195.177 64.1307 195.304C64.4093 195.418 64.65 195.583 64.8527 195.798C65.0553 196.001 65.2137 196.241 65.3277 196.52C65.4543 196.786 65.5177 197.077 65.5177 197.394V211.834C65.5177 212.151 65.4543 212.448 65.3277 212.727C65.2137 212.993 65.0553 213.234 64.8527 213.449C64.65 213.652 64.4093 213.816 64.1307 213.943C63.8647 214.057 63.5733 214.114 63.2567 214.114H63.1997C62.883 214.114 62.5853 214.057 62.3067 213.943C62.0407 213.816 61.8 213.652 61.5847 213.449C61.382 213.234 61.2173 212.993 61.0907 212.727C60.9767 212.448 60.9197 212.151 60.9197 211.834V206.704H53.9657V211.834C53.9657 212.151 53.9023 212.448 53.7757 212.727C53.6617 213.006 53.5033 213.246 53.3007 213.449C53.098 213.652 52.8573 213.816 52.5787 213.943C52.3127 214.057 52.0213 214.114 51.7047 214.114H51.6477C51.331 214.114 51.0333 214.057 50.7547 213.943C50.4887 213.816 50.248 213.652 50.0327 213.449C49.83 213.246 49.6653 213.006 49.5387 212.727C49.4247 212.448 49.3677 212.151 49.3677 211.834V197.394C49.3677 197.077 49.4247 196.786 49.5387 196.52C49.6653 196.241 49.83 196.001 50.0327 195.798C50.248 195.583 50.4887 195.418 50.7547 195.304C51.0333 195.177 51.331 195.114 51.6477 195.114H51.6857C52.0023 195.114 52.3 195.177 52.5787 195.304C52.8573 195.418 53.098 195.583 53.3007 195.798C53.5033 196.001 53.6617 196.241 53.7757 196.52C53.9023 196.786 53.9657 197.077 53.9657 197.394V202.429H60.9197V197.394ZM68.0693 197.394C68.0693 197.077 68.1263 196.786 68.2403 196.52C68.367 196.241 68.5316 196.001 68.7343 195.798C68.9496 195.583 69.1903 195.418 69.4563 195.304C69.735 195.177 70.0326 195.114 70.3493 195.114H80.5333C80.8246 195.114 81.097 195.171 81.3503 195.285C81.6036 195.399 81.8253 195.551 82.0153 195.741C82.2053 195.931 82.3573 196.153 82.4713 196.406C82.5853 196.659 82.6423 196.932 82.6423 197.223V197.28C82.6423 197.571 82.5853 197.844 82.4713 198.097C82.3573 198.35 82.2053 198.572 82.0153 198.762C81.8253 198.952 81.6036 199.104 81.3503 199.218C81.097 199.332 80.8246 199.389 80.5333 199.389H72.6103V202.467H79.2603C79.539 202.467 79.805 202.524 80.0583 202.638C80.3116 202.739 80.527 202.885 80.7043 203.075C80.8943 203.252 81.04 203.468 81.1413 203.721C81.2553 203.974 81.3123 204.24 81.3123 204.519V204.576C81.3123 204.855 81.2553 205.121 81.1413 205.374C81.04 205.615 80.8943 205.83 80.7043 206.02C80.527 206.21 80.3116 206.362 80.0583 206.476C79.805 206.577 79.539 206.628 79.2603 206.628H72.6103V209.839H80.5333C80.8246 209.839 81.097 209.896 81.3503 210.01C81.6036 210.124 81.8253 210.276 82.0153 210.466C82.2053 210.656 82.3573 210.878 82.4713 211.131C82.5853 211.384 82.6423 211.657 82.6423 211.948V212.005C82.6423 212.296 82.5853 212.569 82.4713 212.822C82.3573 213.075 82.2053 213.297 82.0153 213.487C81.8253 213.677 81.6036 213.829 81.3503 213.943C81.097 214.057 80.8246 214.114 80.5333 214.114H70.3493C70.0326 214.114 69.735 214.057 69.4563 213.943C69.1903 213.816 68.9496 213.652 68.7343 213.449C68.5316 213.234 68.367 212.993 68.2403 212.727C68.1263 212.448 68.0693 212.151 68.0693 211.834V197.394ZM115.457 209.25C115.685 209.478 115.85 209.731 115.951 210.01C116.052 210.289 116.09 210.574 116.065 210.865C116.052 211.156 115.976 211.435 115.837 211.701C115.698 211.967 115.508 212.201 115.267 212.404L114.64 212.86C114.475 212.961 114.311 213.056 114.146 213.145C113.981 213.234 113.81 213.322 113.633 213.411C113.038 213.702 112.36 213.924 111.6 214.076C110.878 214.228 110.061 214.304 109.149 214.304C107.756 214.304 106.483 214.057 105.33 213.563C104.152 213.056 103.132 212.372 102.271 211.511C101.41 210.624 100.738 209.598 100.257 208.433C99.7757 207.242 99.5351 205.988 99.5351 204.671V204.614C99.5351 203.271 99.7757 202.017 100.257 200.852C100.485 200.282 100.764 199.744 101.093 199.237C101.435 198.718 101.828 198.23 102.271 197.774C103.107 196.9 104.133 196.203 105.349 195.684C106.565 195.177 107.882 194.924 109.301 194.924C109.744 194.924 110.162 194.943 110.555 194.981C110.948 195.006 111.328 195.057 111.695 195.133C112.05 195.196 112.392 195.279 112.721 195.38C113.05 195.481 113.361 195.595 113.652 195.722C113.791 195.785 113.924 195.849 114.051 195.912C114.178 195.963 114.304 196.02 114.431 196.083C114.52 196.134 114.602 196.184 114.678 196.235C114.767 196.286 114.855 196.343 114.944 196.406C115.223 196.583 115.444 196.811 115.609 197.09C115.774 197.356 115.875 197.641 115.913 197.945C115.951 198.249 115.926 198.553 115.837 198.857C115.748 199.161 115.596 199.44 115.381 199.693L115.362 199.731C115.185 199.946 114.976 200.117 114.735 200.244C114.494 200.358 114.247 200.434 113.994 200.472C113.741 200.51 113.481 200.504 113.215 200.453C112.962 200.402 112.721 200.301 112.493 200.149C112.354 200.06 112.214 199.978 112.075 199.902C111.936 199.826 111.796 199.75 111.657 199.674C111.302 199.497 110.929 199.364 110.536 199.275C110.143 199.186 109.725 199.142 109.282 199.142C108.547 199.142 107.876 199.281 107.268 199.56C106.647 199.851 106.115 200.238 105.672 200.719C105.216 201.238 104.868 201.815 104.627 202.448C104.374 203.145 104.247 203.848 104.247 204.557V204.614C104.247 205.336 104.374 206.045 104.627 206.742C104.754 207.071 104.899 207.382 105.064 207.673C105.229 207.964 105.425 208.237 105.653 208.49C106.096 208.971 106.628 209.358 107.249 209.649C107.895 209.94 108.573 210.086 109.282 210.086C110.283 210.086 111.125 209.902 111.809 209.535C112.113 209.37 112.404 209.187 112.683 208.984C112.898 208.832 113.126 208.724 113.367 208.661C113.608 208.598 113.848 208.579 114.089 208.604C114.342 208.617 114.583 208.674 114.811 208.775C115.039 208.876 115.248 209.022 115.438 209.212L115.457 209.25ZM131.983 195.114C132.287 195.114 132.572 195.177 132.838 195.304C133.117 195.418 133.357 195.576 133.56 195.779C133.763 195.982 133.921 196.222 134.035 196.501C134.162 196.767 134.225 197.052 134.225 197.356V205.64C134.225 206.983 134.041 208.18 133.674 209.231C133.307 210.282 132.768 211.169 132.059 211.891C131.362 212.613 130.501 213.164 129.475 213.544C128.462 213.924 127.303 214.114 125.998 214.114C124.706 214.114 123.553 213.93 122.54 213.563C121.527 213.183 120.672 212.638 119.975 211.929C119.278 211.22 118.746 210.352 118.379 209.326C118.024 208.287 117.847 207.103 117.847 205.773V197.356C117.847 197.052 117.904 196.767 118.018 196.501C118.145 196.222 118.309 195.982 118.512 195.779C118.715 195.576 118.949 195.418 119.215 195.304C119.494 195.177 119.785 195.114 120.089 195.114H120.127C120.431 195.114 120.716 195.177 120.982 195.304C121.261 195.418 121.501 195.576 121.704 195.779C121.907 195.982 122.065 196.222 122.179 196.501C122.306 196.767 122.369 197.052 122.369 197.356V205.659C122.369 207.065 122.673 208.123 123.281 208.832C123.902 209.541 124.807 209.896 125.998 209.896C127.214 209.896 128.132 209.548 128.753 208.851C129.386 208.154 129.703 207.135 129.703 205.792V197.356C129.703 197.052 129.76 196.767 129.874 196.501C130.001 196.222 130.165 195.982 130.368 195.779C130.571 195.576 130.805 195.418 131.071 195.304C131.35 195.177 131.641 195.114 131.945 195.114H131.983ZM151.154 210.675C151.408 211.042 151.534 211.429 151.534 211.834C151.547 212.239 151.465 212.613 151.287 212.955C151.11 213.284 150.85 213.563 150.508 213.791C150.179 214.006 149.793 214.114 149.349 214.114H149.292C148.925 214.114 148.577 214.032 148.247 213.867C147.931 213.69 147.671 213.449 147.468 213.145L144.143 208.205H141.369V211.834C141.369 212.151 141.306 212.448 141.179 212.727C141.065 212.993 140.901 213.234 140.685 213.449C140.483 213.652 140.242 213.816 139.963 213.943C139.697 214.057 139.406 214.114 139.089 214.114H139.051C138.735 214.114 138.437 214.057 138.158 213.943C137.892 213.816 137.652 213.652 137.436 213.449C137.234 213.234 137.069 212.993 136.942 212.727C136.828 212.448 136.771 212.151 136.771 211.834V197.394C136.771 197.077 136.828 196.786 136.942 196.52C137.069 196.241 137.234 196.001 137.436 195.798C137.652 195.583 137.892 195.418 138.158 195.304C138.437 195.177 138.735 195.114 139.051 195.114H145.473C146.664 195.114 147.728 195.279 148.665 195.608C149.615 195.937 150.413 196.425 151.059 197.071C152.161 198.173 152.712 199.642 152.712 201.479V201.517C152.712 202.898 152.396 204.101 151.762 205.127C151.142 206.153 150.204 206.932 148.95 207.464L151.154 210.675ZM148.057 201.688C148.057 201.169 147.956 200.757 147.753 200.453C147.551 200.136 147.297 199.896 146.993 199.731C146.702 199.554 146.385 199.44 146.043 199.389C145.714 199.338 145.41 199.313 145.131 199.313H141.369V204.082H145.207C146.119 204.082 146.822 203.879 147.316 203.474C147.81 203.056 148.057 202.48 148.057 201.745V201.688ZM155.25 197.375C155.25 197.058 155.307 196.767 155.421 196.501C155.548 196.222 155.713 195.982 155.915 195.779C156.131 195.576 156.371 195.418 156.637 195.304C156.916 195.177 157.214 195.114 157.53 195.114H157.568C157.885 195.114 158.176 195.177 158.442 195.304C158.721 195.418 158.962 195.576 159.164 195.779C159.38 195.982 159.544 196.222 159.658 196.501C159.785 196.767 159.848 197.058 159.848 197.375V211.834C159.848 212.151 159.785 212.448 159.658 212.727C159.544 212.993 159.38 213.234 159.164 213.449C158.962 213.652 158.721 213.816 158.442 213.943C158.176 214.057 157.885 214.114 157.568 214.114H157.53C157.214 214.114 156.916 214.057 156.637 213.943C156.371 213.816 156.131 213.652 155.915 213.449C155.713 213.234 155.548 212.993 155.421 212.727C155.307 212.448 155.25 212.151 155.25 211.834V197.375ZM166.914 205.336C166.952 205.792 167.079 206.254 167.294 206.723C167.434 207.052 167.598 207.356 167.788 207.635C167.978 207.914 168.194 208.18 168.434 208.433C168.89 208.914 169.473 209.301 170.182 209.592C170.828 209.871 171.576 210.01 172.424 210.01C173.26 210.01 173.995 209.871 174.628 209.592C175.312 209.313 175.895 208.933 176.376 208.452C176.87 207.983 177.257 207.42 177.535 206.761C177.801 206.115 177.934 205.418 177.934 204.671V204.633C177.934 203.911 177.795 203.221 177.516 202.562C177.377 202.233 177.212 201.929 177.022 201.65C176.845 201.371 176.63 201.105 176.376 200.852C175.882 200.358 175.293 199.972 174.609 199.693C173.913 199.402 173.172 199.256 172.386 199.256C171.626 199.256 170.885 199.402 170.163 199.693C169.492 199.984 168.909 200.364 168.415 200.833C167.959 201.289 167.579 201.853 167.275 202.524C167.098 202.942 166.978 203.417 166.914 203.949L166.895 204.158C166.857 204.449 166.857 204.741 166.895 205.032L166.914 205.336ZM162.392 204.595C162.392 203.24 162.639 201.973 163.133 200.795C163.627 199.642 164.324 198.616 165.223 197.717C165.667 197.274 166.148 196.881 166.667 196.539C167.199 196.197 167.769 195.899 168.377 195.646C169.631 195.127 170.974 194.867 172.405 194.867C173.824 194.867 175.16 195.127 176.414 195.646C177.643 196.165 178.707 196.868 179.606 197.755C180.48 198.616 181.177 199.649 181.696 200.852C182.127 201.853 182.368 202.885 182.418 203.949L182.437 204.196C182.45 204.335 182.456 204.468 182.456 204.595C182.456 204.722 182.456 204.855 182.456 204.994L182.437 205.336C182.425 205.906 182.355 206.451 182.228 206.97C182.102 207.489 181.931 207.996 181.715 208.49C181.221 209.643 180.525 210.669 179.625 211.568C178.739 212.429 177.687 213.12 176.471 213.639C175.268 214.146 173.925 214.399 172.443 214.399C170.961 214.399 169.619 214.146 168.415 213.639C167.199 213.132 166.142 212.429 165.242 211.53C164.368 210.669 163.672 209.636 163.152 208.433C162.646 207.242 162.392 205.976 162.392 204.633V204.595ZM199.145 195.114C199.449 195.114 199.734 195.177 200 195.304C200.279 195.418 200.519 195.576 200.722 195.779C200.925 195.982 201.083 196.222 201.197 196.501C201.324 196.767 201.387 197.052 201.387 197.356V205.64C201.387 206.983 201.203 208.18 200.836 209.231C200.469 210.282 199.93 211.169 199.221 211.891C198.524 212.613 197.663 213.164 196.637 213.544C195.624 213.924 194.465 214.114 193.16 214.114C191.868 214.114 190.715 213.93 189.702 213.563C188.689 213.183 187.834 212.638 187.137 211.929C186.44 211.22 185.908 210.352 185.541 209.326C185.186 208.287 185.009 207.103 185.009 205.773V197.356C185.009 197.052 185.066 196.767 185.18 196.501C185.307 196.222 185.471 195.982 185.674 195.779C185.877 195.576 186.111 195.418 186.377 195.304C186.656 195.177 186.947 195.114 187.251 195.114H187.289C187.593 195.114 187.878 195.177 188.144 195.304C188.423 195.418 188.663 195.576 188.866 195.779C189.069 195.982 189.227 196.222 189.341 196.501C189.468 196.767 189.531 197.052 189.531 197.356V205.659C189.531 207.065 189.835 208.123 190.443 208.832C191.064 209.541 191.969 209.896 193.16 209.896C194.376 209.896 195.294 209.548 195.915 208.851C196.548 208.154 196.865 207.135 196.865 205.792V197.356C196.865 197.052 196.922 196.767 197.036 196.501C197.163 196.222 197.327 195.982 197.53 195.779C197.733 195.576 197.967 195.418 198.233 195.304C198.512 195.177 198.803 195.114 199.107 195.114H199.145ZM212.065 202.6C212.952 202.828 213.756 203.088 214.478 203.379C215.2 203.67 215.815 204.038 216.321 204.481C216.841 204.912 217.24 205.437 217.518 206.058C217.81 206.666 217.955 207.394 217.955 208.243V208.281C217.955 209.18 217.791 209.991 217.461 210.713C217.145 211.422 216.689 212.03 216.093 212.537C215.498 213.044 214.776 213.436 213.927 213.715C213.079 213.981 212.135 214.114 211.096 214.114C210.197 214.114 209.323 214.019 208.474 213.829C207.626 213.639 206.809 213.354 206.023 212.974C205.681 212.822 205.358 212.651 205.054 212.461C204.776 212.296 204.554 212.087 204.389 211.834C204.225 211.568 204.117 211.289 204.066 210.998C204.016 210.707 204.028 210.415 204.104 210.124C204.18 209.833 204.32 209.56 204.522 209.307L204.56 209.288C204.89 208.883 205.314 208.642 205.833 208.566C206.353 208.477 206.834 208.566 207.277 208.832C207.429 208.933 207.588 209.035 207.752 209.136C207.917 209.225 208.075 209.307 208.227 209.383C208.709 209.624 209.19 209.807 209.671 209.934C210.153 210.048 210.653 210.105 211.172 210.105C211.907 210.105 212.477 209.978 212.882 209.725C213.3 209.472 213.509 209.123 213.509 208.68V208.623C213.509 208.42 213.465 208.237 213.376 208.072C213.3 207.895 213.142 207.73 212.901 207.578C212.661 207.426 212.312 207.274 211.856 207.122C211.413 206.957 210.824 206.78 210.089 206.59C209.215 206.362 208.405 206.115 207.657 205.849C206.91 205.583 206.258 205.241 205.7 204.823C205.156 204.405 204.725 203.879 204.408 203.246C204.092 202.613 203.933 201.808 203.933 200.833V200.795C203.933 199.959 204.092 199.193 204.408 198.496C204.738 197.799 205.187 197.204 205.757 196.71C206.34 196.203 207.03 195.811 207.828 195.532C208.639 195.253 209.526 195.114 210.488 195.114C211.869 195.114 213.148 195.31 214.326 195.703C214.567 195.779 214.789 195.861 214.991 195.95C215.207 196.039 215.409 196.134 215.599 196.235C215.878 196.387 216.106 196.583 216.283 196.824C216.473 197.065 216.6 197.331 216.663 197.622C216.727 197.901 216.733 198.192 216.682 198.496C216.632 198.787 216.518 199.066 216.34 199.332L216.302 199.37C215.998 199.813 215.587 200.105 215.067 200.244C214.561 200.371 214.067 200.307 213.585 200.054C213.205 199.851 212.806 199.668 212.388 199.503C212.046 199.376 211.717 199.281 211.4 199.218C211.084 199.155 210.761 199.123 210.431 199.123C209.811 199.123 209.31 199.243 208.93 199.484C208.563 199.712 208.379 200.029 208.379 200.434V200.472C208.379 200.7 208.417 200.903 208.493 201.08C208.582 201.245 208.753 201.409 209.006 201.574C209.272 201.726 209.646 201.884 210.127 202.049C210.609 202.214 211.255 202.397 212.065 202.6ZM242.121 202.6C243.008 202.828 243.812 203.088 244.534 203.379C245.256 203.67 245.87 204.038 246.377 204.481C246.896 204.912 247.295 205.437 247.574 206.058C247.865 206.666 248.011 207.394 248.011 208.243V208.281C248.011 209.18 247.846 209.991 247.517 210.713C247.2 211.422 246.744 212.03 246.149 212.537C245.554 213.044 244.832 213.436 243.983 213.715C243.134 213.981 242.191 214.114 241.152 214.114C240.253 214.114 239.379 214.019 238.53 213.829C237.681 213.639 236.864 213.354 236.079 212.974C235.737 212.822 235.414 212.651 235.11 212.461C234.831 212.296 234.61 212.087 234.445 211.834C234.28 211.568 234.173 211.289 234.122 210.998C234.071 210.707 234.084 210.415 234.16 210.124C234.236 209.833 234.375 209.56 234.578 209.307L234.616 209.288C234.945 208.883 235.37 208.642 235.889 208.566C236.408 208.477 236.89 208.566 237.333 208.832C237.485 208.933 237.643 209.035 237.808 209.136C237.973 209.225 238.131 209.307 238.283 209.383C238.764 209.624 239.246 209.807 239.727 209.934C240.208 210.048 240.709 210.105 241.228 210.105C241.963 210.105 242.533 209.978 242.938 209.725C243.356 209.472 243.565 209.123 243.565 208.68V208.623C243.565 208.42 243.521 208.237 243.432 208.072C243.356 207.895 243.198 207.73 242.957 207.578C242.716 207.426 242.368 207.274 241.912 207.122C241.469 206.957 240.88 206.78 240.145 206.59C239.271 206.362 238.46 206.115 237.713 205.849C236.966 205.583 236.313 205.241 235.756 204.823C235.211 204.405 234.781 203.879 234.464 203.246C234.147 202.613 233.989 201.808 233.989 200.833V200.795C233.989 199.959 234.147 199.193 234.464 198.496C234.793 197.799 235.243 197.204 235.813 196.71C236.396 196.203 237.086 195.811 237.884 195.532C238.695 195.253 239.581 195.114 240.544 195.114C241.925 195.114 243.204 195.31 244.382 195.703C244.623 195.779 244.844 195.861 245.047 195.95C245.262 196.039 245.465 196.134 245.655 196.235C245.934 196.387 246.162 196.583 246.339 196.824C246.529 197.065 246.656 197.331 246.719 197.622C246.782 197.901 246.789 198.192 246.738 198.496C246.687 198.787 246.573 199.066 246.396 199.332L246.358 199.37C246.054 199.813 245.642 200.105 245.123 200.244C244.616 200.371 244.122 200.307 243.641 200.054C243.261 199.851 242.862 199.668 242.444 199.503C242.102 199.376 241.773 199.281 241.456 199.218C241.139 199.155 240.816 199.123 240.487 199.123C239.866 199.123 239.366 199.243 238.986 199.484C238.619 199.712 238.435 200.029 238.435 200.434V200.472C238.435 200.7 238.473 200.903 238.549 201.08C238.638 201.245 238.809 201.409 239.062 201.574C239.328 201.726 239.702 201.884 240.183 202.049C240.664 202.214 241.31 202.397 242.121 202.6ZM250.557 197.394C250.557 197.077 250.614 196.786 250.728 196.52C250.855 196.241 251.019 196.001 251.222 195.798C251.437 195.583 251.678 195.418 251.944 195.304C252.223 195.177 252.52 195.114 252.837 195.114H263.021C263.312 195.114 263.585 195.171 263.838 195.285C264.091 195.399 264.313 195.551 264.503 195.741C264.693 195.931 264.845 196.153 264.959 196.406C265.073 196.659 265.13 196.932 265.13 197.223V197.28C265.13 197.571 265.073 197.844 264.959 198.097C264.845 198.35 264.693 198.572 264.503 198.762C264.313 198.952 264.091 199.104 263.838 199.218C263.585 199.332 263.312 199.389 263.021 199.389H255.098V202.467H261.748C262.027 202.467 262.293 202.524 262.546 202.638C262.799 202.739 263.015 202.885 263.192 203.075C263.382 203.252 263.528 203.468 263.629 203.721C263.743 203.974 263.8 204.24 263.8 204.519V204.576C263.8 204.855 263.743 205.121 263.629 205.374C263.528 205.615 263.382 205.83 263.192 206.02C263.015 206.21 262.799 206.362 262.546 206.476C262.293 206.577 262.027 206.628 261.748 206.628H255.098V209.839H263.021C263.312 209.839 263.585 209.896 263.838 210.01C264.091 210.124 264.313 210.276 264.503 210.466C264.693 210.656 264.845 210.878 264.959 211.131C265.073 211.384 265.13 211.657 265.13 211.948V212.005C265.13 212.296 265.073 212.569 264.959 212.822C264.845 213.075 264.693 213.297 264.503 213.487C264.313 213.677 264.091 213.829 263.838 213.943C263.585 214.057 263.312 214.114 263.021 214.114H252.837C252.52 214.114 252.223 214.057 251.944 213.943C251.678 213.816 251.437 213.652 251.222 213.449C251.019 213.234 250.855 212.993 250.728 212.727C250.614 212.448 250.557 212.151 250.557 211.834V197.394ZM285.56 211.093C285.712 211.46 285.763 211.821 285.712 212.176C285.674 212.531 285.56 212.854 285.37 213.145C285.18 213.436 284.927 213.671 284.61 213.848C284.306 214.025 283.958 214.114 283.565 214.114H283.508C283.065 214.114 282.66 213.994 282.292 213.753C281.938 213.5 281.672 213.17 281.494 212.765L276.668 200.947L271.823 212.784C271.659 213.189 271.399 213.512 271.044 213.753C270.69 213.994 270.291 214.114 269.847 214.114H269.809C269.429 214.114 269.087 214.025 268.783 213.848C268.479 213.671 268.232 213.443 268.042 213.164C267.852 212.873 267.732 212.556 267.681 212.214C267.643 211.859 267.7 211.505 267.852 211.15C268.916 208.667 269.828 206.533 270.588 204.747C271.348 202.948 271.975 201.473 272.469 200.32C273.052 198.977 273.533 197.856 273.913 196.957C274.154 196.387 274.528 195.937 275.034 195.608C275.541 195.279 276.098 195.114 276.706 195.114H276.744C277.352 195.114 277.91 195.279 278.416 195.608C278.923 195.937 279.297 196.387 279.537 196.957L285.56 211.093ZM273.476 209.174C273.958 209.199 274.439 209.142 274.92 209.003C275.414 208.851 275.883 208.636 276.326 208.357C276.782 208.078 277.194 207.736 277.561 207.331C277.941 206.926 278.264 206.463 278.53 205.944C277.821 206.565 277.169 206.919 276.573 207.008C275.991 207.097 275.459 207.052 274.977 206.875C274.838 206.812 274.692 206.818 274.54 206.894C274.401 206.957 274.3 207.065 274.236 207.217L273.476 209.174ZM302.659 210.675C302.912 211.042 303.039 211.429 303.039 211.834C303.051 212.239 302.969 212.613 302.792 212.955C302.614 213.284 302.355 213.563 302.013 213.791C301.683 214.006 301.297 214.114 300.854 214.114H300.797C300.429 214.114 300.081 214.032 299.752 213.867C299.435 213.69 299.175 213.449 298.973 213.145L295.648 208.205H292.874V211.834C292.874 212.151 292.81 212.448 292.684 212.727C292.57 212.993 292.405 213.234 292.19 213.449C291.987 213.652 291.746 213.816 291.468 213.943C291.202 214.057 290.91 214.114 290.594 214.114H290.556C290.239 214.114 289.941 214.057 289.663 213.943C289.397 213.816 289.156 213.652 288.941 213.449C288.738 213.234 288.573 212.993 288.447 212.727C288.333 212.448 288.276 212.151 288.276 211.834V197.394C288.276 197.077 288.333 196.786 288.447 196.52C288.573 196.241 288.738 196.001 288.941 195.798C289.156 195.583 289.397 195.418 289.663 195.304C289.941 195.177 290.239 195.114 290.556 195.114H296.978C298.168 195.114 299.232 195.279 300.17 195.608C301.12 195.937 301.918 196.425 302.564 197.071C303.666 198.173 304.217 199.642 304.217 201.479V201.517C304.217 202.898 303.9 204.101 303.267 205.127C302.646 206.153 301.709 206.932 300.455 207.464L302.659 210.675ZM299.562 201.688C299.562 201.169 299.46 200.757 299.258 200.453C299.055 200.136 298.802 199.896 298.498 199.731C298.206 199.554 297.89 199.44 297.548 199.389C297.218 199.338 296.914 199.313 296.636 199.313H292.874V204.082H296.712C297.624 204.082 298.327 203.879 298.821 203.474C299.315 203.056 299.562 202.48 299.562 201.745V201.688ZM322.491 209.25C322.719 209.478 322.884 209.731 322.985 210.01C323.086 210.289 323.124 210.574 323.099 210.865C323.086 211.156 323.01 211.435 322.871 211.701C322.732 211.967 322.542 212.201 322.301 212.404L321.674 212.86C321.509 212.961 321.345 213.056 321.18 213.145C321.015 213.234 320.844 213.322 320.667 213.411C320.072 213.702 319.394 213.924 318.634 214.076C317.912 214.228 317.095 214.304 316.183 214.304C314.79 214.304 313.517 214.057 312.364 213.563C311.186 213.056 310.166 212.372 309.305 211.511C308.444 210.624 307.772 209.598 307.291 208.433C306.81 207.242 306.569 205.988 306.569 204.671V204.614C306.569 203.271 306.81 202.017 307.291 200.852C307.519 200.282 307.798 199.744 308.127 199.237C308.469 198.718 308.862 198.23 309.305 197.774C310.141 196.9 311.167 196.203 312.383 195.684C313.599 195.177 314.916 194.924 316.335 194.924C316.778 194.924 317.196 194.943 317.589 194.981C317.982 195.006 318.362 195.057 318.729 195.133C319.084 195.196 319.426 195.279 319.755 195.38C320.084 195.481 320.395 195.595 320.686 195.722C320.825 195.785 320.958 195.849 321.085 195.912C321.212 195.963 321.338 196.02 321.465 196.083C321.554 196.134 321.636 196.184 321.712 196.235C321.801 196.286 321.889 196.343 321.978 196.406C322.257 196.583 322.478 196.811 322.643 197.09C322.808 197.356 322.909 197.641 322.947 197.945C322.985 198.249 322.96 198.553 322.871 198.857C322.782 199.161 322.63 199.44 322.415 199.693L322.396 199.731C322.219 199.946 322.01 200.117 321.769 200.244C321.528 200.358 321.281 200.434 321.028 200.472C320.775 200.51 320.515 200.504 320.249 200.453C319.996 200.402 319.755 200.301 319.527 200.149C319.388 200.06 319.248 199.978 319.109 199.902C318.97 199.826 318.83 199.75 318.691 199.674C318.336 199.497 317.963 199.364 317.57 199.275C317.177 199.186 316.759 199.142 316.316 199.142C315.581 199.142 314.91 199.281 314.302 199.56C313.681 199.851 313.149 200.238 312.706 200.719C312.25 201.238 311.902 201.815 311.661 202.448C311.408 203.145 311.281 203.848 311.281 204.557V204.614C311.281 205.336 311.408 206.045 311.661 206.742C311.788 207.071 311.933 207.382 312.098 207.673C312.263 207.964 312.459 208.237 312.687 208.49C313.13 208.971 313.662 209.358 314.283 209.649C314.929 209.94 315.607 210.086 316.316 210.086C317.317 210.086 318.159 209.902 318.843 209.535C319.147 209.37 319.438 209.187 319.717 208.984C319.932 208.832 320.16 208.724 320.401 208.661C320.642 208.598 320.882 208.579 321.123 208.604C321.376 208.617 321.617 208.674 321.845 208.775C322.073 208.876 322.282 209.022 322.472 209.212L322.491 209.25ZM337.194 197.394C337.194 197.077 337.251 196.786 337.365 196.52C337.491 196.241 337.656 196.001 337.859 195.798C338.074 195.583 338.315 195.418 338.581 195.304C338.859 195.177 339.157 195.114 339.474 195.114H339.531C339.847 195.114 340.139 195.177 340.405 195.304C340.683 195.418 340.924 195.583 341.127 195.798C341.329 196.001 341.488 196.241 341.602 196.52C341.728 196.786 341.792 197.077 341.792 197.394V211.834C341.792 212.151 341.728 212.448 341.602 212.727C341.488 212.993 341.329 213.234 341.127 213.449C340.924 213.652 340.683 213.816 340.405 213.943C340.139 214.057 339.847 214.114 339.531 214.114H339.474C339.157 214.114 338.859 214.057 338.581 213.943C338.315 213.816 338.074 213.652 337.859 213.449C337.656 213.234 337.491 212.993 337.365 212.727C337.251 212.448 337.194 212.151 337.194 211.834V206.704H330.24V211.834C330.24 212.151 330.176 212.448 330.05 212.727C329.936 213.006 329.777 213.246 329.575 213.449C329.372 213.652 329.131 213.816 328.853 213.943C328.587 214.057 328.295 214.114 327.979 214.114H327.922C327.605 214.114 327.307 214.057 327.029 213.943C326.763 213.816 326.522 213.652 326.307 213.449C326.104 213.246 325.939 213.006 325.813 212.727C325.699 212.448 325.642 212.151 325.642 211.834V197.394C325.642 197.077 325.699 196.786 325.813 196.52C325.939 196.241 326.104 196.001 326.307 195.798C326.522 195.583 326.763 195.418 327.029 195.304C327.307 195.177 327.605 195.114 327.922 195.114H327.96C328.276 195.114 328.574 195.177 328.853 195.304C329.131 195.418 329.372 195.583 329.575 195.798C329.777 196.001 329.936 196.241 330.05 196.52C330.176 196.786 330.24 197.077 330.24 197.394V202.429H337.194V197.394ZM344.343 197.394C344.343 197.077 344.4 196.786 344.514 196.52C344.641 196.241 344.806 196.001 345.008 195.798C345.224 195.583 345.464 195.418 345.73 195.304C346.009 195.177 346.307 195.114 346.623 195.114H356.807C357.099 195.114 357.371 195.171 357.624 195.285C357.878 195.399 358.099 195.551 358.289 195.741C358.479 195.931 358.631 196.153 358.745 196.406C358.859 196.659 358.916 196.932 358.916 197.223V197.28C358.916 197.571 358.859 197.844 358.745 198.097C358.631 198.35 358.479 198.572 358.289 198.762C358.099 198.952 357.878 199.104 357.624 199.218C357.371 199.332 357.099 199.389 356.807 199.389H348.884V202.467H355.534C355.813 202.467 356.079 202.524 356.332 202.638C356.586 202.739 356.801 202.885 356.978 203.075C357.168 203.252 357.314 203.468 357.415 203.721C357.529 203.974 357.586 204.24 357.586 204.519V204.576C357.586 204.855 357.529 205.121 357.415 205.374C357.314 205.615 357.168 205.83 356.978 206.02C356.801 206.21 356.586 206.362 356.332 206.476C356.079 206.577 355.813 206.628 355.534 206.628H348.884V209.839H356.807C357.099 209.839 357.371 209.896 357.624 210.01C357.878 210.124 358.099 210.276 358.289 210.466C358.479 210.656 358.631 210.878 358.745 211.131C358.859 211.384 358.916 211.657 358.916 211.948V212.005C358.916 212.296 358.859 212.569 358.745 212.822C358.631 213.075 358.479 213.297 358.289 213.487C358.099 213.677 357.878 213.829 357.624 213.943C357.371 214.057 357.099 214.114 356.807 214.114H346.623C346.307 214.114 346.009 214.057 345.73 213.943C345.464 213.816 345.224 213.652 345.008 213.449C344.806 213.234 344.641 212.993 344.514 212.727C344.4 212.448 344.343 212.151 344.343 211.834V197.394ZM375.851 210.675C376.104 211.042 376.231 211.429 376.231 211.834C376.244 212.239 376.161 212.613 375.984 212.955C375.807 213.284 375.547 213.563 375.205 213.791C374.876 214.006 374.489 214.114 374.046 214.114H373.989C373.622 214.114 373.273 214.032 372.944 213.867C372.627 213.69 372.368 213.449 372.165 213.145L368.84 208.205H366.066V211.834C366.066 212.151 366.003 212.448 365.876 212.727C365.762 212.993 365.597 213.234 365.382 213.449C365.179 213.652 364.939 213.816 364.66 213.943C364.394 214.057 364.103 214.114 363.786 214.114H363.748C363.431 214.114 363.134 214.057 362.855 213.943C362.589 213.816 362.348 213.652 362.133 213.449C361.93 213.234 361.766 212.993 361.639 212.727C361.525 212.448 361.468 212.151 361.468 211.834V197.394C361.468 197.077 361.525 196.786 361.639 196.52C361.766 196.241 361.93 196.001 362.133 195.798C362.348 195.583 362.589 195.418 362.855 195.304C363.134 195.177 363.431 195.114 363.748 195.114H370.17C371.361 195.114 372.425 195.279 373.362 195.608C374.312 195.937 375.11 196.425 375.756 197.071C376.858 198.173 377.409 199.642 377.409 201.479V201.517C377.409 202.898 377.092 204.101 376.459 205.127C375.838 206.153 374.901 206.932 373.647 207.464L375.851 210.675ZM372.754 201.688C372.754 201.169 372.653 200.757 372.45 200.453C372.247 200.136 371.994 199.896 371.69 199.731C371.399 199.554 371.082 199.44 370.74 199.389C370.411 199.338 370.107 199.313 369.828 199.313H366.066V204.082H369.904C370.816 204.082 371.519 203.879 372.013 203.474C372.507 203.056 372.754 202.48 372.754 201.745V201.688Z" fill="black"/>
<path d="M26.103 1.07457C22.5435 5.13364 15.6743 24.8045 8.49283 51.532C7.24388 55.9657 5.99494 60.9615 5.6827 62.5227C5.30802 64.1463 4.74599 66.2071 4.37131 67.1438C2.99747 70.7033 0 87.8138 0 91.9353C0 100.553 3.80928 113.043 8.61772 120.224C11.4278 124.47 15.1122 128.842 18.7342 132.276C24.2295 137.522 23.73 137.584 28.2262 131.152C30.4118 128.03 33.2219 124.033 34.4709 122.222C35.7198 120.411 37.4059 118.101 38.0928 117.102C38.8422 116.04 40.4658 113.792 41.7148 112.043C42.9637 110.295 45.5865 106.673 47.4599 104.05C50.6447 99.5539 57.5764 90.2493 60.7612 86.1277C66.9435 78.0096 73.0633 71.2028 74.1249 71.2028C75.811 71.2028 91.4228 90.2493 100.54 103.426C105.661 110.794 119.711 130.653 120.336 131.464C120.648 131.777 121.522 133.151 122.334 134.399C123.084 135.711 123.958 136.772 124.27 136.772C125.332 136.772 133.762 128.342 136.947 124.096C141.318 118.288 144.003 112.918 146.251 105.611C147.75 100.491 148 98.6796 148 91.8729C148 83.9421 147.938 83.5049 144.191 68.3927C138.945 46.9733 130.64 18.4349 128.079 12.8147C124.457 5.00874 122.834 1.82393 122.022 1.01212C119.649 -1.42332 115.59 1.01212 111.219 7.44418C108.471 11.4408 101.289 25.1792 99.6034 29.5505C98.9789 31.1741 98.2295 32.6729 97.9797 32.8602C97.6675 32.9851 95.8565 32.7353 93.8582 32.2357C82.4928 29.3007 62.8844 29.613 52.0186 32.7978C50.7696 33.1725 50.27 32.3606 46.0236 23.618C40.9654 13.3142 36.0321 5.25853 32.7224 2.01128C30.4118 -0.236832 27.6017 -0.673965 26.103 1.07457ZM37.0937 50.9699C38.2802 52.1564 38.3426 52.5936 37.3435 53.5927C35.7823 55.1539 30.5992 54.2172 30.5992 52.4062C30.5992 51.3446 32.7224 49.9708 34.346 49.9708C35.3451 49.9708 36.5941 50.4079 37.0937 50.9699ZM116.651 50.7201C117.9 51.9691 117.526 53.6552 115.902 54.0923C113.654 54.6543 111.656 54.1547 110.906 52.9058C110.344 51.9691 110.469 51.5944 111.406 50.845C112.905 49.7834 115.652 49.721 116.651 50.7201ZM132.263 70.2037C134.699 72.4518 134.574 73.6383 131.639 78.0096C124.707 88.1885 115.527 91.2484 105.161 86.8147C101.165 85.0661 96.7933 81.9438 96.7933 80.7573C96.7933 79.7581 100.353 72.8889 102.226 70.2661C103.475 68.5801 104.474 68.2054 103.912 69.5792C103.725 70.0788 103.85 72.0146 104.224 73.9505C106.41 85.8779 118.275 88.813 124.083 78.8214C125.644 76.1986 125.831 75.2619 125.831 70.4535V65.0206L128.017 66.6442C129.203 67.5184 131.139 69.1421 132.263 70.2037ZM22.2937 70.0788C22.2312 76.386 24.4793 81.0071 28.7257 83.6298C32.6599 86.0028 37.6557 85.0037 40.9654 81.3193C42.7139 79.321 44.3376 74.4501 44.3376 70.953L44.4 68.3927L45.6489 69.8914C47.1477 71.7024 50.8945 78.4467 51.4565 80.3826C52.3308 83.1303 41.0278 88.6881 34.346 88.8754C27.9139 89.0003 21.6068 85.1286 16.9232 78.1345C13.3013 72.764 13.3013 72.9514 17.6101 69.0172C19.7333 67.1438 21.6068 65.5826 21.8565 65.5826C22.1063 65.5826 22.2937 67.6433 22.2937 70.0788Z" fill="black"/>
<path d="M70.2533 86.6275C68.817 87.0022 67.4431 88.0013 67.4431 88.6883C67.4431 88.8756 68.5672 90.3119 70.0035 91.8731C72.8761 94.933 72.8761 96.4942 70.1284 99.0545C68.255 100.803 64.633 101.053 62.6972 99.6165C59.4499 97.1811 59.2626 100.179 62.5098 103.176C65.2575 105.799 69.1292 105.424 72.4389 102.302L74.0001 100.803L76.6853 102.864C80.2448 105.611 82.8676 105.611 85.8651 102.989C87.2389 101.74 88.0507 100.491 88.0507 99.5541V97.9929L86.1773 99.4292C82.4305 102.177 77.4347 100.428 76.498 96.1195C76.1858 94.6207 76.498 93.9338 78.309 91.998C79.5579 90.6866 80.5571 89.1254 80.5571 88.5634C80.5571 86.8148 74.3748 85.6283 70.2533 86.6275Z" fill="black"/>
<path d="M48.4589 136.335C45.399 139.395 43.2758 151.135 44.3374 159.378C45.5239 168.87 48.0218 174.241 51.3315 174.241C53.8918 174.241 58.0133 171.868 63.8834 166.997C71.9391 160.377 73.2505 159.691 75.9982 160.815C77.8091 161.564 81.556 164.437 85.8024 168.183C88.7374 170.806 93.5458 173.554 95.669 173.928C97.7298 174.303 98.2294 174.116 99.7906 172.555C106.035 166.31 105.411 140.02 98.9788 135.773C96.5433 134.212 93.6083 135.149 88.2378 139.27C85.5526 141.269 82.5551 143.704 81.4935 144.578C80.4944 145.515 78.3712 146.951 76.9349 147.826C74.3745 149.387 74.1247 149.387 72.2513 148.45C71.1273 147.95 67.7551 145.39 64.6328 142.767C58.8252 137.772 53.8918 134.899 51.3939 134.899C50.5821 134.899 49.2707 135.586 48.4589 136.335Z" fill="#DB3328"/>
<path d="M200.648 39.936C201.352 38.816 202.28 37.936 203.432 37.296C204.584 36.624 205.832 36.288 207.176 36.288H207.32C208.376 36.288 209.368 36.496 210.296 36.912C211.224 37.296 212.04 37.84 212.744 38.544C213.448 39.248 213.992 40.064 214.376 40.992C214.792 41.92 215 42.912 215 43.968V78.576C215 79.376 214.84 80.128 214.52 80.832C214.232 81.504 213.832 82.096 213.32 82.608C212.808 83.12 212.2 83.536 211.496 83.856C210.824 84.144 210.088 84.288 209.288 84.288H209.096C208.328 84.288 207.592 84.144 206.888 83.856C206.216 83.568 205.624 83.168 205.112 82.656C204.6 82.144 204.2 81.552 203.912 80.88C203.624 80.208 203.48 79.488 203.48 78.72V55.392L191.624 73.392C191.432 73.648 191.176 73.776 190.856 73.776C190.536 73.776 190.296 73.648 190.136 73.392L178.424 55.584V78.624C178.424 79.424 178.264 80.176 177.944 80.88C177.656 81.552 177.256 82.144 176.744 82.656C176.232 83.168 175.624 83.568 174.92 83.856C174.248 84.144 173.528 84.288 172.76 84.288H172.664C171.896 84.288 171.16 84.144 170.456 83.856C169.784 83.536 169.192 83.12 168.68 82.608C168.168 82.096 167.752 81.504 167.432 80.832C167.144 80.128 167 79.392 167 78.624V43.968C167 42.912 167.192 41.92 167.576 40.992C167.992 40.064 168.552 39.248 169.256 38.544C169.96 37.84 170.776 37.296 171.704 36.912C172.632 36.496 173.624 36.288 174.68 36.288H174.824C176.168 36.288 177.416 36.624 178.568 37.296C179.72 37.936 180.648 38.816 181.352 39.936L191 55.44L200.648 39.936ZM221.418 42C221.418 41.2 221.562 40.464 221.85 39.792C222.17 39.088 222.586 38.48 223.098 37.968C223.642 37.456 224.25 37.056 224.922 36.768C225.626 36.448 226.378 36.288 227.178 36.288H227.274C228.074 36.288 228.81 36.448 229.482 36.768C230.186 37.056 230.794 37.456 231.306 37.968C231.85 38.48 232.266 39.088 232.554 39.792C232.874 40.464 233.034 41.2 233.034 42V78.528C233.034 79.328 232.874 80.08 232.554 80.784C232.266 81.456 231.85 82.064 231.306 82.608C230.794 83.12 230.186 83.536 229.482 83.856C228.81 84.144 228.074 84.288 227.274 84.288H227.178C226.378 84.288 225.626 84.144 224.922 83.856C224.25 83.536 223.642 83.12 223.098 82.608C222.586 82.064 222.17 81.456 221.85 80.784C221.562 80.08 221.418 79.328 221.418 78.528V42ZM260.005 55.2C262.245 55.776 264.277 56.432 266.101 57.168C267.925 57.904 269.477 58.832 270.757 59.952C272.069 61.04 273.077 62.368 273.781 63.936C274.517 65.472 274.885 67.312 274.885 69.456V69.552C274.885 71.824 274.469 73.872 273.637 75.696C272.837 77.488 271.685 79.024 270.181 80.304C268.677 81.584 266.853 82.576 264.709 83.28C262.565 83.952 260.181 84.288 257.557 84.288C255.285 84.288 253.077 84.048 250.933 83.568C248.789 83.088 246.725 82.368 244.741 81.408C243.877 81.024 243.061 80.592 242.293 80.112C241.589 79.696 241.029 79.168 240.613 78.528C240.197 77.856 239.925 77.152 239.797 76.416C239.669 75.68 239.701 74.944 239.893 74.208C240.085 73.472 240.437 72.784 240.949 72.144L241.045 72.096C241.877 71.072 242.949 70.464 244.261 70.272C245.573 70.048 246.789 70.272 247.909 70.944C248.293 71.2 248.693 71.456 249.109 71.712C249.525 71.936 249.925 72.144 250.309 72.336C251.525 72.944 252.741 73.408 253.957 73.728C255.173 74.016 256.437 74.16 257.749 74.16C259.605 74.16 261.045 73.84 262.069 73.2C263.125 72.56 263.653 71.68 263.653 70.56V70.416C263.653 69.904 263.541 69.44 263.317 69.024C263.125 68.576 262.725 68.16 262.117 67.776C261.509 67.392 260.629 67.008 259.477 66.624C258.357 66.208 256.869 65.76 255.013 65.28C252.805 64.704 250.757 64.08 248.869 63.408C246.981 62.736 245.333 61.872 243.925 60.816C242.549 59.76 241.461 58.432 240.661 56.832C239.861 55.232 239.461 53.2 239.461 50.736V50.64C239.461 48.528 239.861 46.592 240.661 44.832C241.493 43.072 242.629 41.568 244.069 40.32C245.541 39.04 247.285 38.048 249.301 37.344C251.349 36.64 253.589 36.288 256.021 36.288C259.509 36.288 262.741 36.784 265.717 37.776C266.325 37.968 266.885 38.176 267.397 38.4C267.941 38.624 268.453 38.864 268.933 39.12C269.637 39.504 270.213 40 270.661 40.608C271.141 41.216 271.461 41.888 271.621 42.624C271.781 43.328 271.797 44.064 271.669 44.832C271.541 45.568 271.253 46.272 270.805 46.944L270.709 47.04C269.941 48.16 268.901 48.896 267.589 49.248C266.309 49.568 265.061 49.408 263.845 48.768C262.885 48.256 261.877 47.792 260.821 47.376C259.957 47.056 259.125 46.816 258.325 46.656C257.525 46.496 256.709 46.416 255.877 46.416C254.309 46.416 253.045 46.72 252.085 47.328C251.157 47.904 250.693 48.704 250.693 49.728V49.824C250.693 50.4 250.789 50.912 250.981 51.36C251.205 51.776 251.637 52.192 252.277 52.608C252.949 52.992 253.893 53.392 255.109 53.808C256.325 54.224 257.957 54.688 260.005 55.2ZM277.707 41.616C277.707 40.88 277.851 40.192 278.139 39.552C278.427 38.912 278.811 38.352 279.291 37.872C279.771 37.392 280.331 37.008 280.971 36.72C281.611 36.432 282.299 36.288 283.035 36.288H312.363C313.099 36.288 313.787 36.432 314.427 36.72C315.067 37.008 315.627 37.392 316.107 37.872C316.587 38.352 316.971 38.912 317.259 39.552C317.547 40.192 317.691 40.88 317.691 41.616V41.76C317.691 42.496 317.547 43.184 317.259 43.824C316.971 44.464 316.587 45.024 316.107 45.504C315.627 45.984 315.067 46.368 314.427 46.656C313.787 46.944 313.099 47.088 312.363 47.088H303.531V78.528C303.531 79.328 303.371 80.08 303.051 80.784C302.763 81.456 302.347 82.064 301.803 82.608C301.291 83.12 300.683 83.536 299.979 83.856C299.307 84.144 298.571 84.288 297.771 84.288H297.675C296.875 84.288 296.123 84.144 295.419 83.856C294.747 83.536 294.139 83.12 293.595 82.608C293.083 82.064 292.667 81.456 292.347 80.784C292.059 80.08 291.915 79.328 291.915 78.528V47.088H283.035C282.299 47.088 281.611 46.944 280.971 46.656C280.331 46.368 279.771 45.984 279.291 45.504C278.811 45.024 278.427 44.464 278.139 43.824C277.851 43.184 277.707 42.496 277.707 41.76V41.616ZM324.11 42.048C324.11 41.248 324.254 40.512 324.542 39.84C324.862 39.136 325.278 38.528 325.79 38.016C326.334 37.472 326.942 37.056 327.614 36.768C328.318 36.448 329.07 36.288 329.87 36.288H355.598C356.334 36.288 357.022 36.432 357.662 36.72C358.302 37.008 358.862 37.392 359.342 37.872C359.822 38.352 360.206 38.912 360.494 39.552C360.782 40.192 360.926 40.88 360.926 41.616V41.76C360.926 42.496 360.782 43.184 360.494 43.824C360.206 44.464 359.822 45.024 359.342 45.504C358.862 45.984 358.302 46.368 357.662 46.656C357.022 46.944 356.334 47.088 355.598 47.088H335.582V54.864H352.382C353.086 54.864 353.758 55.008 354.398 55.296C355.038 55.552 355.582 55.92 356.03 56.4C356.51 56.848 356.878 57.392 357.134 58.032C357.422 58.672 357.566 59.344 357.566 60.048V60.192C357.566 60.896 357.422 61.568 357.134 62.208C356.878 62.816 356.51 63.36 356.03 63.84C355.582 64.32 355.038 64.704 354.398 64.992C353.758 65.248 353.086 65.376 352.382 65.376H335.582V73.488H355.598C356.334 73.488 357.022 73.632 357.662 73.92C358.302 74.208 358.862 74.592 359.342 75.072C359.822 75.552 360.206 76.112 360.494 76.752C360.782 77.392 360.926 78.08 360.926 78.816V78.96C360.926 79.696 360.782 80.384 360.494 81.024C360.206 81.664 359.822 82.224 359.342 82.704C358.862 83.184 358.302 83.568 357.662 83.856C357.022 84.144 356.334 84.288 355.598 84.288H329.87C329.07 84.288 328.318 84.144 327.614 83.856C326.942 83.536 326.334 83.12 325.79 82.608C325.278 82.064 324.862 81.456 324.542 80.784C324.254 80.08 324.11 79.328 324.11 78.528V42.048ZM403.708 75.6C404.348 76.528 404.668 77.504 404.668 78.528C404.7 79.552 404.492 80.496 404.044 81.36C403.596 82.192 402.94 82.896 402.076 83.472C401.244 84.016 400.268 84.288 399.148 84.288H399.004C398.076 84.288 397.196 84.08 396.364 83.664C395.564 83.216 394.908 82.608 394.396 81.84L385.996 69.36H378.988V78.528C378.988 79.328 378.828 80.08 378.508 80.784C378.22 81.456 377.804 82.064 377.26 82.608C376.748 83.12 376.14 83.536 375.436 83.856C374.764 84.144 374.028 84.288 373.228 84.288H373.132C372.332 84.288 371.58 84.144 370.876 83.856C370.204 83.536 369.596 83.12 369.052 82.608C368.54 82.064 368.124 81.456 367.804 80.784C367.516 80.08 367.372 79.328 367.372 78.528V42.048C367.372 41.248 367.516 40.512 367.804 39.84C368.124 39.136 368.54 38.528 369.052 38.016C369.596 37.472 370.204 37.056 370.876 36.768C371.58 36.448 372.332 36.288 373.132 36.288H389.356C392.364 36.288 395.052 36.704 397.42 37.536C399.82 38.368 401.836 39.6 403.468 41.232C406.252 44.016 407.644 47.728 407.644 52.368V52.464C407.644 55.952 406.844 58.992 405.244 61.584C403.676 64.176 401.308 66.144 398.14 67.488L403.708 75.6ZM395.884 52.896C395.884 51.584 395.628 50.544 395.116 49.776C394.604 48.976 393.964 48.368 393.196 47.952C392.46 47.504 391.66 47.216 390.796 47.088C389.964 46.96 389.196 46.896 388.492 46.896H378.988V58.944H388.684C390.988 58.944 392.764 58.432 394.012 57.408C395.26 56.352 395.884 54.896 395.884 53.04V52.896Z" fill="black"/>
<path d="M200.648 107.971C201.352 106.851 202.28 105.971 203.432 105.331C204.584 104.659 205.832 104.323 207.176 104.323H207.32C208.376 104.323 209.368 104.531 210.296 104.947C211.224 105.331 212.04 105.875 212.744 106.579C213.448 107.283 213.992 108.099 214.376 109.027C214.792 109.955 215 110.947 215 112.003V146.611C215 147.411 214.84 148.163 214.52 148.867C214.232 149.539 213.832 150.131 213.32 150.643C212.808 151.155 212.2 151.571 211.496 151.891C210.824 152.179 210.088 152.323 209.288 152.323H209.096C208.328 152.323 207.592 152.179 206.888 151.891C206.216 151.603 205.624 151.203 205.112 150.691C204.6 150.179 204.2 149.587 203.912 148.915C203.624 148.243 203.48 147.523 203.48 146.755V123.427L191.624 141.427C191.432 141.683 191.176 141.811 190.856 141.811C190.536 141.811 190.296 141.683 190.136 141.427L178.424 123.619V146.659C178.424 147.459 178.264 148.211 177.944 148.915C177.656 149.587 177.256 150.179 176.744 150.691C176.232 151.203 175.624 151.603 174.92 151.891C174.248 152.179 173.528 152.323 172.76 152.323H172.664C171.896 152.323 171.16 152.179 170.456 151.891C169.784 151.571 169.192 151.155 168.68 150.643C168.168 150.131 167.752 149.539 167.432 148.867C167.144 148.163 167 147.427 167 146.659V112.003C167 110.947 167.192 109.955 167.576 109.027C167.992 108.099 168.552 107.283 169.256 106.579C169.96 105.875 170.776 105.331 171.704 104.947C172.632 104.531 173.624 104.323 174.68 104.323H174.824C176.168 104.323 177.416 104.659 178.568 105.331C179.72 105.971 180.648 106.851 181.352 107.971L191 123.475L200.648 107.971ZM221.418 110.083C221.418 109.283 221.562 108.547 221.85 107.875C222.17 107.171 222.586 106.563 223.098 106.051C223.642 105.507 224.25 105.091 224.922 104.803C225.626 104.483 226.378 104.323 227.178 104.323H252.906C253.642 104.323 254.33 104.467 254.97 104.755C255.61 105.043 256.17 105.427 256.65 105.907C257.13 106.387 257.514 106.947 257.802 107.587C258.09 108.227 258.234 108.915 258.234 109.651V109.795C258.234 110.531 258.09 111.219 257.802 111.859C257.514 112.499 257.13 113.059 256.65 113.539C256.17 114.019 255.61 114.403 254.97 114.691C254.33 114.979 253.642 115.123 252.906 115.123H232.89V122.899H249.69C250.394 122.899 251.066 123.043 251.706 123.331C252.346 123.587 252.89 123.955 253.338 124.435C253.818 124.883 254.186 125.427 254.442 126.067C254.73 126.707 254.874 127.379 254.874 128.083V128.227C254.874 128.931 254.73 129.603 254.442 130.243C254.186 130.851 253.818 131.395 253.338 131.875C252.89 132.355 252.346 132.739 251.706 133.027C251.066 133.283 250.394 133.411 249.69 133.411H232.89V141.523H252.906C253.642 141.523 254.33 141.667 254.97 141.955C255.61 142.243 256.17 142.627 256.65 143.107C257.13 143.587 257.514 144.147 257.802 144.787C258.09 145.427 258.234 146.115 258.234 146.851V146.995C258.234 147.731 258.09 148.419 257.802 149.059C257.514 149.699 257.13 150.259 256.65 150.739C256.17 151.219 255.61 151.603 254.97 151.891C254.33 152.179 253.642 152.323 252.906 152.323H227.178C226.378 152.323 225.626 152.179 224.922 151.891C224.25 151.571 223.642 151.155 223.098 150.643C222.586 150.099 222.17 149.491 221.85 148.819C221.562 148.115 221.418 147.363 221.418 146.563V110.083ZM272.729 130.147C272.825 131.299 273.145 132.467 273.689 133.651C274.041 134.483 274.457 135.251 274.937 135.955C275.417 136.659 275.961 137.331 276.569 137.971C277.721 139.187 279.193 140.163 280.985 140.899C282.617 141.603 284.505 141.955 286.649 141.955C288.761 141.955 290.617 141.603 292.217 140.899C293.945 140.195 295.417 139.235 296.633 138.019C297.881 136.835 298.857 135.411 299.561 133.747C300.233 132.115 300.569 130.355 300.569 128.467V128.371C300.569 126.547 300.217 124.803 299.513 123.139C299.161 122.307 298.745 121.539 298.265 120.835C297.817 120.131 297.273 119.459 296.633 118.819C295.385 117.571 293.897 116.595 292.169 115.891C290.409 115.155 288.537 114.787 286.553 114.787C284.633 114.787 282.761 115.155 280.937 115.891C279.241 116.627 277.769 117.587 276.521 118.771C275.369 119.923 274.409 121.347 273.641 123.043C273.193 124.099 272.889 125.299 272.729 126.643L272.681 127.171C272.585 127.907 272.585 128.643 272.681 129.379L272.729 130.147ZM261.305 128.275C261.305 124.851 261.929 121.651 263.177 118.675C264.425 115.763 266.185 113.171 268.457 110.899C269.577 109.779 270.793 108.787 272.105 107.923C273.449 107.059 274.889 106.307 276.425 105.667C279.593 104.355 282.985 103.699 286.601 103.699C288.425 103.667 290.169 103.827 291.833 104.179C293.529 104.531 295.161 105.027 296.729 105.667C299.833 106.979 302.521 108.755 304.793 110.995C307.001 113.171 308.761 115.779 310.073 118.819C311.161 121.347 311.769 123.955 311.897 126.643L311.945 127.267C311.977 127.619 311.993 127.955 311.993 128.275C311.993 128.595 311.993 128.931 311.993 129.283L311.945 130.147C311.913 131.587 311.737 132.963 311.417 134.275C311.097 135.587 310.665 136.867 310.121 138.115C308.873 141.027 307.113 143.619 304.841 145.891C302.601 148.067 299.945 149.811 296.873 151.123C293.833 152.403 290.441 153.043 286.697 153.043C282.953 153.043 279.561 152.403 276.521 151.123C273.449 149.843 270.777 148.067 268.505 145.795C266.297 143.619 264.537 141.011 263.225 137.971C261.945 134.963 261.305 131.763 261.305 128.371V128.275ZM325.404 108.403L333.276 134.227L341.676 108.835C342.124 107.491 342.924 106.403 344.076 105.571C345.228 104.739 346.524 104.323 347.964 104.323H348.06C349.5 104.323 350.796 104.739 351.948 105.571C353.1 106.403 353.9 107.491 354.348 108.835L362.7 134.227L370.62 108.499C370.972 107.283 371.644 106.307 372.636 105.571C373.66 104.835 374.796 104.467 376.044 104.467H376.188C377.148 104.467 378.028 104.691 378.828 105.139C379.66 105.555 380.316 106.115 380.796 106.819C381.308 107.523 381.644 108.339 381.804 109.267C381.964 110.163 381.884 111.075 381.564 112.003L369.468 147.715C369.02 149.091 368.204 150.211 367.02 151.075C365.836 151.907 364.508 152.323 363.036 152.323H362.94C361.5 152.323 360.188 151.907 359.004 151.075C357.82 150.243 357.004 149.139 356.556 147.763L348.108 123.427L339.756 147.715C339.308 149.123 338.492 150.243 337.308 151.075C336.124 151.907 334.796 152.323 333.324 152.323H333.228C331.756 152.323 330.428 151.907 329.244 151.075C328.06 150.211 327.244 149.091 326.796 147.715L314.652 111.859C314.364 110.963 314.284 110.067 314.412 109.171C314.572 108.275 314.908 107.491 315.42 106.819C315.932 106.115 316.572 105.555 317.34 105.139C318.14 104.691 319.02 104.467 319.98 104.467H320.076C321.292 104.467 322.396 104.835 323.388 105.571C324.38 106.275 325.052 107.219 325.404 108.403Z" fill="black"/>
</svg>
