<svg width="416" height="223" viewBox="0 0 416 223" fill="none" xmlns="http://www.w3.org/2000/svg">
<path d="M36 198.223C36 197.932 36.057 197.659 36.171 197.406C36.285 197.153 36.437 196.931 36.627 196.741C36.817 196.551 37.0387 196.399 37.292 196.285C37.5453 196.171 37.8177 196.114 38.109 196.114H49.718C50.0093 196.114 50.2817 196.171 50.535 196.285C50.7883 196.399 51.01 196.551 51.2 196.741C51.39 196.931 51.542 197.153 51.656 197.406C51.77 197.659 51.827 197.932 51.827 198.223V198.28C51.827 198.571 51.77 198.844 51.656 199.097C51.542 199.35 51.39 199.572 51.2 199.762C51.01 199.952 50.7883 200.104 50.535 200.218C50.2817 200.332 50.0093 200.389 49.718 200.389H46.222V212.834C46.222 213.151 46.1587 213.448 46.032 213.727C45.918 213.993 45.7533 214.234 45.538 214.449C45.3353 214.652 45.0947 214.816 44.816 214.943C44.55 215.057 44.2587 215.114 43.942 215.114H43.904C43.5873 215.114 43.2897 215.057 43.011 214.943C42.745 214.816 42.5043 214.652 42.289 214.449C42.0863 214.234 41.9217 213.993 41.795 213.727C41.681 213.448 41.624 213.151 41.624 212.834V200.389H38.109C37.8177 200.389 37.5453 200.332 37.292 200.218C37.0387 200.104 36.817 199.952 36.627 199.762C36.437 199.572 36.285 199.35 36.171 199.097C36.057 198.844 36 198.571 36 198.28V198.223ZM65.9197 198.394C65.9197 198.077 65.9767 197.786 66.0907 197.52C66.2173 197.241 66.382 197.001 66.5847 196.798C66.8 196.583 67.0407 196.418 67.3067 196.304C67.5853 196.177 67.883 196.114 68.1997 196.114H68.2567C68.5733 196.114 68.8647 196.177 69.1307 196.304C69.4093 196.418 69.65 196.583 69.8527 196.798C70.0553 197.001 70.2137 197.241 70.3277 197.52C70.4543 197.786 70.5177 198.077 70.5177 198.394V212.834C70.5177 213.151 70.4543 213.448 70.3277 213.727C70.2137 213.993 70.0553 214.234 69.8527 214.449C69.65 214.652 69.4093 214.816 69.1307 214.943C68.8647 215.057 68.5733 215.114 68.2567 215.114H68.1997C67.883 215.114 67.5853 215.057 67.3067 214.943C67.0407 214.816 66.8 214.652 66.5847 214.449C66.382 214.234 66.2173 213.993 66.0907 213.727C65.9767 213.448 65.9197 213.151 65.9197 212.834V207.704H58.9657V212.834C58.9657 213.151 58.9023 213.448 58.7757 213.727C58.6617 214.006 58.5033 214.246 58.3007 214.449C58.098 214.652 57.8573 214.816 57.5787 214.943C57.3127 215.057 57.0213 215.114 56.7047 215.114H56.6477C56.331 215.114 56.0333 215.057 55.7547 214.943C55.4887 214.816 55.248 214.652 55.0327 214.449C54.83 214.246 54.6653 214.006 54.5387 213.727C54.4247 213.448 54.3677 213.151 54.3677 212.834V198.394C54.3677 198.077 54.4247 197.786 54.5387 197.52C54.6653 197.241 54.83 197.001 55.0327 196.798C55.248 196.583 55.4887 196.418 55.7547 196.304C56.0333 196.177 56.331 196.114 56.6477 196.114H56.6857C57.0023 196.114 57.3 196.177 57.5787 196.304C57.8573 196.418 58.098 196.583 58.3007 196.798C58.5033 197.001 58.6617 197.241 58.7757 197.52C58.9023 197.786 58.9657 198.077 58.9657 198.394V203.429H65.9197V198.394ZM73.0693 198.394C73.0693 198.077 73.1263 197.786 73.2403 197.52C73.367 197.241 73.5316 197.001 73.7343 196.798C73.9496 196.583 74.1903 196.418 74.4563 196.304C74.735 196.177 75.0326 196.114 75.3493 196.114H85.5333C85.8246 196.114 86.097 196.171 86.3503 196.285C86.6036 196.399 86.8253 196.551 87.0153 196.741C87.2053 196.931 87.3573 197.153 87.4713 197.406C87.5853 197.659 87.6423 197.932 87.6423 198.223V198.28C87.6423 198.571 87.5853 198.844 87.4713 199.097C87.3573 199.35 87.2053 199.572 87.0153 199.762C86.8253 199.952 86.6036 200.104 86.3503 200.218C86.097 200.332 85.8246 200.389 85.5333 200.389H77.6103V203.467H84.2603C84.539 203.467 84.805 203.524 85.0583 203.638C85.3116 203.739 85.527 203.885 85.7043 204.075C85.8943 204.252 86.04 204.468 86.1413 204.721C86.2553 204.974 86.3123 205.24 86.3123 205.519V205.576C86.3123 205.855 86.2553 206.121 86.1413 206.374C86.04 206.615 85.8943 206.83 85.7043 207.02C85.527 207.21 85.3116 207.362 85.0583 207.476C84.805 207.577 84.539 207.628 84.2603 207.628H77.6103V210.839H85.5333C85.8246 210.839 86.097 210.896 86.3503 211.01C86.6036 211.124 86.8253 211.276 87.0153 211.466C87.2053 211.656 87.3573 211.878 87.4713 212.131C87.5853 212.384 87.6423 212.657 87.6423 212.948V213.005C87.6423 213.296 87.5853 213.569 87.4713 213.822C87.3573 214.075 87.2053 214.297 87.0153 214.487C86.8253 214.677 86.6036 214.829 86.3503 214.943C86.097 215.057 85.8246 215.114 85.5333 215.114H75.3493C75.0326 215.114 74.735 215.057 74.4563 214.943C74.1903 214.816 73.9496 214.652 73.7343 214.449C73.5316 214.234 73.367 213.993 73.2403 213.727C73.1263 213.448 73.0693 213.151 73.0693 212.834V198.394ZM120.457 210.25C120.685 210.478 120.85 210.731 120.951 211.01C121.052 211.289 121.09 211.574 121.065 211.865C121.052 212.156 120.976 212.435 120.837 212.701C120.698 212.967 120.508 213.201 120.267 213.404L119.64 213.86C119.475 213.961 119.311 214.056 119.146 214.145C118.981 214.234 118.81 214.322 118.633 214.411C118.038 214.702 117.36 214.924 116.6 215.076C115.878 215.228 115.061 215.304 114.149 215.304C112.756 215.304 111.483 215.057 110.33 214.563C109.152 214.056 108.132 213.372 107.271 212.511C106.41 211.624 105.738 210.598 105.257 209.433C104.776 208.242 104.535 206.988 104.535 205.671V205.614C104.535 204.271 104.776 203.017 105.257 201.852C105.485 201.282 105.764 200.744 106.093 200.237C106.435 199.718 106.828 199.23 107.271 198.774C108.107 197.9 109.133 197.203 110.349 196.684C111.565 196.177 112.882 195.924 114.301 195.924C114.744 195.924 115.162 195.943 115.555 195.981C115.948 196.006 116.328 196.057 116.695 196.133C117.05 196.196 117.392 196.279 117.721 196.38C118.05 196.481 118.361 196.595 118.652 196.722C118.791 196.785 118.924 196.849 119.051 196.912C119.178 196.963 119.304 197.02 119.431 197.083C119.52 197.134 119.602 197.184 119.678 197.235C119.767 197.286 119.855 197.343 119.944 197.406C120.223 197.583 120.444 197.811 120.609 198.09C120.774 198.356 120.875 198.641 120.913 198.945C120.951 199.249 120.926 199.553 120.837 199.857C120.748 200.161 120.596 200.44 120.381 200.693L120.362 200.731C120.185 200.946 119.976 201.117 119.735 201.244C119.494 201.358 119.247 201.434 118.994 201.472C118.741 201.51 118.481 201.504 118.215 201.453C117.962 201.402 117.721 201.301 117.493 201.149C117.354 201.06 117.214 200.978 117.075 200.902C116.936 200.826 116.796 200.75 116.657 200.674C116.302 200.497 115.929 200.364 115.536 200.275C115.143 200.186 114.725 200.142 114.282 200.142C113.547 200.142 112.876 200.281 112.268 200.56C111.647 200.851 111.115 201.238 110.672 201.719C110.216 202.238 109.868 202.815 109.627 203.448C109.374 204.145 109.247 204.848 109.247 205.557V205.614C109.247 206.336 109.374 207.045 109.627 207.742C109.754 208.071 109.899 208.382 110.064 208.673C110.229 208.964 110.425 209.237 110.653 209.49C111.096 209.971 111.628 210.358 112.249 210.649C112.895 210.94 113.573 211.086 114.282 211.086C115.283 211.086 116.125 210.902 116.809 210.535C117.113 210.37 117.404 210.187 117.683 209.984C117.898 209.832 118.126 209.724 118.367 209.661C118.608 209.598 118.848 209.579 119.089 209.604C119.342 209.617 119.583 209.674 119.811 209.775C120.039 209.876 120.248 210.022 120.438 210.212L120.457 210.25ZM136.983 196.114C137.287 196.114 137.572 196.177 137.838 196.304C138.117 196.418 138.357 196.576 138.56 196.779C138.763 196.982 138.921 197.222 139.035 197.501C139.162 197.767 139.225 198.052 139.225 198.356V206.64C139.225 207.983 139.041 209.18 138.674 210.231C138.307 211.282 137.768 212.169 137.059 212.891C136.362 213.613 135.501 214.164 134.475 214.544C133.462 214.924 132.303 215.114 130.998 215.114C129.706 215.114 128.553 214.93 127.54 214.563C126.527 214.183 125.672 213.638 124.975 212.929C124.278 212.22 123.746 211.352 123.379 210.326C123.024 209.287 122.847 208.103 122.847 206.773V198.356C122.847 198.052 122.904 197.767 123.018 197.501C123.145 197.222 123.309 196.982 123.512 196.779C123.715 196.576 123.949 196.418 124.215 196.304C124.494 196.177 124.785 196.114 125.089 196.114H125.127C125.431 196.114 125.716 196.177 125.982 196.304C126.261 196.418 126.501 196.576 126.704 196.779C126.907 196.982 127.065 197.222 127.179 197.501C127.306 197.767 127.369 198.052 127.369 198.356V206.659C127.369 208.065 127.673 209.123 128.281 209.832C128.902 210.541 129.807 210.896 130.998 210.896C132.214 210.896 133.132 210.548 133.753 209.851C134.386 209.154 134.703 208.135 134.703 206.792V198.356C134.703 198.052 134.76 197.767 134.874 197.501C135.001 197.222 135.165 196.982 135.368 196.779C135.571 196.576 135.805 196.418 136.071 196.304C136.35 196.177 136.641 196.114 136.945 196.114H136.983ZM156.154 211.675C156.408 212.042 156.534 212.429 156.534 212.834C156.547 213.239 156.465 213.613 156.287 213.955C156.11 214.284 155.85 214.563 155.508 214.791C155.179 215.006 154.793 215.114 154.349 215.114H154.292C153.925 215.114 153.577 215.032 153.247 214.867C152.931 214.69 152.671 214.449 152.468 214.145L149.143 209.205H146.369V212.834C146.369 213.151 146.306 213.448 146.179 213.727C146.065 213.993 145.901 214.234 145.685 214.449C145.483 214.652 145.242 214.816 144.963 214.943C144.697 215.057 144.406 215.114 144.089 215.114H144.051C143.735 215.114 143.437 215.057 143.158 214.943C142.892 214.816 142.652 214.652 142.436 214.449C142.234 214.234 142.069 213.993 141.942 213.727C141.828 213.448 141.771 213.151 141.771 212.834V198.394C141.771 198.077 141.828 197.786 141.942 197.52C142.069 197.241 142.234 197.001 142.436 196.798C142.652 196.583 142.892 196.418 143.158 196.304C143.437 196.177 143.735 196.114 144.051 196.114H150.473C151.664 196.114 152.728 196.279 153.665 196.608C154.615 196.937 155.413 197.425 156.059 198.071C157.161 199.173 157.712 200.642 157.712 202.479V202.517C157.712 203.898 157.396 205.101 156.762 206.127C156.142 207.153 155.204 207.932 153.95 208.464L156.154 211.675ZM153.057 202.688C153.057 202.169 152.956 201.757 152.753 201.453C152.551 201.136 152.297 200.896 151.993 200.731C151.702 200.554 151.385 200.44 151.043 200.389C150.714 200.338 150.41 200.313 150.131 200.313H146.369V205.082H150.207C151.119 205.082 151.822 204.879 152.316 204.474C152.81 204.056 153.057 203.48 153.057 202.745V202.688ZM160.25 198.375C160.25 198.058 160.307 197.767 160.421 197.501C160.548 197.222 160.713 196.982 160.915 196.779C161.131 196.576 161.371 196.418 161.637 196.304C161.916 196.177 162.214 196.114 162.53 196.114H162.568C162.885 196.114 163.176 196.177 163.442 196.304C163.721 196.418 163.962 196.576 164.164 196.779C164.38 196.982 164.544 197.222 164.658 197.501C164.785 197.767 164.848 198.058 164.848 198.375V212.834C164.848 213.151 164.785 213.448 164.658 213.727C164.544 213.993 164.38 214.234 164.164 214.449C163.962 214.652 163.721 214.816 163.442 214.943C163.176 215.057 162.885 215.114 162.568 215.114H162.53C162.214 215.114 161.916 215.057 161.637 214.943C161.371 214.816 161.131 214.652 160.915 214.449C160.713 214.234 160.548 213.993 160.421 213.727C160.307 213.448 160.25 213.151 160.25 212.834V198.375ZM171.914 206.336C171.952 206.792 172.079 207.254 172.294 207.723C172.434 208.052 172.598 208.356 172.788 208.635C172.978 208.914 173.194 209.18 173.434 209.433C173.89 209.914 174.473 210.301 175.182 210.592C175.828 210.871 176.576 211.01 177.424 211.01C178.26 211.01 178.995 210.871 179.628 210.592C180.312 210.313 180.895 209.933 181.376 209.452C181.87 208.983 182.257 208.42 182.535 207.761C182.801 207.115 182.934 206.418 182.934 205.671V205.633C182.934 204.911 182.795 204.221 182.516 203.562C182.377 203.233 182.212 202.929 182.022 202.65C181.845 202.371 181.63 202.105 181.376 201.852C180.882 201.358 180.293 200.972 179.609 200.693C178.913 200.402 178.172 200.256 177.386 200.256C176.626 200.256 175.885 200.402 175.163 200.693C174.492 200.984 173.909 201.364 173.415 201.833C172.959 202.289 172.579 202.853 172.275 203.524C172.098 203.942 171.978 204.417 171.914 204.949L171.895 205.158C171.857 205.449 171.857 205.741 171.895 206.032L171.914 206.336ZM167.392 205.595C167.392 204.24 167.639 202.973 168.133 201.795C168.627 200.642 169.324 199.616 170.223 198.717C170.667 198.274 171.148 197.881 171.667 197.539C172.199 197.197 172.769 196.899 173.377 196.646C174.631 196.127 175.974 195.867 177.405 195.867C178.824 195.867 180.16 196.127 181.414 196.646C182.643 197.165 183.707 197.868 184.606 198.755C185.48 199.616 186.177 200.649 186.696 201.852C187.127 202.853 187.368 203.885 187.418 204.949L187.437 205.196C187.45 205.335 187.456 205.468 187.456 205.595C187.456 205.722 187.456 205.855 187.456 205.994L187.437 206.336C187.425 206.906 187.355 207.451 187.228 207.97C187.102 208.489 186.931 208.996 186.715 209.49C186.221 210.643 185.525 211.669 184.625 212.568C183.739 213.429 182.687 214.12 181.471 214.639C180.268 215.146 178.925 215.399 177.443 215.399C175.961 215.399 174.619 215.146 173.415 214.639C172.199 214.132 171.142 213.429 170.242 212.53C169.368 211.669 168.672 210.636 168.152 209.433C167.646 208.242 167.392 206.976 167.392 205.633V205.595ZM204.145 196.114C204.449 196.114 204.734 196.177 205 196.304C205.279 196.418 205.519 196.576 205.722 196.779C205.925 196.982 206.083 197.222 206.197 197.501C206.324 197.767 206.387 198.052 206.387 198.356V206.64C206.387 207.983 206.203 209.18 205.836 210.231C205.469 211.282 204.93 212.169 204.221 212.891C203.524 213.613 202.663 214.164 201.637 214.544C200.624 214.924 199.465 215.114 198.16 215.114C196.868 215.114 195.715 214.93 194.702 214.563C193.689 214.183 192.834 213.638 192.137 212.929C191.44 212.22 190.908 211.352 190.541 210.326C190.186 209.287 190.009 208.103 190.009 206.773V198.356C190.009 198.052 190.066 197.767 190.18 197.501C190.307 197.222 190.471 196.982 190.674 196.779C190.877 196.576 191.111 196.418 191.377 196.304C191.656 196.177 191.947 196.114 192.251 196.114H192.289C192.593 196.114 192.878 196.177 193.144 196.304C193.423 196.418 193.663 196.576 193.866 196.779C194.069 196.982 194.227 197.222 194.341 197.501C194.468 197.767 194.531 198.052 194.531 198.356V206.659C194.531 208.065 194.835 209.123 195.443 209.832C196.064 210.541 196.969 210.896 198.16 210.896C199.376 210.896 200.294 210.548 200.915 209.851C201.548 209.154 201.865 208.135 201.865 206.792V198.356C201.865 198.052 201.922 197.767 202.036 197.501C202.163 197.222 202.327 196.982 202.53 196.779C202.733 196.576 202.967 196.418 203.233 196.304C203.512 196.177 203.803 196.114 204.107 196.114H204.145ZM217.065 203.6C217.952 203.828 218.756 204.088 219.478 204.379C220.2 204.67 220.815 205.038 221.321 205.481C221.841 205.912 222.24 206.437 222.518 207.058C222.81 207.666 222.955 208.394 222.955 209.243V209.281C222.955 210.18 222.791 210.991 222.461 211.713C222.145 212.422 221.689 213.03 221.093 213.537C220.498 214.044 219.776 214.436 218.927 214.715C218.079 214.981 217.135 215.114 216.096 215.114C215.197 215.114 214.323 215.019 213.474 214.829C212.626 214.639 211.809 214.354 211.023 213.974C210.681 213.822 210.358 213.651 210.054 213.461C209.776 213.296 209.554 213.087 209.389 212.834C209.225 212.568 209.117 212.289 209.066 211.998C209.016 211.707 209.028 211.415 209.104 211.124C209.18 210.833 209.32 210.56 209.522 210.307L209.56 210.288C209.89 209.883 210.314 209.642 210.833 209.566C211.353 209.477 211.834 209.566 212.277 209.832C212.429 209.933 212.588 210.035 212.752 210.136C212.917 210.225 213.075 210.307 213.227 210.383C213.709 210.624 214.19 210.807 214.671 210.934C215.153 211.048 215.653 211.105 216.172 211.105C216.907 211.105 217.477 210.978 217.882 210.725C218.3 210.472 218.509 210.123 218.509 209.68V209.623C218.509 209.42 218.465 209.237 218.376 209.072C218.3 208.895 218.142 208.73 217.901 208.578C217.661 208.426 217.312 208.274 216.856 208.122C216.413 207.957 215.824 207.78 215.089 207.59C214.215 207.362 213.405 207.115 212.657 206.849C211.91 206.583 211.258 206.241 210.7 205.823C210.156 205.405 209.725 204.879 209.408 204.246C209.092 203.613 208.933 202.808 208.933 201.833V201.795C208.933 200.959 209.092 200.193 209.408 199.496C209.738 198.799 210.187 198.204 210.757 197.71C211.34 197.203 212.03 196.811 212.828 196.532C213.639 196.253 214.526 196.114 215.488 196.114C216.869 196.114 218.148 196.31 219.326 196.703C219.567 196.779 219.789 196.861 219.991 196.95C220.207 197.039 220.409 197.134 220.599 197.235C220.878 197.387 221.106 197.583 221.283 197.824C221.473 198.065 221.6 198.331 221.663 198.622C221.727 198.901 221.733 199.192 221.682 199.496C221.632 199.787 221.518 200.066 221.34 200.332L221.302 200.37C220.998 200.813 220.587 201.105 220.067 201.244C219.561 201.371 219.067 201.307 218.585 201.054C218.205 200.851 217.806 200.668 217.388 200.503C217.046 200.376 216.717 200.281 216.4 200.218C216.084 200.155 215.761 200.123 215.431 200.123C214.811 200.123 214.31 200.243 213.93 200.484C213.563 200.712 213.379 201.029 213.379 201.434V201.472C213.379 201.7 213.417 201.903 213.493 202.08C213.582 202.245 213.753 202.409 214.006 202.574C214.272 202.726 214.646 202.884 215.127 203.049C215.609 203.214 216.255 203.397 217.065 203.6ZM247.121 203.6C248.008 203.828 248.812 204.088 249.534 204.379C250.256 204.67 250.87 205.038 251.377 205.481C251.896 205.912 252.295 206.437 252.574 207.058C252.865 207.666 253.011 208.394 253.011 209.243V209.281C253.011 210.18 252.846 210.991 252.517 211.713C252.2 212.422 251.744 213.03 251.149 213.537C250.554 214.044 249.832 214.436 248.983 214.715C248.134 214.981 247.191 215.114 246.152 215.114C245.253 215.114 244.379 215.019 243.53 214.829C242.681 214.639 241.864 214.354 241.079 213.974C240.737 213.822 240.414 213.651 240.11 213.461C239.831 213.296 239.61 213.087 239.445 212.834C239.28 212.568 239.173 212.289 239.122 211.998C239.071 211.707 239.084 211.415 239.16 211.124C239.236 210.833 239.375 210.56 239.578 210.307L239.616 210.288C239.945 209.883 240.37 209.642 240.889 209.566C241.408 209.477 241.89 209.566 242.333 209.832C242.485 209.933 242.643 210.035 242.808 210.136C242.973 210.225 243.131 210.307 243.283 210.383C243.764 210.624 244.246 210.807 244.727 210.934C245.208 211.048 245.709 211.105 246.228 211.105C246.963 211.105 247.533 210.978 247.938 210.725C248.356 210.472 248.565 210.123 248.565 209.68V209.623C248.565 209.42 248.521 209.237 248.432 209.072C248.356 208.895 248.198 208.73 247.957 208.578C247.716 208.426 247.368 208.274 246.912 208.122C246.469 207.957 245.88 207.78 245.145 207.59C244.271 207.362 243.46 207.115 242.713 206.849C241.966 206.583 241.313 206.241 240.756 205.823C240.211 205.405 239.781 204.879 239.464 204.246C239.147 203.613 238.989 202.808 238.989 201.833V201.795C238.989 200.959 239.147 200.193 239.464 199.496C239.793 198.799 240.243 198.204 240.813 197.71C241.396 197.203 242.086 196.811 242.884 196.532C243.695 196.253 244.581 196.114 245.544 196.114C246.925 196.114 248.204 196.31 249.382 196.703C249.623 196.779 249.844 196.861 250.047 196.95C250.262 197.039 250.465 197.134 250.655 197.235C250.934 197.387 251.162 197.583 251.339 197.824C251.529 198.065 251.656 198.331 251.719 198.622C251.782 198.901 251.789 199.192 251.738 199.496C251.687 199.787 251.573 200.066 251.396 200.332L251.358 200.37C251.054 200.813 250.642 201.105 250.123 201.244C249.616 201.371 249.122 201.307 248.641 201.054C248.261 200.851 247.862 200.668 247.444 200.503C247.102 200.376 246.773 200.281 246.456 200.218C246.139 200.155 245.816 200.123 245.487 200.123C244.866 200.123 244.366 200.243 243.986 200.484C243.619 200.712 243.435 201.029 243.435 201.434V201.472C243.435 201.7 243.473 201.903 243.549 202.08C243.638 202.245 243.809 202.409 244.062 202.574C244.328 202.726 244.702 202.884 245.183 203.049C245.664 203.214 246.31 203.397 247.121 203.6ZM255.557 198.394C255.557 198.077 255.614 197.786 255.728 197.52C255.855 197.241 256.019 197.001 256.222 196.798C256.437 196.583 256.678 196.418 256.944 196.304C257.223 196.177 257.52 196.114 257.837 196.114H268.021C268.312 196.114 268.585 196.171 268.838 196.285C269.091 196.399 269.313 196.551 269.503 196.741C269.693 196.931 269.845 197.153 269.959 197.406C270.073 197.659 270.13 197.932 270.13 198.223V198.28C270.13 198.571 270.073 198.844 269.959 199.097C269.845 199.35 269.693 199.572 269.503 199.762C269.313 199.952 269.091 200.104 268.838 200.218C268.585 200.332 268.312 200.389 268.021 200.389H260.098V203.467H266.748C267.027 203.467 267.293 203.524 267.546 203.638C267.799 203.739 268.015 203.885 268.192 204.075C268.382 204.252 268.528 204.468 268.629 204.721C268.743 204.974 268.8 205.24 268.8 205.519V205.576C268.8 205.855 268.743 206.121 268.629 206.374C268.528 206.615 268.382 206.83 268.192 207.02C268.015 207.21 267.799 207.362 267.546 207.476C267.293 207.577 267.027 207.628 266.748 207.628H260.098V210.839H268.021C268.312 210.839 268.585 210.896 268.838 211.01C269.091 211.124 269.313 211.276 269.503 211.466C269.693 211.656 269.845 211.878 269.959 212.131C270.073 212.384 270.13 212.657 270.13 212.948V213.005C270.13 213.296 270.073 213.569 269.959 213.822C269.845 214.075 269.693 214.297 269.503 214.487C269.313 214.677 269.091 214.829 268.838 214.943C268.585 215.057 268.312 215.114 268.021 215.114H257.837C257.52 215.114 257.223 215.057 256.944 214.943C256.678 214.816 256.437 214.652 256.222 214.449C256.019 214.234 255.855 213.993 255.728 213.727C255.614 213.448 255.557 213.151 255.557 212.834V198.394ZM290.56 212.093C290.712 212.46 290.763 212.821 290.712 213.176C290.674 213.531 290.56 213.854 290.37 214.145C290.18 214.436 289.927 214.671 289.61 214.848C289.306 215.025 288.958 215.114 288.565 215.114H288.508C288.065 215.114 287.66 214.994 287.292 214.753C286.938 214.5 286.672 214.17 286.494 213.765L281.668 201.947L276.823 213.784C276.659 214.189 276.399 214.512 276.044 214.753C275.69 214.994 275.291 215.114 274.847 215.114H274.809C274.429 215.114 274.087 215.025 273.783 214.848C273.479 214.671 273.232 214.443 273.042 214.164C272.852 213.873 272.732 213.556 272.681 213.214C272.643 212.859 272.7 212.505 272.852 212.15C273.916 209.667 274.828 207.533 275.588 205.747C276.348 203.948 276.975 202.473 277.469 201.32C278.052 199.977 278.533 198.856 278.913 197.957C279.154 197.387 279.528 196.937 280.034 196.608C280.541 196.279 281.098 196.114 281.706 196.114H281.744C282.352 196.114 282.91 196.279 283.416 196.608C283.923 196.937 284.297 197.387 284.537 197.957L290.56 212.093ZM278.476 210.174C278.958 210.199 279.439 210.142 279.92 210.003C280.414 209.851 280.883 209.636 281.326 209.357C281.782 209.078 282.194 208.736 282.561 208.331C282.941 207.926 283.264 207.463 283.53 206.944C282.821 207.565 282.169 207.919 281.573 208.008C280.991 208.097 280.459 208.052 279.977 207.875C279.838 207.812 279.692 207.818 279.54 207.894C279.401 207.957 279.3 208.065 279.236 208.217L278.476 210.174ZM307.659 211.675C307.912 212.042 308.039 212.429 308.039 212.834C308.051 213.239 307.969 213.613 307.792 213.955C307.614 214.284 307.355 214.563 307.013 214.791C306.683 215.006 306.297 215.114 305.854 215.114H305.797C305.429 215.114 305.081 215.032 304.752 214.867C304.435 214.69 304.175 214.449 303.973 214.145L300.648 209.205H297.874V212.834C297.874 213.151 297.81 213.448 297.684 213.727C297.57 213.993 297.405 214.234 297.19 214.449C296.987 214.652 296.746 214.816 296.468 214.943C296.202 215.057 295.91 215.114 295.594 215.114H295.556C295.239 215.114 294.941 215.057 294.663 214.943C294.397 214.816 294.156 214.652 293.941 214.449C293.738 214.234 293.573 213.993 293.447 213.727C293.333 213.448 293.276 213.151 293.276 212.834V198.394C293.276 198.077 293.333 197.786 293.447 197.52C293.573 197.241 293.738 197.001 293.941 196.798C294.156 196.583 294.397 196.418 294.663 196.304C294.941 196.177 295.239 196.114 295.556 196.114H301.978C303.168 196.114 304.232 196.279 305.17 196.608C306.12 196.937 306.918 197.425 307.564 198.071C308.666 199.173 309.217 200.642 309.217 202.479V202.517C309.217 203.898 308.9 205.101 308.267 206.127C307.646 207.153 306.709 207.932 305.455 208.464L307.659 211.675ZM304.562 202.688C304.562 202.169 304.46 201.757 304.258 201.453C304.055 201.136 303.802 200.896 303.498 200.731C303.206 200.554 302.89 200.44 302.548 200.389C302.218 200.338 301.914 200.313 301.636 200.313H297.874V205.082H301.712C302.624 205.082 303.327 204.879 303.821 204.474C304.315 204.056 304.562 203.48 304.562 202.745V202.688ZM327.491 210.25C327.719 210.478 327.884 210.731 327.985 211.01C328.086 211.289 328.124 211.574 328.099 211.865C328.086 212.156 328.01 212.435 327.871 212.701C327.732 212.967 327.542 213.201 327.301 213.404L326.674 213.86C326.509 213.961 326.345 214.056 326.18 214.145C326.015 214.234 325.844 214.322 325.667 214.411C325.072 214.702 324.394 214.924 323.634 215.076C322.912 215.228 322.095 215.304 321.183 215.304C319.79 215.304 318.517 215.057 317.364 214.563C316.186 214.056 315.166 213.372 314.305 212.511C313.444 211.624 312.772 210.598 312.291 209.433C311.81 208.242 311.569 206.988 311.569 205.671V205.614C311.569 204.271 311.81 203.017 312.291 201.852C312.519 201.282 312.798 200.744 313.127 200.237C313.469 199.718 313.862 199.23 314.305 198.774C315.141 197.9 316.167 197.203 317.383 196.684C318.599 196.177 319.916 195.924 321.335 195.924C321.778 195.924 322.196 195.943 322.589 195.981C322.982 196.006 323.362 196.057 323.729 196.133C324.084 196.196 324.426 196.279 324.755 196.38C325.084 196.481 325.395 196.595 325.686 196.722C325.825 196.785 325.958 196.849 326.085 196.912C326.212 196.963 326.338 197.02 326.465 197.083C326.554 197.134 326.636 197.184 326.712 197.235C326.801 197.286 326.889 197.343 326.978 197.406C327.257 197.583 327.478 197.811 327.643 198.09C327.808 198.356 327.909 198.641 327.947 198.945C327.985 199.249 327.96 199.553 327.871 199.857C327.782 200.161 327.63 200.44 327.415 200.693L327.396 200.731C327.219 200.946 327.01 201.117 326.769 201.244C326.528 201.358 326.281 201.434 326.028 201.472C325.775 201.51 325.515 201.504 325.249 201.453C324.996 201.402 324.755 201.301 324.527 201.149C324.388 201.06 324.248 200.978 324.109 200.902C323.97 200.826 323.83 200.75 323.691 200.674C323.336 200.497 322.963 200.364 322.57 200.275C322.177 200.186 321.759 200.142 321.316 200.142C320.581 200.142 319.91 200.281 319.302 200.56C318.681 200.851 318.149 201.238 317.706 201.719C317.25 202.238 316.902 202.815 316.661 203.448C316.408 204.145 316.281 204.848 316.281 205.557V205.614C316.281 206.336 316.408 207.045 316.661 207.742C316.788 208.071 316.933 208.382 317.098 208.673C317.263 208.964 317.459 209.237 317.687 209.49C318.13 209.971 318.662 210.358 319.283 210.649C319.929 210.94 320.607 211.086 321.316 211.086C322.317 211.086 323.159 210.902 323.843 210.535C324.147 210.37 324.438 210.187 324.717 209.984C324.932 209.832 325.16 209.724 325.401 209.661C325.642 209.598 325.882 209.579 326.123 209.604C326.376 209.617 326.617 209.674 326.845 209.775C327.073 209.876 327.282 210.022 327.472 210.212L327.491 210.25ZM342.194 198.394C342.194 198.077 342.251 197.786 342.365 197.52C342.491 197.241 342.656 197.001 342.859 196.798C343.074 196.583 343.315 196.418 343.581 196.304C343.859 196.177 344.157 196.114 344.474 196.114H344.531C344.847 196.114 345.139 196.177 345.405 196.304C345.683 196.418 345.924 196.583 346.127 196.798C346.329 197.001 346.488 197.241 346.602 197.52C346.728 197.786 346.792 198.077 346.792 198.394V212.834C346.792 213.151 346.728 213.448 346.602 213.727C346.488 213.993 346.329 214.234 346.127 214.449C345.924 214.652 345.683 214.816 345.405 214.943C345.139 215.057 344.847 215.114 344.531 215.114H344.474C344.157 215.114 343.859 215.057 343.581 214.943C343.315 214.816 343.074 214.652 342.859 214.449C342.656 214.234 342.491 213.993 342.365 213.727C342.251 213.448 342.194 213.151 342.194 212.834V207.704H335.24V212.834C335.24 213.151 335.176 213.448 335.05 213.727C334.936 214.006 334.777 214.246 334.575 214.449C334.372 214.652 334.131 214.816 333.853 214.943C333.587 215.057 333.295 215.114 332.979 215.114H332.922C332.605 215.114 332.307 215.057 332.029 214.943C331.763 214.816 331.522 214.652 331.307 214.449C331.104 214.246 330.939 214.006 330.813 213.727C330.699 213.448 330.642 213.151 330.642 212.834V198.394C330.642 198.077 330.699 197.786 330.813 197.52C330.939 197.241 331.104 197.001 331.307 196.798C331.522 196.583 331.763 196.418 332.029 196.304C332.307 196.177 332.605 196.114 332.922 196.114H332.96C333.276 196.114 333.574 196.177 333.853 196.304C334.131 196.418 334.372 196.583 334.575 196.798C334.777 197.001 334.936 197.241 335.05 197.52C335.176 197.786 335.24 198.077 335.24 198.394V203.429H342.194V198.394ZM349.343 198.394C349.343 198.077 349.4 197.786 349.514 197.52C349.641 197.241 349.806 197.001 350.008 196.798C350.224 196.583 350.464 196.418 350.73 196.304C351.009 196.177 351.307 196.114 351.623 196.114H361.807C362.099 196.114 362.371 196.171 362.624 196.285C362.878 196.399 363.099 196.551 363.289 196.741C363.479 196.931 363.631 197.153 363.745 197.406C363.859 197.659 363.916 197.932 363.916 198.223V198.28C363.916 198.571 363.859 198.844 363.745 199.097C363.631 199.35 363.479 199.572 363.289 199.762C363.099 199.952 362.878 200.104 362.624 200.218C362.371 200.332 362.099 200.389 361.807 200.389H353.884V203.467H360.534C360.813 203.467 361.079 203.524 361.332 203.638C361.586 203.739 361.801 203.885 361.978 204.075C362.168 204.252 362.314 204.468 362.415 204.721C362.529 204.974 362.586 205.24 362.586 205.519V205.576C362.586 205.855 362.529 206.121 362.415 206.374C362.314 206.615 362.168 206.83 361.978 207.02C361.801 207.21 361.586 207.362 361.332 207.476C361.079 207.577 360.813 207.628 360.534 207.628H353.884V210.839H361.807C362.099 210.839 362.371 210.896 362.624 211.01C362.878 211.124 363.099 211.276 363.289 211.466C363.479 211.656 363.631 211.878 363.745 212.131C363.859 212.384 363.916 212.657 363.916 212.948V213.005C363.916 213.296 363.859 213.569 363.745 213.822C363.631 214.075 363.479 214.297 363.289 214.487C363.099 214.677 362.878 214.829 362.624 214.943C362.371 215.057 362.099 215.114 361.807 215.114H351.623C351.307 215.114 351.009 215.057 350.73 214.943C350.464 214.816 350.224 214.652 350.008 214.449C349.806 214.234 349.641 213.993 349.514 213.727C349.4 213.448 349.343 213.151 349.343 212.834V198.394ZM380.851 211.675C381.104 212.042 381.231 212.429 381.231 212.834C381.244 213.239 381.161 213.613 380.984 213.955C380.807 214.284 380.547 214.563 380.205 214.791C379.876 215.006 379.489 215.114 379.046 215.114H378.989C378.622 215.114 378.273 215.032 377.944 214.867C377.627 214.69 377.368 214.449 377.165 214.145L373.84 209.205H371.066V212.834C371.066 213.151 371.003 213.448 370.876 213.727C370.762 213.993 370.597 214.234 370.382 214.449C370.179 214.652 369.939 214.816 369.66 214.943C369.394 215.057 369.103 215.114 368.786 215.114H368.748C368.431 215.114 368.134 215.057 367.855 214.943C367.589 214.816 367.348 214.652 367.133 214.449C366.93 214.234 366.766 213.993 366.639 213.727C366.525 213.448 366.468 213.151 366.468 212.834V198.394C366.468 198.077 366.525 197.786 366.639 197.52C366.766 197.241 366.93 197.001 367.133 196.798C367.348 196.583 367.589 196.418 367.855 196.304C368.134 196.177 368.431 196.114 368.748 196.114H375.17C376.361 196.114 377.425 196.279 378.362 196.608C379.312 196.937 380.11 197.425 380.756 198.071C381.858 199.173 382.409 200.642 382.409 202.479V202.517C382.409 203.898 382.092 205.101 381.459 206.127C380.838 207.153 379.901 207.932 378.647 208.464L380.851 211.675ZM377.754 202.688C377.754 202.169 377.653 201.757 377.45 201.453C377.247 201.136 376.994 200.896 376.69 200.731C376.399 200.554 376.082 200.44 375.74 200.389C375.411 200.338 375.107 200.313 374.828 200.313H371.066V205.082H374.904C375.816 205.082 376.519 204.879 377.013 204.474C377.507 204.056 377.754 203.48 377.754 202.745V202.688Z" fill="black"/>
<path d="M205.648 40.936C206.352 39.816 207.28 38.936 208.432 38.296C209.584 37.624 210.832 37.288 212.176 37.288H212.32C213.376 37.288 214.368 37.496 215.296 37.912C216.224 38.296 217.04 38.84 217.744 39.544C218.448 40.248 218.992 41.064 219.376 41.992C219.792 42.92 220 43.912 220 44.968V79.576C220 80.376 219.84 81.128 219.52 81.832C219.232 82.504 218.832 83.096 218.32 83.608C217.808 84.12 217.2 84.536 216.496 84.856C215.824 85.144 215.088 85.288 214.288 85.288H214.096C213.328 85.288 212.592 85.144 211.888 84.856C211.216 84.568 210.624 84.168 210.112 83.656C209.6 83.144 209.2 82.552 208.912 81.88C208.624 81.208 208.48 80.488 208.48 79.72V56.392L196.624 74.392C196.432 74.648 196.176 74.776 195.856 74.776C195.536 74.776 195.296 74.648 195.136 74.392L183.424 56.584V79.624C183.424 80.424 183.264 81.176 182.944 81.88C182.656 82.552 182.256 83.144 181.744 83.656C181.232 84.168 180.624 84.568 179.92 84.856C179.248 85.144 178.528 85.288 177.76 85.288H177.664C176.896 85.288 176.16 85.144 175.456 84.856C174.784 84.536 174.192 84.12 173.68 83.608C173.168 83.096 172.752 82.504 172.432 81.832C172.144 81.128 172 80.392 172 79.624V44.968C172 43.912 172.192 42.92 172.576 41.992C172.992 41.064 173.552 40.248 174.256 39.544C174.96 38.84 175.776 38.296 176.704 37.912C177.632 37.496 178.624 37.288 179.68 37.288H179.824C181.168 37.288 182.416 37.624 183.568 38.296C184.72 38.936 185.648 39.816 186.352 40.936L196 56.44L205.648 40.936ZM226.418 43C226.418 42.2 226.562 41.464 226.85 40.792C227.17 40.088 227.586 39.48 228.098 38.968C228.642 38.456 229.25 38.056 229.922 37.768C230.626 37.448 231.378 37.288 232.178 37.288H232.274C233.074 37.288 233.81 37.448 234.482 37.768C235.186 38.056 235.794 38.456 236.306 38.968C236.85 39.48 237.266 40.088 237.554 40.792C237.874 41.464 238.034 42.2 238.034 43V79.528C238.034 80.328 237.874 81.08 237.554 81.784C237.266 82.456 236.85 83.064 236.306 83.608C235.794 84.12 235.186 84.536 234.482 84.856C233.81 85.144 233.074 85.288 232.274 85.288H232.178C231.378 85.288 230.626 85.144 229.922 84.856C229.25 84.536 228.642 84.12 228.098 83.608C227.586 83.064 227.17 82.456 226.85 81.784C226.562 81.08 226.418 80.328 226.418 79.528V43ZM265.005 56.2C267.245 56.776 269.277 57.432 271.101 58.168C272.925 58.904 274.477 59.832 275.757 60.952C277.069 62.04 278.077 63.368 278.781 64.936C279.517 66.472 279.885 68.312 279.885 70.456V70.552C279.885 72.824 279.469 74.872 278.637 76.696C277.837 78.488 276.685 80.024 275.181 81.304C273.677 82.584 271.853 83.576 269.709 84.28C267.565 84.952 265.181 85.288 262.557 85.288C260.285 85.288 258.077 85.048 255.933 84.568C253.789 84.088 251.725 83.368 249.741 82.408C248.877 82.024 248.061 81.592 247.293 81.112C246.589 80.696 246.029 80.168 245.613 79.528C245.197 78.856 244.925 78.152 244.797 77.416C244.669 76.68 244.701 75.944 244.893 75.208C245.085 74.472 245.437 73.784 245.949 73.144L246.045 73.096C246.877 72.072 247.949 71.464 249.261 71.272C250.573 71.048 251.789 71.272 252.909 71.944C253.293 72.2 253.693 72.456 254.109 72.712C254.525 72.936 254.925 73.144 255.309 73.336C256.525 73.944 257.741 74.408 258.957 74.728C260.173 75.016 261.437 75.16 262.749 75.16C264.605 75.16 266.045 74.84 267.069 74.2C268.125 73.56 268.653 72.68 268.653 71.56V71.416C268.653 70.904 268.541 70.44 268.317 70.024C268.125 69.576 267.725 69.16 267.117 68.776C266.509 68.392 265.629 68.008 264.477 67.624C263.357 67.208 261.869 66.76 260.013 66.28C257.805 65.704 255.757 65.08 253.869 64.408C251.981 63.736 250.333 62.872 248.925 61.816C247.549 60.76 246.461 59.432 245.661 57.832C244.861 56.232 244.461 54.2 244.461 51.736V51.64C244.461 49.528 244.861 47.592 245.661 45.832C246.493 44.072 247.629 42.568 249.069 41.32C250.541 40.04 252.285 39.048 254.301 38.344C256.349 37.64 258.589 37.288 261.021 37.288C264.509 37.288 267.741 37.784 270.717 38.776C271.325 38.968 271.885 39.176 272.397 39.4C272.941 39.624 273.453 39.864 273.933 40.12C274.637 40.504 275.213 41 275.661 41.608C276.141 42.216 276.461 42.888 276.621 43.624C276.781 44.328 276.797 45.064 276.669 45.832C276.541 46.568 276.253 47.272 275.805 47.944L275.709 48.04C274.941 49.16 273.901 49.896 272.589 50.248C271.309 50.568 270.061 50.408 268.845 49.768C267.885 49.256 266.877 48.792 265.821 48.376C264.957 48.056 264.125 47.816 263.325 47.656C262.525 47.496 261.709 47.416 260.877 47.416C259.309 47.416 258.045 47.72 257.085 48.328C256.157 48.904 255.693 49.704 255.693 50.728V50.824C255.693 51.4 255.789 51.912 255.981 52.36C256.205 52.776 256.637 53.192 257.277 53.608C257.949 53.992 258.893 54.392 260.109 54.808C261.325 55.224 262.957 55.688 265.005 56.2ZM282.707 42.616C282.707 41.88 282.851 41.192 283.139 40.552C283.427 39.912 283.811 39.352 284.291 38.872C284.771 38.392 285.331 38.008 285.971 37.72C286.611 37.432 287.299 37.288 288.035 37.288H317.363C318.099 37.288 318.787 37.432 319.427 37.72C320.067 38.008 320.627 38.392 321.107 38.872C321.587 39.352 321.971 39.912 322.259 40.552C322.547 41.192 322.691 41.88 322.691 42.616V42.76C322.691 43.496 322.547 44.184 322.259 44.824C321.971 45.464 321.587 46.024 321.107 46.504C320.627 46.984 320.067 47.368 319.427 47.656C318.787 47.944 318.099 48.088 317.363 48.088H308.531V79.528C308.531 80.328 308.371 81.08 308.051 81.784C307.763 82.456 307.347 83.064 306.803 83.608C306.291 84.12 305.683 84.536 304.979 84.856C304.307 85.144 303.571 85.288 302.771 85.288H302.675C301.875 85.288 301.123 85.144 300.419 84.856C299.747 84.536 299.139 84.12 298.595 83.608C298.083 83.064 297.667 82.456 297.347 81.784C297.059 81.08 296.915 80.328 296.915 79.528V48.088H288.035C287.299 48.088 286.611 47.944 285.971 47.656C285.331 47.368 284.771 46.984 284.291 46.504C283.811 46.024 283.427 45.464 283.139 44.824C282.851 44.184 282.707 43.496 282.707 42.76V42.616ZM329.11 43.048C329.11 42.248 329.254 41.512 329.542 40.84C329.862 40.136 330.278 39.528 330.79 39.016C331.334 38.472 331.942 38.056 332.614 37.768C333.318 37.448 334.07 37.288 334.87 37.288H360.598C361.334 37.288 362.022 37.432 362.662 37.72C363.302 38.008 363.862 38.392 364.342 38.872C364.822 39.352 365.206 39.912 365.494 40.552C365.782 41.192 365.926 41.88 365.926 42.616V42.76C365.926 43.496 365.782 44.184 365.494 44.824C365.206 45.464 364.822 46.024 364.342 46.504C363.862 46.984 363.302 47.368 362.662 47.656C362.022 47.944 361.334 48.088 360.598 48.088H340.582V55.864H357.382C358.086 55.864 358.758 56.008 359.398 56.296C360.038 56.552 360.582 56.92 361.03 57.4C361.51 57.848 361.878 58.392 362.134 59.032C362.422 59.672 362.566 60.344 362.566 61.048V61.192C362.566 61.896 362.422 62.568 362.134 63.208C361.878 63.816 361.51 64.36 361.03 64.84C360.582 65.32 360.038 65.704 359.398 65.992C358.758 66.248 358.086 66.376 357.382 66.376H340.582V74.488H360.598C361.334 74.488 362.022 74.632 362.662 74.92C363.302 75.208 363.862 75.592 364.342 76.072C364.822 76.552 365.206 77.112 365.494 77.752C365.782 78.392 365.926 79.08 365.926 79.816V79.96C365.926 80.696 365.782 81.384 365.494 82.024C365.206 82.664 364.822 83.224 364.342 83.704C363.862 84.184 363.302 84.568 362.662 84.856C362.022 85.144 361.334 85.288 360.598 85.288H334.87C334.07 85.288 333.318 85.144 332.614 84.856C331.942 84.536 331.334 84.12 330.79 83.608C330.278 83.064 329.862 82.456 329.542 81.784C329.254 81.08 329.11 80.328 329.11 79.528V43.048ZM408.708 76.6C409.348 77.528 409.668 78.504 409.668 79.528C409.7 80.552 409.492 81.496 409.044 82.36C408.596 83.192 407.94 83.896 407.076 84.472C406.244 85.016 405.268 85.288 404.148 85.288H404.004C403.076 85.288 402.196 85.08 401.364 84.664C400.564 84.216 399.908 83.608 399.396 82.84L390.996 70.36H383.988V79.528C383.988 80.328 383.828 81.08 383.508 81.784C383.22 82.456 382.804 83.064 382.26 83.608C381.748 84.12 381.14 84.536 380.436 84.856C379.764 85.144 379.028 85.288 378.228 85.288H378.132C377.332 85.288 376.58 85.144 375.876 84.856C375.204 84.536 374.596 84.12 374.052 83.608C373.54 83.064 373.124 82.456 372.804 81.784C372.516 81.08 372.372 80.328 372.372 79.528V43.048C372.372 42.248 372.516 41.512 372.804 40.84C373.124 40.136 373.54 39.528 374.052 39.016C374.596 38.472 375.204 38.056 375.876 37.768C376.58 37.448 377.332 37.288 378.132 37.288H394.356C397.364 37.288 400.052 37.704 402.42 38.536C404.82 39.368 406.836 40.6 408.468 42.232C411.252 45.016 412.644 48.728 412.644 53.368V53.464C412.644 56.952 411.844 59.992 410.244 62.584C408.676 65.176 406.308 67.144 403.14 68.488L408.708 76.6ZM400.884 53.896C400.884 52.584 400.628 51.544 400.116 50.776C399.604 49.976 398.964 49.368 398.196 48.952C397.46 48.504 396.66 48.216 395.796 48.088C394.964 47.96 394.196 47.896 393.492 47.896H383.988V59.944H393.684C395.988 59.944 397.764 59.432 399.012 58.408C400.26 57.352 400.884 55.896 400.884 54.04V53.896Z" fill="#E8E8E8"/>
<path d="M205.648 108.971C206.352 107.851 207.28 106.971 208.432 106.331C209.584 105.659 210.832 105.323 212.176 105.323H212.32C213.376 105.323 214.368 105.531 215.296 105.947C216.224 106.331 217.04 106.875 217.744 107.579C218.448 108.283 218.992 109.099 219.376 110.027C219.792 110.955 220 111.947 220 113.003V147.611C220 148.411 219.84 149.163 219.52 149.867C219.232 150.539 218.832 151.131 218.32 151.643C217.808 152.155 217.2 152.571 216.496 152.891C215.824 153.179 215.088 153.323 214.288 153.323H214.096C213.328 153.323 212.592 153.179 211.888 152.891C211.216 152.603 210.624 152.203 210.112 151.691C209.6 151.179 209.2 150.587 208.912 149.915C208.624 149.243 208.48 148.523 208.48 147.755V124.427L196.624 142.427C196.432 142.683 196.176 142.811 195.856 142.811C195.536 142.811 195.296 142.683 195.136 142.427L183.424 124.619V147.659C183.424 148.459 183.264 149.211 182.944 149.915C182.656 150.587 182.256 151.179 181.744 151.691C181.232 152.203 180.624 152.603 179.92 152.891C179.248 153.179 178.528 153.323 177.76 153.323H177.664C176.896 153.323 176.16 153.179 175.456 152.891C174.784 152.571 174.192 152.155 173.68 151.643C173.168 151.131 172.752 150.539 172.432 149.867C172.144 149.163 172 148.427 172 147.659V113.003C172 111.947 172.192 110.955 172.576 110.027C172.992 109.099 173.552 108.283 174.256 107.579C174.96 106.875 175.776 106.331 176.704 105.947C177.632 105.531 178.624 105.323 179.68 105.323H179.824C181.168 105.323 182.416 105.659 183.568 106.331C184.72 106.971 185.648 107.851 186.352 108.971L196 124.475L205.648 108.971ZM226.418 111.083C226.418 110.283 226.562 109.547 226.85 108.875C227.17 108.171 227.586 107.563 228.098 107.051C228.642 106.507 229.25 106.091 229.922 105.803C230.626 105.483 231.378 105.323 232.178 105.323H257.906C258.642 105.323 259.33 105.467 259.97 105.755C260.61 106.043 261.17 106.427 261.65 106.907C262.13 107.387 262.514 107.947 262.802 108.587C263.09 109.227 263.234 109.915 263.234 110.651V110.795C263.234 111.531 263.09 112.219 262.802 112.859C262.514 113.499 262.13 114.059 261.65 114.539C261.17 115.019 260.61 115.403 259.97 115.691C259.33 115.979 258.642 116.123 257.906 116.123H237.89V123.899H254.69C255.394 123.899 256.066 124.043 256.706 124.331C257.346 124.587 257.89 124.955 258.338 125.435C258.818 125.883 259.186 126.427 259.442 127.067C259.73 127.707 259.874 128.379 259.874 129.083V129.227C259.874 129.931 259.73 130.603 259.442 131.243C259.186 131.851 258.818 132.395 258.338 132.875C257.89 133.355 257.346 133.739 256.706 134.027C256.066 134.283 255.394 134.411 254.69 134.411H237.89V142.523H257.906C258.642 142.523 259.33 142.667 259.97 142.955C260.61 143.243 261.17 143.627 261.65 144.107C262.13 144.587 262.514 145.147 262.802 145.787C263.09 146.427 263.234 147.115 263.234 147.851V147.995C263.234 148.731 263.09 149.419 262.802 150.059C262.514 150.699 262.13 151.259 261.65 151.739C261.17 152.219 260.61 152.603 259.97 152.891C259.33 153.179 258.642 153.323 257.906 153.323H232.178C231.378 153.323 230.626 153.179 229.922 152.891C229.25 152.571 228.642 152.155 228.098 151.643C227.586 151.099 227.17 150.491 226.85 149.819C226.562 149.115 226.418 148.363 226.418 147.563V111.083ZM277.729 131.147C277.825 132.299 278.145 133.467 278.689 134.651C279.041 135.483 279.457 136.251 279.937 136.955C280.417 137.659 280.961 138.331 281.569 138.971C282.721 140.187 284.193 141.163 285.985 141.899C287.617 142.603 289.505 142.955 291.649 142.955C293.761 142.955 295.617 142.603 297.217 141.899C298.945 141.195 300.417 140.235 301.633 139.019C302.881 137.835 303.857 136.411 304.561 134.747C305.233 133.115 305.569 131.355 305.569 129.467V129.371C305.569 127.547 305.217 125.803 304.513 124.139C304.161 123.307 303.745 122.539 303.265 121.835C302.817 121.131 302.273 120.459 301.633 119.819C300.385 118.571 298.897 117.595 297.169 116.891C295.409 116.155 293.537 115.787 291.553 115.787C289.633 115.787 287.761 116.155 285.937 116.891C284.241 117.627 282.769 118.587 281.521 119.771C280.369 120.923 279.409 122.347 278.641 124.043C278.193 125.099 277.889 126.299 277.729 127.643L277.681 128.171C277.585 128.907 277.585 129.643 277.681 130.379L277.729 131.147ZM266.305 129.275C266.305 125.851 266.929 122.651 268.177 119.675C269.425 116.763 271.185 114.171 273.457 111.899C274.577 110.779 275.793 109.787 277.105 108.923C278.449 108.059 279.889 107.307 281.425 106.667C284.593 105.355 287.985 104.699 291.601 104.699C293.425 104.667 295.169 104.827 296.833 105.179C298.529 105.531 300.161 106.027 301.729 106.667C304.833 107.979 307.521 109.755 309.793 111.995C312.001 114.171 313.761 116.779 315.073 119.819C316.161 122.347 316.769 124.955 316.897 127.643L316.945 128.267C316.977 128.619 316.993 128.955 316.993 129.275C316.993 129.595 316.993 129.931 316.993 130.283L316.945 131.147C316.913 132.587 316.737 133.963 316.417 135.275C316.097 136.587 315.665 137.867 315.121 139.115C313.873 142.027 312.113 144.619 309.841 146.891C307.601 149.067 304.945 150.811 301.873 152.123C298.833 153.403 295.441 154.043 291.697 154.043C287.953 154.043 284.561 153.403 281.521 152.123C278.449 150.843 275.777 149.067 273.505 146.795C271.297 144.619 269.537 142.011 268.225 138.971C266.945 135.963 266.305 132.763 266.305 129.371V129.275ZM330.404 109.403L338.276 135.227L346.676 109.835C347.124 108.491 347.924 107.403 349.076 106.571C350.228 105.739 351.524 105.323 352.964 105.323H353.06C354.5 105.323 355.796 105.739 356.948 106.571C358.1 107.403 358.9 108.491 359.348 109.835L367.7 135.227L375.62 109.499C375.972 108.283 376.644 107.307 377.636 106.571C378.66 105.835 379.796 105.467 381.044 105.467H381.188C382.148 105.467 383.028 105.691 383.828 106.139C384.66 106.555 385.316 107.115 385.796 107.819C386.308 108.523 386.644 109.339 386.804 110.267C386.964 111.163 386.884 112.075 386.564 113.003L374.468 148.715C374.02 150.091 373.204 151.211 372.02 152.075C370.836 152.907 369.508 153.323 368.036 153.323H367.94C366.5 153.323 365.188 152.907 364.004 152.075C362.82 151.243 362.004 150.139 361.556 148.763L353.108 124.427L344.756 148.715C344.308 150.123 343.492 151.243 342.308 152.075C341.124 152.907 339.796 153.323 338.324 153.323H338.228C336.756 153.323 335.428 152.907 334.244 152.075C333.06 151.211 332.244 150.091 331.796 148.715L319.652 112.859C319.364 111.963 319.284 111.067 319.412 110.171C319.572 109.275 319.908 108.491 320.42 107.819C320.932 107.115 321.572 106.555 322.34 106.139C323.14 105.691 324.02 105.467 324.98 105.467H325.076C326.292 105.467 327.396 105.835 328.388 106.571C329.38 107.275 330.052 108.219 330.404 109.403Z" fill="#E8E8E8"/>
<ellipse cx="74.0699" cy="95.5515" rx="71.6637" ry="57.3997" fill="white"/>
<path d="M26.0669 1.07281C22.5123 5.12628 15.6526 24.77 8.48109 51.4605C7.23387 55.8881 5.98666 60.877 5.67485 62.436C5.30068 64.0574 4.73944 66.1153 4.36527 67.0508C2.99333 70.6053 0 87.6922 0 91.8081C0 100.414 3.80402 112.886 8.60582 120.058C11.4121 124.298 15.0914 128.663 18.7083 132.093C24.1961 137.332 23.6972 137.394 28.1872 130.971C30.3698 127.853 33.176 123.862 34.4233 122.053C35.6705 120.245 37.3542 117.937 38.0402 116.94C38.7885 115.879 40.4099 113.634 41.6571 111.888C42.9044 110.142 45.5235 106.525 47.3944 103.906C50.5748 99.4161 57.4968 90.1243 60.6772 86.0085C66.851 77.9016 72.9624 71.1042 74.0225 71.1042C75.7062 71.1042 91.2965 90.1243 100.401 103.282C105.515 110.641 119.546 130.472 120.17 131.283C120.481 131.594 121.354 132.966 122.165 134.214C122.914 135.523 123.787 136.583 124.098 136.583C125.159 136.583 133.577 128.165 136.758 123.924C141.123 118.124 143.804 112.761 146.049 105.465C147.546 100.352 147.796 98.543 147.796 91.7457C147.796 83.8259 147.733 83.3893 143.992 68.298C138.753 46.9081 130.459 18.4092 127.902 12.7967C124.285 5.00156 122.664 1.82115 121.853 1.01045C119.484 -1.42162 115.43 1.01045 111.065 7.43364C108.321 11.4247 101.15 25.1442 99.4658 29.5094C98.8422 31.1308 98.0938 32.6275 97.8444 32.8146C97.5326 32.9393 95.7241 32.6898 93.7286 32.191C82.3789 29.26 62.7975 29.5718 51.9467 32.7522C50.6995 33.1264 50.2006 32.3157 45.96 23.5851C40.9088 13.2956 35.9823 5.25101 32.6772 2.00824C30.3698 -0.236755 27.5636 -0.673294 26.0669 1.07281ZM37.0424 50.8993C38.2273 52.0841 38.2896 52.5206 37.2919 53.5184C35.7328 55.0774 30.5569 54.142 30.5569 52.3336C30.5569 51.2734 32.6772 49.9015 34.2985 49.9015C35.2963 49.9015 36.5435 50.338 37.0424 50.8993ZM116.49 50.6498C117.738 51.897 117.363 53.5808 115.742 54.0173C113.497 54.5786 111.501 54.0797 110.753 52.8324C110.192 51.897 110.317 51.5229 111.252 50.7745C112.749 49.7144 115.493 49.652 116.49 50.6498ZM132.081 70.1064C134.513 72.3514 134.388 73.5363 131.457 77.9016C124.535 88.0664 115.368 91.1221 105.016 86.6945C101.025 84.9484 96.6595 81.8303 96.6595 80.6454C96.6595 79.6477 100.214 72.788 102.085 70.1688C103.332 68.485 104.33 68.1109 103.769 69.4828C103.582 69.9817 103.706 71.9149 104.08 73.8481C106.263 85.759 118.112 88.69 123.911 78.7123C125.47 76.0931 125.657 75.1577 125.657 70.3559V64.9305L127.84 66.5519C129.025 67.4249 130.958 69.0463 132.081 70.1064ZM22.2629 69.9817C22.2005 76.2802 24.4455 80.8949 28.6861 83.514C32.6148 85.8838 37.6037 84.886 40.9088 81.2067C42.6549 79.2111 44.2763 74.347 44.2763 70.8548L44.3387 68.298L45.5859 69.7946C47.0825 71.6031 50.8242 78.3381 51.3855 80.2713C52.2585 83.0152 40.9712 88.5653 34.2985 88.7524C27.8754 88.8771 21.5769 85.0107 16.8998 78.0263C13.2829 72.6632 13.2829 72.8503 17.5858 68.9216C19.7061 67.0508 21.5769 65.4917 21.8263 65.4917C22.0758 65.4917 22.2629 67.5496 22.2629 69.9817Z" fill="black"/>
<path d="M70.1554 86.5073C68.7211 86.8815 67.3491 87.8792 67.3491 88.5652C67.3491 88.7523 68.4716 90.1866 69.9059 91.7456C72.7745 94.8013 72.7745 96.3603 70.0306 98.9171C68.1598 100.663 64.5429 100.913 62.6097 99.4784C59.3669 97.0463 59.1798 100.04 62.4226 103.033C65.1665 105.652 69.0329 105.278 72.338 102.16L73.897 100.663L76.5785 102.721C80.1331 105.465 82.7523 105.465 85.7456 102.846C87.1175 101.599 87.9282 100.351 87.9282 99.416V97.857L86.0574 99.2913C82.3157 102.035 77.3269 100.289 76.3915 95.9862C76.0796 94.4895 76.3915 93.8035 78.1999 91.8703C79.4471 90.5608 80.4449 89.0017 80.4449 88.4405C80.4449 86.6944 74.2712 85.5095 70.1554 86.5073Z" fill="black"/>
<path d="M48.3923 136.147C45.3366 139.203 43.2163 150.926 44.2765 159.158C45.4613 168.637 47.9558 174 51.2609 174C53.8177 174 57.9335 171.63 63.7955 166.766C71.84 160.156 73.1496 159.47 75.8935 160.592C77.702 161.341 81.4436 164.209 85.6842 167.951C88.6151 170.57 93.4169 173.314 95.5372 173.688C97.5951 174.062 98.094 173.875 99.653 172.316C105.889 166.08 105.266 139.826 98.8423 135.586C96.4103 134.027 93.4793 134.962 88.1163 139.078C85.4347 141.073 82.4414 143.505 81.3813 144.379C80.3835 145.314 78.2632 146.748 76.8289 147.621C74.2721 149.18 74.0227 149.18 72.1518 148.245C71.0293 147.746 67.6618 145.189 64.5438 142.57C58.7442 137.581 53.8177 134.713 51.3233 134.713C50.5126 134.713 49.203 135.399 48.3923 136.147Z" fill="black"/>
</svg>
