<svg width="37" height="44" viewBox="0 0 37 44" fill="none" xmlns="http://www.w3.org/2000/svg">
<path d="M6.52574 0.268887C5.63587 1.28365 3.91857 6.20137 2.12321 12.8832C1.81097 13.9917 1.49873 15.2406 1.42068 15.6309C1.327 16.0368 1.1865 16.552 1.09283 16.7862C0.749367 17.6761 0 21.9537 0 22.9841C0 25.1385 0.952321 28.2609 2.15443 30.0562C2.85696 31.1178 3.77806 32.2107 4.68354 33.0693C6.05738 34.3807 5.93249 34.3963 7.05654 32.7883C7.60295 32.0077 8.30548 31.0085 8.61772 30.5558C8.92996 30.1031 9.35148 29.5254 9.52321 29.2756C9.71055 29.0102 10.1165 28.4482 10.4287 28.0111C10.7409 27.5739 11.3966 26.6685 11.865 26.0128C12.6612 24.8887 14.3941 22.5626 15.1903 21.5322C16.7359 19.5026 18.2658 17.801 18.5312 17.801C18.9527 17.801 22.8557 22.5626 25.135 25.8567C26.4152 27.6988 29.9278 32.6634 30.084 32.8664C30.162 32.9444 30.3806 33.2879 30.5835 33.6001C30.7709 33.928 30.9895 34.1934 31.0675 34.1934C31.3329 34.1934 33.4405 32.0858 34.2367 31.0242C35.3295 29.5723 36.0008 28.2296 36.5629 26.4031C36.9376 25.1229 37 24.6702 37 22.9685C37 20.9858 36.9844 20.8765 36.0477 17.0984C34.7363 11.7436 32.6599 4.60897 32.0198 3.20391C31.1143 1.25243 30.7084 0.456226 30.5055 0.253273C29.9122 -0.355587 28.8975 0.253273 27.8046 1.86129C27.1177 2.86045 25.3224 6.29505 24.9008 7.38787C24.7447 7.79378 24.5574 8.16846 24.4949 8.2153C24.4169 8.24652 23.9641 8.18407 23.4646 8.05918C20.6232 7.32543 15.7211 7.40348 13.0046 8.19969C12.6924 8.29336 12.5675 8.0904 11.5059 5.90475C10.2414 3.3288 9.00802 1.31488 8.18059 0.503063C7.60295 -0.0589638 6.90042 -0.168247 6.52574 0.268887ZM9.27342 12.7427C9.57004 13.0394 9.58565 13.1486 9.33587 13.3984C8.94557 13.7887 7.64979 13.5545 7.64979 13.1018C7.64979 12.8364 8.18059 12.4929 8.5865 12.4929C8.83629 12.4929 9.14852 12.6022 9.27342 12.7427ZM29.1629 12.6803C29.4751 12.9925 29.3814 13.414 28.9755 13.5233C28.4135 13.6638 27.9139 13.5389 27.7266 13.2267C27.5861 12.9925 27.6173 12.8988 27.8515 12.7115C28.2262 12.4461 28.9131 12.4305 29.1629 12.6803ZM33.0658 17.5512C33.6747 18.1132 33.6435 18.4098 32.9097 19.5026C31.1768 22.0474 28.8819 22.8123 26.2903 21.7039C25.2911 21.2668 24.1983 20.4862 24.1983 20.1896C24.1983 19.9398 25.0882 18.2225 25.5565 17.5668C25.8688 17.1453 26.1186 17.0516 25.9781 17.395C25.9312 17.5199 25.9624 18.0039 26.0561 18.4879C26.6025 21.4697 29.5688 22.2035 31.0207 19.7056C31.411 19.0499 31.4578 18.8157 31.4578 17.6136V16.2554L32.0042 16.6613C32.3008 16.8799 32.7848 17.2858 33.0658 17.5512ZM5.57342 17.5199C5.55781 19.0967 6.11983 20.252 7.18143 20.9077C8.16498 21.501 9.41392 21.2512 10.2414 20.3301C10.6785 19.8305 11.0844 18.6128 11.0844 17.7385L11.1 17.0984L11.4122 17.4731C11.7869 17.9258 12.7236 19.6119 12.8641 20.0959C13.0827 20.7828 10.257 22.1723 8.5865 22.2191C6.97848 22.2503 5.40169 21.2824 4.2308 19.5339C3.32532 18.1912 3.32532 18.2381 4.40253 17.2545C4.93333 16.7862 5.40169 16.3959 5.46414 16.3959C5.52658 16.3959 5.57342 16.9111 5.57342 17.5199Z" fill="black"/>
<path d="M17.5628 21.6571C17.2038 21.7508 16.8603 22.0006 16.8603 22.1723C16.8603 22.2191 17.1413 22.5782 17.5004 22.9685C18.2185 23.7335 18.2185 24.1238 17.5316 24.7639C17.0633 25.201 16.1578 25.2634 15.6738 24.9044C14.862 24.2955 14.8152 25.0449 15.627 25.7942C16.3139 26.4499 17.2818 26.3563 18.1092 25.5757L18.4995 25.201L19.1708 25.7162C20.0607 26.4031 20.7164 26.4031 21.4658 25.7474C21.8092 25.4352 22.0122 25.1229 22.0122 24.8888V24.4985L21.5438 24.8575C20.6071 25.5445 19.3582 25.1073 19.124 24.0301C19.046 23.6554 19.124 23.4837 19.5768 22.9997C19.889 22.6719 20.1388 22.2816 20.1388 22.1411C20.1388 21.704 18.5932 21.4073 17.5628 21.6571Z" fill="black"/>
<path d="M12.1133 34.0837C11.3483 34.8487 10.8175 37.7837 11.0829 39.8444C11.3795 42.2174 12.004 43.5601 12.8314 43.5601C13.4715 43.5601 14.5019 42.9668 15.9694 41.7491C17.9833 40.0942 18.3112 39.9225 18.9981 40.2035C19.4508 40.3909 20.3875 41.109 21.4491 42.0457C22.1829 42.7014 23.385 43.3883 23.9158 43.482C24.431 43.5757 24.5559 43.5288 24.9462 43.1385C26.5074 41.5774 26.3512 35.0048 24.7432 33.9432C24.1344 33.5529 23.4006 33.7871 22.058 34.8174C21.3867 35.317 20.6373 35.9259 20.3719 36.1444C20.1221 36.3786 19.5913 36.7377 19.2323 36.9563C18.5922 37.3466 18.5297 37.3466 18.0614 37.1124C17.7804 36.9875 16.9373 36.3474 16.1567 35.6917C14.7048 34.4428 13.4715 33.7246 12.847 33.7246C12.6441 33.7246 12.3162 33.8963 12.1133 34.0837Z" fill="#DB3328"/>
</svg>
