<svg width="408" height="223" viewBox="0 0 408 223" fill="none" xmlns="http://www.w3.org/2000/svg">
<path d="M28 198.223C28 197.932 28.057 197.659 28.171 197.406C28.285 197.153 28.437 196.931 28.627 196.741C28.817 196.551 29.0387 196.399 29.292 196.285C29.5453 196.171 29.8177 196.114 30.109 196.114H41.718C42.0093 196.114 42.2817 196.171 42.535 196.285C42.7883 196.399 43.01 196.551 43.2 196.741C43.39 196.931 43.542 197.153 43.656 197.406C43.77 197.659 43.827 197.932 43.827 198.223V198.28C43.827 198.571 43.77 198.844 43.656 199.097C43.542 199.35 43.39 199.572 43.2 199.762C43.01 199.952 42.7883 200.104 42.535 200.218C42.2817 200.332 42.0093 200.389 41.718 200.389H38.222V212.834C38.222 213.151 38.1587 213.448 38.032 213.727C37.918 213.993 37.7533 214.234 37.538 214.449C37.3353 214.652 37.0947 214.816 36.816 214.943C36.55 215.057 36.2587 215.114 35.942 215.114H35.904C35.5873 215.114 35.2897 215.057 35.011 214.943C34.745 214.816 34.5043 214.652 34.289 214.449C34.0863 214.234 33.9217 213.993 33.795 213.727C33.681 213.448 33.624 213.151 33.624 212.834V200.389H30.109C29.8177 200.389 29.5453 200.332 29.292 200.218C29.0387 200.104 28.817 199.952 28.627 199.762C28.437 199.572 28.285 199.35 28.171 199.097C28.057 198.844 28 198.571 28 198.28V198.223ZM57.9197 198.394C57.9197 198.077 57.9767 197.786 58.0907 197.52C58.2173 197.241 58.382 197.001 58.5847 196.798C58.8 196.583 59.0407 196.418 59.3067 196.304C59.5853 196.177 59.883 196.114 60.1997 196.114H60.2567C60.5733 196.114 60.8647 196.177 61.1307 196.304C61.4093 196.418 61.65 196.583 61.8527 196.798C62.0553 197.001 62.2137 197.241 62.3277 197.52C62.4543 197.786 62.5177 198.077 62.5177 198.394V212.834C62.5177 213.151 62.4543 213.448 62.3277 213.727C62.2137 213.993 62.0553 214.234 61.8527 214.449C61.65 214.652 61.4093 214.816 61.1307 214.943C60.8647 215.057 60.5733 215.114 60.2567 215.114H60.1997C59.883 215.114 59.5853 215.057 59.3067 214.943C59.0407 214.816 58.8 214.652 58.5847 214.449C58.382 214.234 58.2173 213.993 58.0907 213.727C57.9767 213.448 57.9197 213.151 57.9197 212.834V207.704H50.9657V212.834C50.9657 213.151 50.9023 213.448 50.7757 213.727C50.6617 214.006 50.5033 214.246 50.3007 214.449C50.098 214.652 49.8573 214.816 49.5787 214.943C49.3127 215.057 49.0213 215.114 48.7047 215.114H48.6477C48.331 215.114 48.0333 215.057 47.7547 214.943C47.4887 214.816 47.248 214.652 47.0327 214.449C46.83 214.246 46.6653 214.006 46.5387 213.727C46.4247 213.448 46.3677 213.151 46.3677 212.834V198.394C46.3677 198.077 46.4247 197.786 46.5387 197.52C46.6653 197.241 46.83 197.001 47.0327 196.798C47.248 196.583 47.4887 196.418 47.7547 196.304C48.0333 196.177 48.331 196.114 48.6477 196.114H48.6857C49.0023 196.114 49.3 196.177 49.5787 196.304C49.8573 196.418 50.098 196.583 50.3007 196.798C50.5033 197.001 50.6617 197.241 50.7757 197.52C50.9023 197.786 50.9657 198.077 50.9657 198.394V203.429H57.9197V198.394ZM65.0693 198.394C65.0693 198.077 65.1263 197.786 65.2403 197.52C65.367 197.241 65.5316 197.001 65.7343 196.798C65.9496 196.583 66.1903 196.418 66.4563 196.304C66.735 196.177 67.0326 196.114 67.3493 196.114H77.5333C77.8246 196.114 78.097 196.171 78.3503 196.285C78.6036 196.399 78.8253 196.551 79.0153 196.741C79.2053 196.931 79.3573 197.153 79.4713 197.406C79.5853 197.659 79.6423 197.932 79.6423 198.223V198.28C79.6423 198.571 79.5853 198.844 79.4713 199.097C79.3573 199.35 79.2053 199.572 79.0153 199.762C78.8253 199.952 78.6036 200.104 78.3503 200.218C78.097 200.332 77.8246 200.389 77.5333 200.389H69.6103V203.467H76.2603C76.539 203.467 76.805 203.524 77.0583 203.638C77.3116 203.739 77.527 203.885 77.7043 204.075C77.8943 204.252 78.04 204.468 78.1413 204.721C78.2553 204.974 78.3123 205.24 78.3123 205.519V205.576C78.3123 205.855 78.2553 206.121 78.1413 206.374C78.04 206.615 77.8943 206.83 77.7043 207.02C77.527 207.21 77.3116 207.362 77.0583 207.476C76.805 207.577 76.539 207.628 76.2603 207.628H69.6103V210.839H77.5333C77.8246 210.839 78.097 210.896 78.3503 211.01C78.6036 211.124 78.8253 211.276 79.0153 211.466C79.2053 211.656 79.3573 211.878 79.4713 212.131C79.5853 212.384 79.6423 212.657 79.6423 212.948V213.005C79.6423 213.296 79.5853 213.569 79.4713 213.822C79.3573 214.075 79.2053 214.297 79.0153 214.487C78.8253 214.677 78.6036 214.829 78.3503 214.943C78.097 215.057 77.8246 215.114 77.5333 215.114H67.3493C67.0326 215.114 66.735 215.057 66.4563 214.943C66.1903 214.816 65.9496 214.652 65.7343 214.449C65.5316 214.234 65.367 213.993 65.2403 213.727C65.1263 213.448 65.0693 213.151 65.0693 212.834V198.394ZM112.457 210.25C112.685 210.478 112.85 210.731 112.951 211.01C113.052 211.289 113.09 211.574 113.065 211.865C113.052 212.156 112.976 212.435 112.837 212.701C112.698 212.967 112.508 213.201 112.267 213.404L111.64 213.86C111.475 213.961 111.311 214.056 111.146 214.145C110.981 214.234 110.81 214.322 110.633 214.411C110.038 214.702 109.36 214.924 108.6 215.076C107.878 215.228 107.061 215.304 106.149 215.304C104.756 215.304 103.483 215.057 102.33 214.563C101.152 214.056 100.132 213.372 99.2711 212.511C98.4097 211.624 97.7384 210.598 97.2571 209.433C96.7757 208.242 96.5351 206.988 96.5351 205.671V205.614C96.5351 204.271 96.7757 203.017 97.2571 201.852C97.4851 201.282 97.7637 200.744 98.0931 200.237C98.4351 199.718 98.8277 199.23 99.2711 198.774C100.107 197.9 101.133 197.203 102.349 196.684C103.565 196.177 104.882 195.924 106.301 195.924C106.744 195.924 107.162 195.943 107.555 195.981C107.948 196.006 108.328 196.057 108.695 196.133C109.05 196.196 109.392 196.279 109.721 196.38C110.05 196.481 110.361 196.595 110.652 196.722C110.791 196.785 110.924 196.849 111.051 196.912C111.178 196.963 111.304 197.02 111.431 197.083C111.52 197.134 111.602 197.184 111.678 197.235C111.767 197.286 111.855 197.343 111.944 197.406C112.223 197.583 112.444 197.811 112.609 198.09C112.774 198.356 112.875 198.641 112.913 198.945C112.951 199.249 112.926 199.553 112.837 199.857C112.748 200.161 112.596 200.44 112.381 200.693L112.362 200.731C112.185 200.946 111.976 201.117 111.735 201.244C111.494 201.358 111.247 201.434 110.994 201.472C110.741 201.51 110.481 201.504 110.215 201.453C109.962 201.402 109.721 201.301 109.493 201.149C109.354 201.06 109.214 200.978 109.075 200.902C108.936 200.826 108.796 200.75 108.657 200.674C108.302 200.497 107.929 200.364 107.536 200.275C107.143 200.186 106.725 200.142 106.282 200.142C105.547 200.142 104.876 200.281 104.268 200.56C103.647 200.851 103.115 201.238 102.672 201.719C102.216 202.238 101.868 202.815 101.627 203.448C101.374 204.145 101.247 204.848 101.247 205.557V205.614C101.247 206.336 101.374 207.045 101.627 207.742C101.754 208.071 101.899 208.382 102.064 208.673C102.229 208.964 102.425 209.237 102.653 209.49C103.096 209.971 103.628 210.358 104.249 210.649C104.895 210.94 105.573 211.086 106.282 211.086C107.283 211.086 108.125 210.902 108.809 210.535C109.113 210.37 109.404 210.187 109.683 209.984C109.898 209.832 110.126 209.724 110.367 209.661C110.608 209.598 110.848 209.579 111.089 209.604C111.342 209.617 111.583 209.674 111.811 209.775C112.039 209.876 112.248 210.022 112.438 210.212L112.457 210.25ZM128.983 196.114C129.287 196.114 129.572 196.177 129.838 196.304C130.117 196.418 130.357 196.576 130.56 196.779C130.763 196.982 130.921 197.222 131.035 197.501C131.162 197.767 131.225 198.052 131.225 198.356V206.64C131.225 207.983 131.041 209.18 130.674 210.231C130.307 211.282 129.768 212.169 129.059 212.891C128.362 213.613 127.501 214.164 126.475 214.544C125.462 214.924 124.303 215.114 122.998 215.114C121.706 215.114 120.553 214.93 119.54 214.563C118.527 214.183 117.672 213.638 116.975 212.929C116.278 212.22 115.746 211.352 115.379 210.326C115.024 209.287 114.847 208.103 114.847 206.773V198.356C114.847 198.052 114.904 197.767 115.018 197.501C115.145 197.222 115.309 196.982 115.512 196.779C115.715 196.576 115.949 196.418 116.215 196.304C116.494 196.177 116.785 196.114 117.089 196.114H117.127C117.431 196.114 117.716 196.177 117.982 196.304C118.261 196.418 118.501 196.576 118.704 196.779C118.907 196.982 119.065 197.222 119.179 197.501C119.306 197.767 119.369 198.052 119.369 198.356V206.659C119.369 208.065 119.673 209.123 120.281 209.832C120.902 210.541 121.807 210.896 122.998 210.896C124.214 210.896 125.132 210.548 125.753 209.851C126.386 209.154 126.703 208.135 126.703 206.792V198.356C126.703 198.052 126.76 197.767 126.874 197.501C127.001 197.222 127.165 196.982 127.368 196.779C127.571 196.576 127.805 196.418 128.071 196.304C128.35 196.177 128.641 196.114 128.945 196.114H128.983ZM148.154 211.675C148.408 212.042 148.534 212.429 148.534 212.834C148.547 213.239 148.465 213.613 148.287 213.955C148.11 214.284 147.85 214.563 147.508 214.791C147.179 215.006 146.793 215.114 146.349 215.114H146.292C145.925 215.114 145.577 215.032 145.247 214.867C144.931 214.69 144.671 214.449 144.468 214.145L141.143 209.205H138.369V212.834C138.369 213.151 138.306 213.448 138.179 213.727C138.065 213.993 137.901 214.234 137.685 214.449C137.483 214.652 137.242 214.816 136.963 214.943C136.697 215.057 136.406 215.114 136.089 215.114H136.051C135.735 215.114 135.437 215.057 135.158 214.943C134.892 214.816 134.652 214.652 134.436 214.449C134.234 214.234 134.069 213.993 133.942 213.727C133.828 213.448 133.771 213.151 133.771 212.834V198.394C133.771 198.077 133.828 197.786 133.942 197.52C134.069 197.241 134.234 197.001 134.436 196.798C134.652 196.583 134.892 196.418 135.158 196.304C135.437 196.177 135.735 196.114 136.051 196.114H142.473C143.664 196.114 144.728 196.279 145.665 196.608C146.615 196.937 147.413 197.425 148.059 198.071C149.161 199.173 149.712 200.642 149.712 202.479V202.517C149.712 203.898 149.396 205.101 148.762 206.127C148.142 207.153 147.204 207.932 145.95 208.464L148.154 211.675ZM145.057 202.688C145.057 202.169 144.956 201.757 144.753 201.453C144.551 201.136 144.297 200.896 143.993 200.731C143.702 200.554 143.385 200.44 143.043 200.389C142.714 200.338 142.41 200.313 142.131 200.313H138.369V205.082H142.207C143.119 205.082 143.822 204.879 144.316 204.474C144.81 204.056 145.057 203.48 145.057 202.745V202.688ZM152.25 198.375C152.25 198.058 152.307 197.767 152.421 197.501C152.548 197.222 152.713 196.982 152.915 196.779C153.131 196.576 153.371 196.418 153.637 196.304C153.916 196.177 154.214 196.114 154.53 196.114H154.568C154.885 196.114 155.176 196.177 155.442 196.304C155.721 196.418 155.962 196.576 156.164 196.779C156.38 196.982 156.544 197.222 156.658 197.501C156.785 197.767 156.848 198.058 156.848 198.375V212.834C156.848 213.151 156.785 213.448 156.658 213.727C156.544 213.993 156.38 214.234 156.164 214.449C155.962 214.652 155.721 214.816 155.442 214.943C155.176 215.057 154.885 215.114 154.568 215.114H154.53C154.214 215.114 153.916 215.057 153.637 214.943C153.371 214.816 153.131 214.652 152.915 214.449C152.713 214.234 152.548 213.993 152.421 213.727C152.307 213.448 152.25 213.151 152.25 212.834V198.375ZM163.914 206.336C163.952 206.792 164.079 207.254 164.294 207.723C164.434 208.052 164.598 208.356 164.788 208.635C164.978 208.914 165.194 209.18 165.434 209.433C165.89 209.914 166.473 210.301 167.182 210.592C167.828 210.871 168.576 211.01 169.424 211.01C170.26 211.01 170.995 210.871 171.628 210.592C172.312 210.313 172.895 209.933 173.376 209.452C173.87 208.983 174.257 208.42 174.535 207.761C174.801 207.115 174.934 206.418 174.934 205.671V205.633C174.934 204.911 174.795 204.221 174.516 203.562C174.377 203.233 174.212 202.929 174.022 202.65C173.845 202.371 173.63 202.105 173.376 201.852C172.882 201.358 172.293 200.972 171.609 200.693C170.913 200.402 170.172 200.256 169.386 200.256C168.626 200.256 167.885 200.402 167.163 200.693C166.492 200.984 165.909 201.364 165.415 201.833C164.959 202.289 164.579 202.853 164.275 203.524C164.098 203.942 163.978 204.417 163.914 204.949L163.895 205.158C163.857 205.449 163.857 205.741 163.895 206.032L163.914 206.336ZM159.392 205.595C159.392 204.24 159.639 202.973 160.133 201.795C160.627 200.642 161.324 199.616 162.223 198.717C162.667 198.274 163.148 197.881 163.667 197.539C164.199 197.197 164.769 196.899 165.377 196.646C166.631 196.127 167.974 195.867 169.405 195.867C170.824 195.867 172.16 196.127 173.414 196.646C174.643 197.165 175.707 197.868 176.606 198.755C177.48 199.616 178.177 200.649 178.696 201.852C179.127 202.853 179.368 203.885 179.418 204.949L179.437 205.196C179.45 205.335 179.456 205.468 179.456 205.595C179.456 205.722 179.456 205.855 179.456 205.994L179.437 206.336C179.425 206.906 179.355 207.451 179.228 207.97C179.102 208.489 178.931 208.996 178.715 209.49C178.221 210.643 177.525 211.669 176.625 212.568C175.739 213.429 174.687 214.12 173.471 214.639C172.268 215.146 170.925 215.399 169.443 215.399C167.961 215.399 166.619 215.146 165.415 214.639C164.199 214.132 163.142 213.429 162.242 212.53C161.368 211.669 160.672 210.636 160.152 209.433C159.646 208.242 159.392 206.976 159.392 205.633V205.595ZM196.145 196.114C196.449 196.114 196.734 196.177 197 196.304C197.279 196.418 197.519 196.576 197.722 196.779C197.925 196.982 198.083 197.222 198.197 197.501C198.324 197.767 198.387 198.052 198.387 198.356V206.64C198.387 207.983 198.203 209.18 197.836 210.231C197.469 211.282 196.93 212.169 196.221 212.891C195.524 213.613 194.663 214.164 193.637 214.544C192.624 214.924 191.465 215.114 190.16 215.114C188.868 215.114 187.715 214.93 186.702 214.563C185.689 214.183 184.834 213.638 184.137 212.929C183.44 212.22 182.908 211.352 182.541 210.326C182.186 209.287 182.009 208.103 182.009 206.773V198.356C182.009 198.052 182.066 197.767 182.18 197.501C182.307 197.222 182.471 196.982 182.674 196.779C182.877 196.576 183.111 196.418 183.377 196.304C183.656 196.177 183.947 196.114 184.251 196.114H184.289C184.593 196.114 184.878 196.177 185.144 196.304C185.423 196.418 185.663 196.576 185.866 196.779C186.069 196.982 186.227 197.222 186.341 197.501C186.468 197.767 186.531 198.052 186.531 198.356V206.659C186.531 208.065 186.835 209.123 187.443 209.832C188.064 210.541 188.969 210.896 190.16 210.896C191.376 210.896 192.294 210.548 192.915 209.851C193.548 209.154 193.865 208.135 193.865 206.792V198.356C193.865 198.052 193.922 197.767 194.036 197.501C194.163 197.222 194.327 196.982 194.53 196.779C194.733 196.576 194.967 196.418 195.233 196.304C195.512 196.177 195.803 196.114 196.107 196.114H196.145ZM209.065 203.6C209.952 203.828 210.756 204.088 211.478 204.379C212.2 204.67 212.815 205.038 213.321 205.481C213.841 205.912 214.24 206.437 214.518 207.058C214.81 207.666 214.955 208.394 214.955 209.243V209.281C214.955 210.18 214.791 210.991 214.461 211.713C214.145 212.422 213.689 213.03 213.093 213.537C212.498 214.044 211.776 214.436 210.927 214.715C210.079 214.981 209.135 215.114 208.096 215.114C207.197 215.114 206.323 215.019 205.474 214.829C204.626 214.639 203.809 214.354 203.023 213.974C202.681 213.822 202.358 213.651 202.054 213.461C201.776 213.296 201.554 213.087 201.389 212.834C201.225 212.568 201.117 212.289 201.066 211.998C201.016 211.707 201.028 211.415 201.104 211.124C201.18 210.833 201.32 210.56 201.522 210.307L201.56 210.288C201.89 209.883 202.314 209.642 202.833 209.566C203.353 209.477 203.834 209.566 204.277 209.832C204.429 209.933 204.588 210.035 204.752 210.136C204.917 210.225 205.075 210.307 205.227 210.383C205.709 210.624 206.19 210.807 206.671 210.934C207.153 211.048 207.653 211.105 208.172 211.105C208.907 211.105 209.477 210.978 209.882 210.725C210.3 210.472 210.509 210.123 210.509 209.68V209.623C210.509 209.42 210.465 209.237 210.376 209.072C210.3 208.895 210.142 208.73 209.901 208.578C209.661 208.426 209.312 208.274 208.856 208.122C208.413 207.957 207.824 207.78 207.089 207.59C206.215 207.362 205.405 207.115 204.657 206.849C203.91 206.583 203.258 206.241 202.7 205.823C202.156 205.405 201.725 204.879 201.408 204.246C201.092 203.613 200.933 202.808 200.933 201.833V201.795C200.933 200.959 201.092 200.193 201.408 199.496C201.738 198.799 202.187 198.204 202.757 197.71C203.34 197.203 204.03 196.811 204.828 196.532C205.639 196.253 206.526 196.114 207.488 196.114C208.869 196.114 210.148 196.31 211.326 196.703C211.567 196.779 211.789 196.861 211.991 196.95C212.207 197.039 212.409 197.134 212.599 197.235C212.878 197.387 213.106 197.583 213.283 197.824C213.473 198.065 213.6 198.331 213.663 198.622C213.727 198.901 213.733 199.192 213.682 199.496C213.632 199.787 213.518 200.066 213.34 200.332L213.302 200.37C212.998 200.813 212.587 201.105 212.067 201.244C211.561 201.371 211.067 201.307 210.585 201.054C210.205 200.851 209.806 200.668 209.388 200.503C209.046 200.376 208.717 200.281 208.4 200.218C208.084 200.155 207.761 200.123 207.431 200.123C206.811 200.123 206.31 200.243 205.93 200.484C205.563 200.712 205.379 201.029 205.379 201.434V201.472C205.379 201.7 205.417 201.903 205.493 202.08C205.582 202.245 205.753 202.409 206.006 202.574C206.272 202.726 206.646 202.884 207.127 203.049C207.609 203.214 208.255 203.397 209.065 203.6ZM239.121 203.6C240.008 203.828 240.812 204.088 241.534 204.379C242.256 204.67 242.87 205.038 243.377 205.481C243.896 205.912 244.295 206.437 244.574 207.058C244.865 207.666 245.011 208.394 245.011 209.243V209.281C245.011 210.18 244.846 210.991 244.517 211.713C244.2 212.422 243.744 213.03 243.149 213.537C242.554 214.044 241.832 214.436 240.983 214.715C240.134 214.981 239.191 215.114 238.152 215.114C237.253 215.114 236.379 215.019 235.53 214.829C234.681 214.639 233.864 214.354 233.079 213.974C232.737 213.822 232.414 213.651 232.11 213.461C231.831 213.296 231.61 213.087 231.445 212.834C231.28 212.568 231.173 212.289 231.122 211.998C231.071 211.707 231.084 211.415 231.16 211.124C231.236 210.833 231.375 210.56 231.578 210.307L231.616 210.288C231.945 209.883 232.37 209.642 232.889 209.566C233.408 209.477 233.89 209.566 234.333 209.832C234.485 209.933 234.643 210.035 234.808 210.136C234.973 210.225 235.131 210.307 235.283 210.383C235.764 210.624 236.246 210.807 236.727 210.934C237.208 211.048 237.709 211.105 238.228 211.105C238.963 211.105 239.533 210.978 239.938 210.725C240.356 210.472 240.565 210.123 240.565 209.68V209.623C240.565 209.42 240.521 209.237 240.432 209.072C240.356 208.895 240.198 208.73 239.957 208.578C239.716 208.426 239.368 208.274 238.912 208.122C238.469 207.957 237.88 207.78 237.145 207.59C236.271 207.362 235.46 207.115 234.713 206.849C233.966 206.583 233.313 206.241 232.756 205.823C232.211 205.405 231.781 204.879 231.464 204.246C231.147 203.613 230.989 202.808 230.989 201.833V201.795C230.989 200.959 231.147 200.193 231.464 199.496C231.793 198.799 232.243 198.204 232.813 197.71C233.396 197.203 234.086 196.811 234.884 196.532C235.695 196.253 236.581 196.114 237.544 196.114C238.925 196.114 240.204 196.31 241.382 196.703C241.623 196.779 241.844 196.861 242.047 196.95C242.262 197.039 242.465 197.134 242.655 197.235C242.934 197.387 243.162 197.583 243.339 197.824C243.529 198.065 243.656 198.331 243.719 198.622C243.782 198.901 243.789 199.192 243.738 199.496C243.687 199.787 243.573 200.066 243.396 200.332L243.358 200.37C243.054 200.813 242.642 201.105 242.123 201.244C241.616 201.371 241.122 201.307 240.641 201.054C240.261 200.851 239.862 200.668 239.444 200.503C239.102 200.376 238.773 200.281 238.456 200.218C238.139 200.155 237.816 200.123 237.487 200.123C236.866 200.123 236.366 200.243 235.986 200.484C235.619 200.712 235.435 201.029 235.435 201.434V201.472C235.435 201.7 235.473 201.903 235.549 202.08C235.638 202.245 235.809 202.409 236.062 202.574C236.328 202.726 236.702 202.884 237.183 203.049C237.664 203.214 238.31 203.397 239.121 203.6ZM247.557 198.394C247.557 198.077 247.614 197.786 247.728 197.52C247.855 197.241 248.019 197.001 248.222 196.798C248.437 196.583 248.678 196.418 248.944 196.304C249.223 196.177 249.52 196.114 249.837 196.114H260.021C260.312 196.114 260.585 196.171 260.838 196.285C261.091 196.399 261.313 196.551 261.503 196.741C261.693 196.931 261.845 197.153 261.959 197.406C262.073 197.659 262.13 197.932 262.13 198.223V198.28C262.13 198.571 262.073 198.844 261.959 199.097C261.845 199.35 261.693 199.572 261.503 199.762C261.313 199.952 261.091 200.104 260.838 200.218C260.585 200.332 260.312 200.389 260.021 200.389H252.098V203.467H258.748C259.027 203.467 259.293 203.524 259.546 203.638C259.799 203.739 260.015 203.885 260.192 204.075C260.382 204.252 260.528 204.468 260.629 204.721C260.743 204.974 260.8 205.24 260.8 205.519V205.576C260.8 205.855 260.743 206.121 260.629 206.374C260.528 206.615 260.382 206.83 260.192 207.02C260.015 207.21 259.799 207.362 259.546 207.476C259.293 207.577 259.027 207.628 258.748 207.628H252.098V210.839H260.021C260.312 210.839 260.585 210.896 260.838 211.01C261.091 211.124 261.313 211.276 261.503 211.466C261.693 211.656 261.845 211.878 261.959 212.131C262.073 212.384 262.13 212.657 262.13 212.948V213.005C262.13 213.296 262.073 213.569 261.959 213.822C261.845 214.075 261.693 214.297 261.503 214.487C261.313 214.677 261.091 214.829 260.838 214.943C260.585 215.057 260.312 215.114 260.021 215.114H249.837C249.52 215.114 249.223 215.057 248.944 214.943C248.678 214.816 248.437 214.652 248.222 214.449C248.019 214.234 247.855 213.993 247.728 213.727C247.614 213.448 247.557 213.151 247.557 212.834V198.394ZM282.56 212.093C282.712 212.46 282.763 212.821 282.712 213.176C282.674 213.531 282.56 213.854 282.37 214.145C282.18 214.436 281.927 214.671 281.61 214.848C281.306 215.025 280.958 215.114 280.565 215.114H280.508C280.065 215.114 279.66 214.994 279.292 214.753C278.938 214.5 278.672 214.17 278.494 213.765L273.668 201.947L268.823 213.784C268.659 214.189 268.399 214.512 268.044 214.753C267.69 214.994 267.291 215.114 266.847 215.114H266.809C266.429 215.114 266.087 215.025 265.783 214.848C265.479 214.671 265.232 214.443 265.042 214.164C264.852 213.873 264.732 213.556 264.681 213.214C264.643 212.859 264.7 212.505 264.852 212.15C265.916 209.667 266.828 207.533 267.588 205.747C268.348 203.948 268.975 202.473 269.469 201.32C270.052 199.977 270.533 198.856 270.913 197.957C271.154 197.387 271.528 196.937 272.034 196.608C272.541 196.279 273.098 196.114 273.706 196.114H273.744C274.352 196.114 274.91 196.279 275.416 196.608C275.923 196.937 276.297 197.387 276.537 197.957L282.56 212.093ZM270.476 210.174C270.958 210.199 271.439 210.142 271.92 210.003C272.414 209.851 272.883 209.636 273.326 209.357C273.782 209.078 274.194 208.736 274.561 208.331C274.941 207.926 275.264 207.463 275.53 206.944C274.821 207.565 274.169 207.919 273.573 208.008C272.991 208.097 272.459 208.052 271.977 207.875C271.838 207.812 271.692 207.818 271.54 207.894C271.401 207.957 271.3 208.065 271.236 208.217L270.476 210.174ZM299.659 211.675C299.912 212.042 300.039 212.429 300.039 212.834C300.051 213.239 299.969 213.613 299.792 213.955C299.614 214.284 299.355 214.563 299.013 214.791C298.683 215.006 298.297 215.114 297.854 215.114H297.797C297.429 215.114 297.081 215.032 296.752 214.867C296.435 214.69 296.175 214.449 295.973 214.145L292.648 209.205H289.874V212.834C289.874 213.151 289.81 213.448 289.684 213.727C289.57 213.993 289.405 214.234 289.19 214.449C288.987 214.652 288.746 214.816 288.468 214.943C288.202 215.057 287.91 215.114 287.594 215.114H287.556C287.239 215.114 286.941 215.057 286.663 214.943C286.397 214.816 286.156 214.652 285.941 214.449C285.738 214.234 285.573 213.993 285.447 213.727C285.333 213.448 285.276 213.151 285.276 212.834V198.394C285.276 198.077 285.333 197.786 285.447 197.52C285.573 197.241 285.738 197.001 285.941 196.798C286.156 196.583 286.397 196.418 286.663 196.304C286.941 196.177 287.239 196.114 287.556 196.114H293.978C295.168 196.114 296.232 196.279 297.17 196.608C298.12 196.937 298.918 197.425 299.564 198.071C300.666 199.173 301.217 200.642 301.217 202.479V202.517C301.217 203.898 300.9 205.101 300.267 206.127C299.646 207.153 298.709 207.932 297.455 208.464L299.659 211.675ZM296.562 202.688C296.562 202.169 296.46 201.757 296.258 201.453C296.055 201.136 295.802 200.896 295.498 200.731C295.206 200.554 294.89 200.44 294.548 200.389C294.218 200.338 293.914 200.313 293.636 200.313H289.874V205.082H293.712C294.624 205.082 295.327 204.879 295.821 204.474C296.315 204.056 296.562 203.48 296.562 202.745V202.688ZM319.491 210.25C319.719 210.478 319.884 210.731 319.985 211.01C320.086 211.289 320.124 211.574 320.099 211.865C320.086 212.156 320.01 212.435 319.871 212.701C319.732 212.967 319.542 213.201 319.301 213.404L318.674 213.86C318.509 213.961 318.345 214.056 318.18 214.145C318.015 214.234 317.844 214.322 317.667 214.411C317.072 214.702 316.394 214.924 315.634 215.076C314.912 215.228 314.095 215.304 313.183 215.304C311.79 215.304 310.517 215.057 309.364 214.563C308.186 214.056 307.166 213.372 306.305 212.511C305.444 211.624 304.772 210.598 304.291 209.433C303.81 208.242 303.569 206.988 303.569 205.671V205.614C303.569 204.271 303.81 203.017 304.291 201.852C304.519 201.282 304.798 200.744 305.127 200.237C305.469 199.718 305.862 199.23 306.305 198.774C307.141 197.9 308.167 197.203 309.383 196.684C310.599 196.177 311.916 195.924 313.335 195.924C313.778 195.924 314.196 195.943 314.589 195.981C314.982 196.006 315.362 196.057 315.729 196.133C316.084 196.196 316.426 196.279 316.755 196.38C317.084 196.481 317.395 196.595 317.686 196.722C317.825 196.785 317.958 196.849 318.085 196.912C318.212 196.963 318.338 197.02 318.465 197.083C318.554 197.134 318.636 197.184 318.712 197.235C318.801 197.286 318.889 197.343 318.978 197.406C319.257 197.583 319.478 197.811 319.643 198.09C319.808 198.356 319.909 198.641 319.947 198.945C319.985 199.249 319.96 199.553 319.871 199.857C319.782 200.161 319.63 200.44 319.415 200.693L319.396 200.731C319.219 200.946 319.01 201.117 318.769 201.244C318.528 201.358 318.281 201.434 318.028 201.472C317.775 201.51 317.515 201.504 317.249 201.453C316.996 201.402 316.755 201.301 316.527 201.149C316.388 201.06 316.248 200.978 316.109 200.902C315.97 200.826 315.83 200.75 315.691 200.674C315.336 200.497 314.963 200.364 314.57 200.275C314.177 200.186 313.759 200.142 313.316 200.142C312.581 200.142 311.91 200.281 311.302 200.56C310.681 200.851 310.149 201.238 309.706 201.719C309.25 202.238 308.902 202.815 308.661 203.448C308.408 204.145 308.281 204.848 308.281 205.557V205.614C308.281 206.336 308.408 207.045 308.661 207.742C308.788 208.071 308.933 208.382 309.098 208.673C309.263 208.964 309.459 209.237 309.687 209.49C310.13 209.971 310.662 210.358 311.283 210.649C311.929 210.94 312.607 211.086 313.316 211.086C314.317 211.086 315.159 210.902 315.843 210.535C316.147 210.37 316.438 210.187 316.717 209.984C316.932 209.832 317.16 209.724 317.401 209.661C317.642 209.598 317.882 209.579 318.123 209.604C318.376 209.617 318.617 209.674 318.845 209.775C319.073 209.876 319.282 210.022 319.472 210.212L319.491 210.25ZM334.194 198.394C334.194 198.077 334.251 197.786 334.365 197.52C334.491 197.241 334.656 197.001 334.859 196.798C335.074 196.583 335.315 196.418 335.581 196.304C335.859 196.177 336.157 196.114 336.474 196.114H336.531C336.847 196.114 337.139 196.177 337.405 196.304C337.683 196.418 337.924 196.583 338.127 196.798C338.329 197.001 338.488 197.241 338.602 197.52C338.728 197.786 338.792 198.077 338.792 198.394V212.834C338.792 213.151 338.728 213.448 338.602 213.727C338.488 213.993 338.329 214.234 338.127 214.449C337.924 214.652 337.683 214.816 337.405 214.943C337.139 215.057 336.847 215.114 336.531 215.114H336.474C336.157 215.114 335.859 215.057 335.581 214.943C335.315 214.816 335.074 214.652 334.859 214.449C334.656 214.234 334.491 213.993 334.365 213.727C334.251 213.448 334.194 213.151 334.194 212.834V207.704H327.24V212.834C327.24 213.151 327.176 213.448 327.05 213.727C326.936 214.006 326.777 214.246 326.575 214.449C326.372 214.652 326.131 214.816 325.853 214.943C325.587 215.057 325.295 215.114 324.979 215.114H324.922C324.605 215.114 324.307 215.057 324.029 214.943C323.763 214.816 323.522 214.652 323.307 214.449C323.104 214.246 322.939 214.006 322.813 213.727C322.699 213.448 322.642 213.151 322.642 212.834V198.394C322.642 198.077 322.699 197.786 322.813 197.52C322.939 197.241 323.104 197.001 323.307 196.798C323.522 196.583 323.763 196.418 324.029 196.304C324.307 196.177 324.605 196.114 324.922 196.114H324.96C325.276 196.114 325.574 196.177 325.853 196.304C326.131 196.418 326.372 196.583 326.575 196.798C326.777 197.001 326.936 197.241 327.05 197.52C327.176 197.786 327.24 198.077 327.24 198.394V203.429H334.194V198.394ZM341.343 198.394C341.343 198.077 341.4 197.786 341.514 197.52C341.641 197.241 341.806 197.001 342.008 196.798C342.224 196.583 342.464 196.418 342.73 196.304C343.009 196.177 343.307 196.114 343.623 196.114H353.807C354.099 196.114 354.371 196.171 354.624 196.285C354.878 196.399 355.099 196.551 355.289 196.741C355.479 196.931 355.631 197.153 355.745 197.406C355.859 197.659 355.916 197.932 355.916 198.223V198.28C355.916 198.571 355.859 198.844 355.745 199.097C355.631 199.35 355.479 199.572 355.289 199.762C355.099 199.952 354.878 200.104 354.624 200.218C354.371 200.332 354.099 200.389 353.807 200.389H345.884V203.467H352.534C352.813 203.467 353.079 203.524 353.332 203.638C353.586 203.739 353.801 203.885 353.978 204.075C354.168 204.252 354.314 204.468 354.415 204.721C354.529 204.974 354.586 205.24 354.586 205.519V205.576C354.586 205.855 354.529 206.121 354.415 206.374C354.314 206.615 354.168 206.83 353.978 207.02C353.801 207.21 353.586 207.362 353.332 207.476C353.079 207.577 352.813 207.628 352.534 207.628H345.884V210.839H353.807C354.099 210.839 354.371 210.896 354.624 211.01C354.878 211.124 355.099 211.276 355.289 211.466C355.479 211.656 355.631 211.878 355.745 212.131C355.859 212.384 355.916 212.657 355.916 212.948V213.005C355.916 213.296 355.859 213.569 355.745 213.822C355.631 214.075 355.479 214.297 355.289 214.487C355.099 214.677 354.878 214.829 354.624 214.943C354.371 215.057 354.099 215.114 353.807 215.114H343.623C343.307 215.114 343.009 215.057 342.73 214.943C342.464 214.816 342.224 214.652 342.008 214.449C341.806 214.234 341.641 213.993 341.514 213.727C341.4 213.448 341.343 213.151 341.343 212.834V198.394ZM372.851 211.675C373.104 212.042 373.231 212.429 373.231 212.834C373.244 213.239 373.161 213.613 372.984 213.955C372.807 214.284 372.547 214.563 372.205 214.791C371.876 215.006 371.489 215.114 371.046 215.114H370.989C370.622 215.114 370.273 215.032 369.944 214.867C369.627 214.69 369.368 214.449 369.165 214.145L365.84 209.205H363.066V212.834C363.066 213.151 363.003 213.448 362.876 213.727C362.762 213.993 362.597 214.234 362.382 214.449C362.179 214.652 361.939 214.816 361.66 214.943C361.394 215.057 361.103 215.114 360.786 215.114H360.748C360.431 215.114 360.134 215.057 359.855 214.943C359.589 214.816 359.348 214.652 359.133 214.449C358.93 214.234 358.766 213.993 358.639 213.727C358.525 213.448 358.468 213.151 358.468 212.834V198.394C358.468 198.077 358.525 197.786 358.639 197.52C358.766 197.241 358.93 197.001 359.133 196.798C359.348 196.583 359.589 196.418 359.855 196.304C360.134 196.177 360.431 196.114 360.748 196.114H367.17C368.361 196.114 369.425 196.279 370.362 196.608C371.312 196.937 372.11 197.425 372.756 198.071C373.858 199.173 374.409 200.642 374.409 202.479V202.517C374.409 203.898 374.092 205.101 373.459 206.127C372.838 207.153 371.901 207.932 370.647 208.464L372.851 211.675ZM369.754 202.688C369.754 202.169 369.653 201.757 369.45 201.453C369.247 201.136 368.994 200.896 368.69 200.731C368.399 200.554 368.082 200.44 367.74 200.389C367.411 200.338 367.107 200.313 366.828 200.313H363.066V205.082H366.904C367.816 205.082 368.519 204.879 369.013 204.474C369.507 204.056 369.754 203.48 369.754 202.745V202.688Z" fill="#E8E8E8"/>
<path d="M197.648 40.936C198.352 39.816 199.28 38.936 200.432 38.296C201.584 37.624 202.832 37.288 204.176 37.288H204.32C205.376 37.288 206.368 37.496 207.296 37.912C208.224 38.296 209.04 38.84 209.744 39.544C210.448 40.248 210.992 41.064 211.376 41.992C211.792 42.92 212 43.912 212 44.968V79.576C212 80.376 211.84 81.128 211.52 81.832C211.232 82.504 210.832 83.096 210.32 83.608C209.808 84.12 209.2 84.536 208.496 84.856C207.824 85.144 207.088 85.288 206.288 85.288H206.096C205.328 85.288 204.592 85.144 203.888 84.856C203.216 84.568 202.624 84.168 202.112 83.656C201.6 83.144 201.2 82.552 200.912 81.88C200.624 81.208 200.48 80.488 200.48 79.72V56.392L188.624 74.392C188.432 74.648 188.176 74.776 187.856 74.776C187.536 74.776 187.296 74.648 187.136 74.392L175.424 56.584V79.624C175.424 80.424 175.264 81.176 174.944 81.88C174.656 82.552 174.256 83.144 173.744 83.656C173.232 84.168 172.624 84.568 171.92 84.856C171.248 85.144 170.528 85.288 169.76 85.288H169.664C168.896 85.288 168.16 85.144 167.456 84.856C166.784 84.536 166.192 84.12 165.68 83.608C165.168 83.096 164.752 82.504 164.432 81.832C164.144 81.128 164 80.392 164 79.624V44.968C164 43.912 164.192 42.92 164.576 41.992C164.992 41.064 165.552 40.248 166.256 39.544C166.96 38.84 167.776 38.296 168.704 37.912C169.632 37.496 170.624 37.288 171.68 37.288H171.824C173.168 37.288 174.416 37.624 175.568 38.296C176.72 38.936 177.648 39.816 178.352 40.936L188 56.44L197.648 40.936ZM218.418 43C218.418 42.2 218.562 41.464 218.85 40.792C219.17 40.088 219.586 39.48 220.098 38.968C220.642 38.456 221.25 38.056 221.922 37.768C222.626 37.448 223.378 37.288 224.178 37.288H224.274C225.074 37.288 225.81 37.448 226.482 37.768C227.186 38.056 227.794 38.456 228.306 38.968C228.85 39.48 229.266 40.088 229.554 40.792C229.874 41.464 230.034 42.2 230.034 43V79.528C230.034 80.328 229.874 81.08 229.554 81.784C229.266 82.456 228.85 83.064 228.306 83.608C227.794 84.12 227.186 84.536 226.482 84.856C225.81 85.144 225.074 85.288 224.274 85.288H224.178C223.378 85.288 222.626 85.144 221.922 84.856C221.25 84.536 220.642 84.12 220.098 83.608C219.586 83.064 219.17 82.456 218.85 81.784C218.562 81.08 218.418 80.328 218.418 79.528V43ZM257.005 56.2C259.245 56.776 261.277 57.432 263.101 58.168C264.925 58.904 266.477 59.832 267.757 60.952C269.069 62.04 270.077 63.368 270.781 64.936C271.517 66.472 271.885 68.312 271.885 70.456V70.552C271.885 72.824 271.469 74.872 270.637 76.696C269.837 78.488 268.685 80.024 267.181 81.304C265.677 82.584 263.853 83.576 261.709 84.28C259.565 84.952 257.181 85.288 254.557 85.288C252.285 85.288 250.077 85.048 247.933 84.568C245.789 84.088 243.725 83.368 241.741 82.408C240.877 82.024 240.061 81.592 239.293 81.112C238.589 80.696 238.029 80.168 237.613 79.528C237.197 78.856 236.925 78.152 236.797 77.416C236.669 76.68 236.701 75.944 236.893 75.208C237.085 74.472 237.437 73.784 237.949 73.144L238.045 73.096C238.877 72.072 239.949 71.464 241.261 71.272C242.573 71.048 243.789 71.272 244.909 71.944C245.293 72.2 245.693 72.456 246.109 72.712C246.525 72.936 246.925 73.144 247.309 73.336C248.525 73.944 249.741 74.408 250.957 74.728C252.173 75.016 253.437 75.16 254.749 75.16C256.605 75.16 258.045 74.84 259.069 74.2C260.125 73.56 260.653 72.68 260.653 71.56V71.416C260.653 70.904 260.541 70.44 260.317 70.024C260.125 69.576 259.725 69.16 259.117 68.776C258.509 68.392 257.629 68.008 256.477 67.624C255.357 67.208 253.869 66.76 252.013 66.28C249.805 65.704 247.757 65.08 245.869 64.408C243.981 63.736 242.333 62.872 240.925 61.816C239.549 60.76 238.461 59.432 237.661 57.832C236.861 56.232 236.461 54.2 236.461 51.736V51.64C236.461 49.528 236.861 47.592 237.661 45.832C238.493 44.072 239.629 42.568 241.069 41.32C242.541 40.04 244.285 39.048 246.301 38.344C248.349 37.64 250.589 37.288 253.021 37.288C256.509 37.288 259.741 37.784 262.717 38.776C263.325 38.968 263.885 39.176 264.397 39.4C264.941 39.624 265.453 39.864 265.933 40.12C266.637 40.504 267.213 41 267.661 41.608C268.141 42.216 268.461 42.888 268.621 43.624C268.781 44.328 268.797 45.064 268.669 45.832C268.541 46.568 268.253 47.272 267.805 47.944L267.709 48.04C266.941 49.16 265.901 49.896 264.589 50.248C263.309 50.568 262.061 50.408 260.845 49.768C259.885 49.256 258.877 48.792 257.821 48.376C256.957 48.056 256.125 47.816 255.325 47.656C254.525 47.496 253.709 47.416 252.877 47.416C251.309 47.416 250.045 47.72 249.085 48.328C248.157 48.904 247.693 49.704 247.693 50.728V50.824C247.693 51.4 247.789 51.912 247.981 52.36C248.205 52.776 248.637 53.192 249.277 53.608C249.949 53.992 250.893 54.392 252.109 54.808C253.325 55.224 254.957 55.688 257.005 56.2ZM274.707 42.616C274.707 41.88 274.851 41.192 275.139 40.552C275.427 39.912 275.811 39.352 276.291 38.872C276.771 38.392 277.331 38.008 277.971 37.72C278.611 37.432 279.299 37.288 280.035 37.288H309.363C310.099 37.288 310.787 37.432 311.427 37.72C312.067 38.008 312.627 38.392 313.107 38.872C313.587 39.352 313.971 39.912 314.259 40.552C314.547 41.192 314.691 41.88 314.691 42.616V42.76C314.691 43.496 314.547 44.184 314.259 44.824C313.971 45.464 313.587 46.024 313.107 46.504C312.627 46.984 312.067 47.368 311.427 47.656C310.787 47.944 310.099 48.088 309.363 48.088H300.531V79.528C300.531 80.328 300.371 81.08 300.051 81.784C299.763 82.456 299.347 83.064 298.803 83.608C298.291 84.12 297.683 84.536 296.979 84.856C296.307 85.144 295.571 85.288 294.771 85.288H294.675C293.875 85.288 293.123 85.144 292.419 84.856C291.747 84.536 291.139 84.12 290.595 83.608C290.083 83.064 289.667 82.456 289.347 81.784C289.059 81.08 288.915 80.328 288.915 79.528V48.088H280.035C279.299 48.088 278.611 47.944 277.971 47.656C277.331 47.368 276.771 46.984 276.291 46.504C275.811 46.024 275.427 45.464 275.139 44.824C274.851 44.184 274.707 43.496 274.707 42.76V42.616ZM321.11 43.048C321.11 42.248 321.254 41.512 321.542 40.84C321.862 40.136 322.278 39.528 322.79 39.016C323.334 38.472 323.942 38.056 324.614 37.768C325.318 37.448 326.07 37.288 326.87 37.288H352.598C353.334 37.288 354.022 37.432 354.662 37.72C355.302 38.008 355.862 38.392 356.342 38.872C356.822 39.352 357.206 39.912 357.494 40.552C357.782 41.192 357.926 41.88 357.926 42.616V42.76C357.926 43.496 357.782 44.184 357.494 44.824C357.206 45.464 356.822 46.024 356.342 46.504C355.862 46.984 355.302 47.368 354.662 47.656C354.022 47.944 353.334 48.088 352.598 48.088H332.582V55.864H349.382C350.086 55.864 350.758 56.008 351.398 56.296C352.038 56.552 352.582 56.92 353.03 57.4C353.51 57.848 353.878 58.392 354.134 59.032C354.422 59.672 354.566 60.344 354.566 61.048V61.192C354.566 61.896 354.422 62.568 354.134 63.208C353.878 63.816 353.51 64.36 353.03 64.84C352.582 65.32 352.038 65.704 351.398 65.992C350.758 66.248 350.086 66.376 349.382 66.376H332.582V74.488H352.598C353.334 74.488 354.022 74.632 354.662 74.92C355.302 75.208 355.862 75.592 356.342 76.072C356.822 76.552 357.206 77.112 357.494 77.752C357.782 78.392 357.926 79.08 357.926 79.816V79.96C357.926 80.696 357.782 81.384 357.494 82.024C357.206 82.664 356.822 83.224 356.342 83.704C355.862 84.184 355.302 84.568 354.662 84.856C354.022 85.144 353.334 85.288 352.598 85.288H326.87C326.07 85.288 325.318 85.144 324.614 84.856C323.942 84.536 323.334 84.12 322.79 83.608C322.278 83.064 321.862 82.456 321.542 81.784C321.254 81.08 321.11 80.328 321.11 79.528V43.048ZM400.708 76.6C401.348 77.528 401.668 78.504 401.668 79.528C401.7 80.552 401.492 81.496 401.044 82.36C400.596 83.192 399.94 83.896 399.076 84.472C398.244 85.016 397.268 85.288 396.148 85.288H396.004C395.076 85.288 394.196 85.08 393.364 84.664C392.564 84.216 391.908 83.608 391.396 82.84L382.996 70.36H375.988V79.528C375.988 80.328 375.828 81.08 375.508 81.784C375.22 82.456 374.804 83.064 374.26 83.608C373.748 84.12 373.14 84.536 372.436 84.856C371.764 85.144 371.028 85.288 370.228 85.288H370.132C369.332 85.288 368.58 85.144 367.876 84.856C367.204 84.536 366.596 84.12 366.052 83.608C365.54 83.064 365.124 82.456 364.804 81.784C364.516 81.08 364.372 80.328 364.372 79.528V43.048C364.372 42.248 364.516 41.512 364.804 40.84C365.124 40.136 365.54 39.528 366.052 39.016C366.596 38.472 367.204 38.056 367.876 37.768C368.58 37.448 369.332 37.288 370.132 37.288H386.356C389.364 37.288 392.052 37.704 394.42 38.536C396.82 39.368 398.836 40.6 400.468 42.232C403.252 45.016 404.644 48.728 404.644 53.368V53.464C404.644 56.952 403.844 59.992 402.244 62.584C400.676 65.176 398.308 67.144 395.14 68.488L400.708 76.6ZM392.884 53.896C392.884 52.584 392.628 51.544 392.116 50.776C391.604 49.976 390.964 49.368 390.196 48.952C389.46 48.504 388.66 48.216 387.796 48.088C386.964 47.96 386.196 47.896 385.492 47.896H375.988V59.944H385.684C387.988 59.944 389.764 59.432 391.012 58.408C392.26 57.352 392.884 55.896 392.884 54.04V53.896Z" fill="#E8E8E8"/>
<path d="M197.648 108.971C198.352 107.851 199.28 106.971 200.432 106.331C201.584 105.659 202.832 105.323 204.176 105.323H204.32C205.376 105.323 206.368 105.531 207.296 105.947C208.224 106.331 209.04 106.875 209.744 107.579C210.448 108.283 210.992 109.099 211.376 110.027C211.792 110.955 212 111.947 212 113.003V147.611C212 148.411 211.84 149.163 211.52 149.867C211.232 150.539 210.832 151.131 210.32 151.643C209.808 152.155 209.2 152.571 208.496 152.891C207.824 153.179 207.088 153.323 206.288 153.323H206.096C205.328 153.323 204.592 153.179 203.888 152.891C203.216 152.603 202.624 152.203 202.112 151.691C201.6 151.179 201.2 150.587 200.912 149.915C200.624 149.243 200.48 148.523 200.48 147.755V124.427L188.624 142.427C188.432 142.683 188.176 142.811 187.856 142.811C187.536 142.811 187.296 142.683 187.136 142.427L175.424 124.619V147.659C175.424 148.459 175.264 149.211 174.944 149.915C174.656 150.587 174.256 151.179 173.744 151.691C173.232 152.203 172.624 152.603 171.92 152.891C171.248 153.179 170.528 153.323 169.76 153.323H169.664C168.896 153.323 168.16 153.179 167.456 152.891C166.784 152.571 166.192 152.155 165.68 151.643C165.168 151.131 164.752 150.539 164.432 149.867C164.144 149.163 164 148.427 164 147.659V113.003C164 111.947 164.192 110.955 164.576 110.027C164.992 109.099 165.552 108.283 166.256 107.579C166.96 106.875 167.776 106.331 168.704 105.947C169.632 105.531 170.624 105.323 171.68 105.323H171.824C173.168 105.323 174.416 105.659 175.568 106.331C176.72 106.971 177.648 107.851 178.352 108.971L188 124.475L197.648 108.971ZM218.418 111.083C218.418 110.283 218.562 109.547 218.85 108.875C219.17 108.171 219.586 107.563 220.098 107.051C220.642 106.507 221.25 106.091 221.922 105.803C222.626 105.483 223.378 105.323 224.178 105.323H249.906C250.642 105.323 251.33 105.467 251.97 105.755C252.61 106.043 253.17 106.427 253.65 106.907C254.13 107.387 254.514 107.947 254.802 108.587C255.09 109.227 255.234 109.915 255.234 110.651V110.795C255.234 111.531 255.09 112.219 254.802 112.859C254.514 113.499 254.13 114.059 253.65 114.539C253.17 115.019 252.61 115.403 251.97 115.691C251.33 115.979 250.642 116.123 249.906 116.123H229.89V123.899H246.69C247.394 123.899 248.066 124.043 248.706 124.331C249.346 124.587 249.89 124.955 250.338 125.435C250.818 125.883 251.186 126.427 251.442 127.067C251.73 127.707 251.874 128.379 251.874 129.083V129.227C251.874 129.931 251.73 130.603 251.442 131.243C251.186 131.851 250.818 132.395 250.338 132.875C249.89 133.355 249.346 133.739 248.706 134.027C248.066 134.283 247.394 134.411 246.69 134.411H229.89V142.523H249.906C250.642 142.523 251.33 142.667 251.97 142.955C252.61 143.243 253.17 143.627 253.65 144.107C254.13 144.587 254.514 145.147 254.802 145.787C255.09 146.427 255.234 147.115 255.234 147.851V147.995C255.234 148.731 255.09 149.419 254.802 150.059C254.514 150.699 254.13 151.259 253.65 151.739C253.17 152.219 252.61 152.603 251.97 152.891C251.33 153.179 250.642 153.323 249.906 153.323H224.178C223.378 153.323 222.626 153.179 221.922 152.891C221.25 152.571 220.642 152.155 220.098 151.643C219.586 151.099 219.17 150.491 218.85 149.819C218.562 149.115 218.418 148.363 218.418 147.563V111.083ZM269.729 131.147C269.825 132.299 270.145 133.467 270.689 134.651C271.041 135.483 271.457 136.251 271.937 136.955C272.417 137.659 272.961 138.331 273.569 138.971C274.721 140.187 276.193 141.163 277.985 141.899C279.617 142.603 281.505 142.955 283.649 142.955C285.761 142.955 287.617 142.603 289.217 141.899C290.945 141.195 292.417 140.235 293.633 139.019C294.881 137.835 295.857 136.411 296.561 134.747C297.233 133.115 297.569 131.355 297.569 129.467V129.371C297.569 127.547 297.217 125.803 296.513 124.139C296.161 123.307 295.745 122.539 295.265 121.835C294.817 121.131 294.273 120.459 293.633 119.819C292.385 118.571 290.897 117.595 289.169 116.891C287.409 116.155 285.537 115.787 283.553 115.787C281.633 115.787 279.761 116.155 277.937 116.891C276.241 117.627 274.769 118.587 273.521 119.771C272.369 120.923 271.409 122.347 270.641 124.043C270.193 125.099 269.889 126.299 269.729 127.643L269.681 128.171C269.585 128.907 269.585 129.643 269.681 130.379L269.729 131.147ZM258.305 129.275C258.305 125.851 258.929 122.651 260.177 119.675C261.425 116.763 263.185 114.171 265.457 111.899C266.577 110.779 267.793 109.787 269.105 108.923C270.449 108.059 271.889 107.307 273.425 106.667C276.593 105.355 279.985 104.699 283.601 104.699C285.425 104.667 287.169 104.827 288.833 105.179C290.529 105.531 292.161 106.027 293.729 106.667C296.833 107.979 299.521 109.755 301.793 111.995C304.001 114.171 305.761 116.779 307.073 119.819C308.161 122.347 308.769 124.955 308.897 127.643L308.945 128.267C308.977 128.619 308.993 128.955 308.993 129.275C308.993 129.595 308.993 129.931 308.993 130.283L308.945 131.147C308.913 132.587 308.737 133.963 308.417 135.275C308.097 136.587 307.665 137.867 307.121 139.115C305.873 142.027 304.113 144.619 301.841 146.891C299.601 149.067 296.945 150.811 293.873 152.123C290.833 153.403 287.441 154.043 283.697 154.043C279.953 154.043 276.561 153.403 273.521 152.123C270.449 150.843 267.777 149.067 265.505 146.795C263.297 144.619 261.537 142.011 260.225 138.971C258.945 135.963 258.305 132.763 258.305 129.371V129.275ZM322.404 109.403L330.276 135.227L338.676 109.835C339.124 108.491 339.924 107.403 341.076 106.571C342.228 105.739 343.524 105.323 344.964 105.323H345.06C346.5 105.323 347.796 105.739 348.948 106.571C350.1 107.403 350.9 108.491 351.348 109.835L359.7 135.227L367.62 109.499C367.972 108.283 368.644 107.307 369.636 106.571C370.66 105.835 371.796 105.467 373.044 105.467H373.188C374.148 105.467 375.028 105.691 375.828 106.139C376.66 106.555 377.316 107.115 377.796 107.819C378.308 108.523 378.644 109.339 378.804 110.267C378.964 111.163 378.884 112.075 378.564 113.003L366.468 148.715C366.02 150.091 365.204 151.211 364.02 152.075C362.836 152.907 361.508 153.323 360.036 153.323H359.94C358.5 153.323 357.188 152.907 356.004 152.075C354.82 151.243 354.004 150.139 353.556 148.763L345.108 124.427L336.756 148.715C336.308 150.123 335.492 151.243 334.308 152.075C333.124 152.907 331.796 153.323 330.324 153.323H330.228C328.756 153.323 327.428 152.907 326.244 152.075C325.06 151.211 324.244 150.091 323.796 148.715L311.652 112.859C311.364 111.963 311.284 111.067 311.412 110.171C311.572 109.275 311.908 108.491 312.42 107.819C312.932 107.115 313.572 106.555 314.34 106.139C315.14 105.691 316.02 105.467 316.98 105.467H317.076C318.292 105.467 319.396 105.835 320.388 106.571C321.38 107.275 322.052 108.219 322.404 109.403Z" fill="#E8E8E8"/>
<ellipse cx="74.0699" cy="95.5515" rx="71.6637" ry="57.3997" fill="white"/>
<path d="M26.0669 1.07257C22.5123 5.12604 15.6526 24.7698 8.48109 51.4603C7.23387 55.8879 5.98666 60.8768 5.67485 62.4358C5.30068 64.0572 4.73944 66.1151 4.36527 67.0505C2.99333 70.6051 0 87.692 0 91.8078C0 100.414 3.80402 112.886 8.60582 120.057C11.4121 124.298 15.0914 128.663 18.7083 132.093C24.1961 137.331 23.6972 137.394 28.1872 130.971C30.3698 127.852 33.176 123.861 34.4233 122.053C35.6705 120.244 37.3542 117.937 38.0402 116.939C38.7885 115.879 40.4099 113.634 41.6571 111.888C42.9044 110.142 45.5235 106.525 47.3944 103.906C50.5748 99.4159 57.4968 90.1241 60.6772 86.0082C66.851 77.9013 72.9624 71.104 74.0225 71.104C75.7062 71.104 91.2965 90.1241 100.401 103.282C105.515 110.641 119.546 130.472 120.17 131.282C120.481 131.594 121.354 132.966 122.165 134.213C122.914 135.523 123.787 136.583 124.098 136.583C125.159 136.583 133.577 128.164 136.758 123.924C141.123 118.124 143.804 112.761 146.049 105.465C147.546 100.351 147.796 98.5428 147.796 91.7455C147.796 83.8256 147.733 83.3891 143.992 68.2977C138.753 46.9079 130.459 18.4089 127.902 12.7964C124.285 5.00131 122.664 1.82091 121.853 1.01021C119.484 -1.42186 115.43 1.01021 111.065 7.4334C108.321 11.4245 101.15 25.1439 99.4658 29.5092C98.8422 31.1306 98.0938 32.6272 97.8444 32.8143C97.5326 32.939 95.7241 32.6896 93.7286 32.1907C82.3789 29.2597 62.7975 29.5715 51.9467 32.752C50.6995 33.1261 50.2006 32.3154 45.96 23.5849C40.9088 13.2953 35.9823 5.25076 32.6772 2.008C30.3698 -0.237 27.5636 -0.673538 26.0669 1.07257ZM37.0424 50.899C38.2273 52.0839 38.2896 52.5204 37.2919 53.5182C35.7328 55.0772 30.5569 54.1418 30.5569 52.3333C30.5569 51.2732 32.6772 49.9012 34.2985 49.9012C35.2963 49.9012 36.5435 50.3378 37.0424 50.899ZM116.49 50.6496C117.738 51.8968 117.363 53.5805 115.742 54.0171C113.497 54.5783 111.501 54.0794 110.753 52.8322C110.192 51.8968 110.317 51.5226 111.252 50.7743C112.749 49.7141 115.493 49.6518 116.49 50.6496ZM132.081 70.1062C134.513 72.3512 134.388 73.536 131.457 77.9013C124.535 88.0662 115.368 91.1218 105.016 86.6942C101.025 84.9481 96.6595 81.8301 96.6595 80.6452C96.6595 79.6474 100.214 72.7877 102.085 70.1686C103.332 68.4848 104.33 68.1106 103.769 69.4826C103.582 69.9815 103.706 71.9147 104.08 73.8479C106.263 85.7588 118.112 88.6898 123.911 78.712C125.47 76.0928 125.657 75.1574 125.657 70.3556V64.9302L127.84 66.5516C129.025 67.4247 130.958 69.0461 132.081 70.1062ZM22.2629 69.9815C22.2005 76.2799 24.4455 80.8946 28.6861 83.5138C32.6148 85.8835 37.6037 84.8857 40.9088 81.2064C42.6549 79.2109 44.2763 74.3467 44.2763 70.8545L44.3387 68.2977L45.5859 69.7944C47.0825 71.6029 50.8242 78.3378 51.3855 80.271C52.2585 83.0149 40.9712 88.565 34.2985 88.7521C27.8754 88.8769 21.5769 85.0105 16.8998 78.026C13.2829 72.663 13.2829 72.8501 17.5858 68.9213C19.7061 67.0505 21.5769 65.4915 21.8263 65.4915C22.0758 65.4915 22.2629 67.5494 22.2629 69.9815Z" fill="black"/>
<path d="M70.1554 86.5073C68.7211 86.8815 67.3491 87.8792 67.3491 88.5652C67.3491 88.7523 68.4716 90.1866 69.9059 91.7456C72.7745 94.8013 72.7745 96.3603 70.0306 98.9171C68.1598 100.663 64.5429 100.913 62.6097 99.4784C59.3669 97.0463 59.1798 100.04 62.4226 103.033C65.1665 105.652 69.0329 105.278 72.338 102.16L73.897 100.663L76.5785 102.721C80.1331 105.465 82.7523 105.465 85.7456 102.846C87.1175 101.599 87.9282 100.351 87.9282 99.416V97.857L86.0574 99.2913C82.3157 102.035 77.3269 100.289 76.3915 95.9862C76.0796 94.4895 76.3915 93.8035 78.1999 91.8703C79.4471 90.5608 80.4449 89.0017 80.4449 88.4405C80.4449 86.6944 74.2712 85.5095 70.1554 86.5073Z" fill="black"/>
<path d="M48.3923 136.147C45.3366 139.203 43.2163 150.926 44.2765 159.158C45.4613 168.637 47.9558 174 51.2609 174C53.8177 174 57.9335 171.63 63.7955 166.766C71.84 160.156 73.1496 159.47 75.8935 160.592C77.702 161.341 81.4436 164.209 85.6842 167.951C88.6151 170.57 93.4169 173.314 95.5372 173.688C97.5951 174.062 98.094 173.875 99.653 172.316C105.889 166.08 105.266 139.826 98.8423 135.586C96.4103 134.027 93.4793 134.962 88.1163 139.078C85.4347 141.073 82.4414 143.505 81.3813 144.379C80.3835 145.314 78.2632 146.748 76.8289 147.621C74.2721 149.18 74.0227 149.18 72.1518 148.245C71.0293 147.746 67.6618 145.189 64.5438 142.57C58.7442 137.581 53.8177 134.713 51.3233 134.713C50.5126 134.713 49.203 135.399 48.3923 136.147Z" fill="black"/>
</svg>
