<svg width="37" height="44" viewBox="0 0 37 44" fill="none" xmlns="http://www.w3.org/2000/svg">
<ellipse cx="18.5423" cy="23.921" rx="17.9407" ry="14.3698" fill="white"/>
<path d="M6.52574 0.268401C5.63586 1.28317 3.91857 6.20089 2.12321 12.8827C1.81097 13.9912 1.49873 15.2401 1.42068 15.6304C1.327 16.0363 1.1865 16.5515 1.09283 16.7857C0.749367 17.6756 0 21.9532 0 22.9836C0 25.138 0.952321 28.2604 2.15443 30.0557C2.85696 31.1173 3.77806 32.2102 4.68354 33.0688C6.05738 34.3802 5.93249 34.3958 7.05654 32.7878C7.60295 32.0072 8.30549 31.0081 8.61772 30.5553C8.92996 30.1026 9.35148 29.5249 9.52321 29.2751C9.71055 29.0097 10.1165 28.4477 10.4287 28.0106C10.7409 27.5735 11.3966 26.668 11.865 26.0123C12.6612 24.8882 14.3941 22.5621 15.1903 21.5317C16.7359 19.5022 18.2658 17.8005 18.5312 17.8005C18.9527 17.8005 22.8557 22.5621 25.135 25.8562C26.4152 27.6984 29.9278 32.6629 30.084 32.8659C30.162 32.9439 30.3806 33.2874 30.5835 33.5996C30.7709 33.9275 30.9895 34.1929 31.0675 34.1929C31.3329 34.1929 33.4405 32.0853 34.2367 31.0237C35.3295 29.5718 36.0008 28.2292 36.5629 26.4026C36.9376 25.1224 37 24.6697 37 22.968C37 20.9853 36.9844 20.876 36.0477 17.0979C34.7363 11.7431 32.6599 4.60848 32.0198 3.20342C31.1143 1.25194 30.7084 0.455742 30.5055 0.252789C29.9122 -0.356072 28.8975 0.252789 27.8046 1.86081C27.1177 2.85996 25.3224 6.29456 24.9008 7.38739C24.7447 7.79329 24.5574 8.16798 24.4949 8.21481C24.4169 8.24604 23.9641 8.18359 23.4646 8.0587C20.6232 7.32494 15.7211 7.403 13.0046 8.1992C12.6924 8.29287 12.5675 8.08992 11.5059 5.90427C10.2414 3.32832 9.00802 1.31439 8.18059 0.502578C7.60295 -0.0594475 6.90042 -0.16873 6.52574 0.268401ZM9.27342 12.7422C9.57004 13.0389 9.58565 13.1481 9.33586 13.3979C8.94557 13.7882 7.64979 13.5541 7.64979 13.1013C7.64979 12.8359 8.18059 12.4925 8.5865 12.4925C8.83629 12.4925 9.14852 12.6017 9.27342 12.7422ZM29.1629 12.6798C29.4751 12.992 29.3814 13.4135 28.9755 13.5228C28.4135 13.6633 27.9139 13.5384 27.7266 13.2262C27.5861 12.992 27.6173 12.8984 27.8515 12.711C28.2262 12.4456 28.9131 12.43 29.1629 12.6798ZM33.0658 17.5507C33.6747 18.1127 33.6435 18.4093 32.9097 19.5022C31.1768 22.0469 28.8819 22.8119 26.2903 21.7034C25.2911 21.2663 24.1983 20.4857 24.1983 20.1891C24.1983 19.9393 25.0882 18.222 25.5565 17.5663C25.8688 17.1448 26.1186 17.0511 25.9781 17.3946C25.9312 17.5195 25.9624 18.0034 26.0561 18.4874C26.6025 21.4692 29.5688 22.203 31.0207 19.7051C31.411 19.0494 31.4578 18.8152 31.4578 17.6131V16.2549L32.0042 16.6608C32.3008 16.8794 32.7848 17.2853 33.0658 17.5507ZM5.57342 17.5195C5.55781 19.0962 6.11983 20.2515 7.18143 20.9072C8.16498 21.5005 9.41392 21.2507 10.2414 20.3296C10.6785 19.83 11.0844 18.6123 11.0844 17.738L11.1 17.0979L11.4122 17.4726C11.7869 17.9254 12.7236 19.6114 12.8641 20.0954C13.0827 20.7823 10.257 22.1718 8.5865 22.2186C6.97848 22.2498 5.40169 21.2819 4.2308 19.5334C3.32532 18.1908 3.32532 18.2376 4.40253 17.2541C4.93333 16.7857 5.40169 16.3954 5.46414 16.3954C5.52658 16.3954 5.57342 16.9106 5.57342 17.5195Z" fill="black"/>
<path d="M17.5628 21.6566C17.2038 21.7503 16.8603 22.0001 16.8603 22.1718C16.8603 22.2187 17.1413 22.5777 17.5004 22.968C18.2185 23.733 18.2185 24.1233 17.5316 24.7634C17.0633 25.2005 16.1578 25.263 15.6738 24.9039C14.862 24.295 14.8152 25.0444 15.627 25.7938C16.3139 26.4495 17.2818 26.3558 18.1092 25.5752L18.4995 25.2005L19.1708 25.7157C20.0607 26.4026 20.7164 26.4026 21.4658 25.7469C21.8092 25.4347 22.0122 25.1225 22.0122 24.8883V24.498L21.5438 24.8571C20.6071 25.544 19.3582 25.1068 19.124 24.0296C19.046 23.6549 19.124 23.4832 19.5768 22.9992C19.889 22.6714 20.1388 22.2811 20.1388 22.1406C20.1388 21.7035 18.5932 21.4068 17.5628 21.6566Z" fill="black"/>
<path d="M12.1152 34.0837C11.3502 34.8487 10.8194 37.7837 11.0848 39.8444C11.3815 42.2174 12.0059 43.5601 12.8334 43.5601C13.4734 43.5601 14.5038 42.9668 15.9713 41.7491C17.9853 40.0942 18.3131 39.9225 19 40.2035C19.4528 40.3909 20.3895 41.109 21.4511 42.0457C22.1848 42.7014 23.3869 43.3883 23.9178 43.482C24.4329 43.5757 24.5578 43.5288 24.9481 43.1385C26.5093 41.5774 26.3532 35.0048 24.7452 33.9432C24.1363 33.5529 23.4026 33.7871 22.0599 34.8174C21.3886 35.317 20.6393 35.9259 20.3739 36.1444C20.1241 36.3786 19.5933 36.7377 19.2342 36.9563C18.5941 37.3466 18.5317 37.3466 18.0633 37.1124C17.7823 36.9875 16.9393 36.3474 16.1587 35.6917C14.7068 34.4428 13.4734 33.7246 12.849 33.7246C12.646 33.7246 12.3182 33.8963 12.1152 34.0837Z" fill="#DB3328"/>
</svg>
