<svg width="128" height="150" viewBox="0 0 128 150" fill="none" xmlns="http://www.w3.org/2000/svg">
<path d="M22.4715 0.924751C19.4072 4.41912 13.4936 21.3534 7.31129 44.3624C6.2361 48.1794 5.16091 52.4801 4.89211 53.8241C4.56956 55.2218 4.08572 56.9959 3.76316 57.8023C2.58046 60.8666 0 75.5967 0 79.1448C0 86.5636 3.27933 97.3155 7.41881 103.498C9.83799 107.154 13.0098 110.917 16.1278 113.873C20.8587 118.389 20.4286 118.443 24.2993 112.906C26.1809 110.218 28.6001 106.777 29.6752 105.218C30.7504 103.659 32.2019 101.67 32.7933 100.81C33.4384 99.896 34.8362 97.9606 35.9113 96.4554C36.9865 94.9501 39.2444 91.8321 40.8572 89.5742C43.599 85.7035 49.5663 77.6933 52.308 74.1452C57.6302 67.1565 62.8986 61.2967 63.8125 61.2967C65.264 61.2967 78.7039 77.6933 86.5528 89.0366C90.9611 95.3802 103.057 112.476 103.595 113.175C103.863 113.443 104.616 114.626 105.315 115.701C105.96 116.83 106.713 117.744 106.981 117.744C107.895 117.744 115.153 110.487 117.895 106.831C121.658 101.831 123.969 97.208 125.905 90.9182C127.195 86.5099 127.41 84.9508 127.41 79.0911C127.41 72.2636 127.356 71.8873 124.131 58.8775C119.615 40.438 112.465 15.8699 110.261 11.0315C107.143 4.3116 105.745 1.56987 105.046 0.870995C103.003 -1.22562 99.5088 0.870995 95.7457 6.40823C93.3802 9.84883 87.1979 21.6759 85.7464 25.4391C85.2088 26.8368 84.5637 28.1271 84.3486 28.2883C84.0798 28.3959 82.5208 28.1808 80.8005 27.7507C71.0163 25.224 54.1358 25.4928 44.7817 28.2346C43.7065 28.5571 43.2764 27.8583 39.6208 20.3319C35.2662 11.4616 31.0192 4.52664 28.17 1.73115C26.1809 -0.204193 23.7617 -0.580513 22.4715 0.924751ZM31.9331 43.8786C32.9546 44.9 33.0083 45.2763 32.1482 46.1365C30.8042 47.4805 26.3422 46.6741 26.3422 45.1151C26.3422 44.2011 28.17 43.0184 29.5677 43.0184C30.4279 43.0184 31.5031 43.3948 31.9331 43.8786ZM100.423 43.6636C101.498 44.7387 101.175 46.1903 99.7776 46.5666C97.8423 47.0504 96.122 46.6203 95.4769 45.5451C94.993 44.7387 95.1005 44.4162 95.9069 43.7711C97.1972 42.8572 99.5626 42.8034 100.423 43.6636ZM113.863 60.4365C115.959 62.3719 115.852 63.3933 113.325 67.1565C107.358 75.9193 99.4551 78.5535 90.531 74.7365C87.0904 73.2313 83.3272 70.5433 83.3272 69.5219C83.3272 68.6617 86.3915 62.7482 88.0043 60.4903C89.0795 59.0388 89.9396 58.7162 89.4558 59.8989C89.2945 60.329 89.402 61.9955 89.7246 63.6621C91.6062 73.9301 101.82 76.4568 106.82 67.8553C108.164 65.5974 108.325 64.791 108.325 60.6516V55.9745L110.207 57.3722C111.228 58.1249 112.895 59.5226 113.863 60.4365ZM19.1921 60.329C19.1384 65.7587 21.0737 69.7369 24.7294 71.9948C28.1162 74.0377 32.417 73.1775 35.2662 70.0057C36.7715 68.2854 38.1692 64.0922 38.1692 61.0816L38.223 58.8775L39.2982 60.1677C40.5884 61.7267 43.814 67.5328 44.2978 69.1993C45.0505 71.5647 35.32 76.3493 29.5677 76.5106C24.0305 76.6181 18.6008 73.285 14.5688 67.264C11.4508 62.6407 11.4508 62.8019 15.1602 59.4151C16.988 57.8023 18.6008 56.4583 18.8158 56.4583C19.0309 56.4583 19.1921 58.2324 19.1921 60.329Z" fill="black"/>
<path d="M60.4788 74.5756C59.2424 74.8982 58.0596 75.7583 58.0596 76.3497C58.0596 76.511 59.0273 77.7474 60.2638 79.0914C62.7367 81.7256 62.7367 83.0696 60.3713 85.2738C58.7585 86.779 55.6405 86.9941 53.9739 85.7576C51.1784 83.661 51.0172 86.2414 53.8126 88.8219C56.1781 91.0798 59.5112 90.7572 62.3604 88.0692L63.7044 86.779L66.0161 88.5531C69.0803 90.9185 71.3382 90.9185 73.9187 88.6606C75.1014 87.5854 75.8003 86.5102 75.8003 85.7038V84.3598L74.1875 85.5963C70.9619 87.9617 66.6612 86.4565 65.8548 82.7471C65.586 81.4568 65.8548 80.8655 67.4138 79.1989C68.489 78.07 69.3491 76.726 69.3491 76.2422C69.3491 74.7369 64.027 73.7155 60.4788 74.5756Z" fill="black"/>
<path d="M41.7181 117.368C39.0839 120.002 37.2561 130.109 38.17 137.205C39.1914 145.377 41.3418 150 44.191 150C46.3952 150 49.9433 147.957 54.9967 143.764C61.9317 138.065 63.0606 137.474 65.426 138.442C66.9851 139.087 70.2106 141.56 73.8663 144.785C76.393 147.043 80.5325 149.409 82.3603 149.731C84.1343 150.054 84.5644 149.892 85.9084 148.548C91.2844 143.173 90.7468 120.54 85.2095 116.884C83.1129 115.54 80.5862 116.347 75.9629 119.895C73.6512 121.615 71.0708 123.712 70.1569 124.464C69.2967 125.271 67.4689 126.507 66.2324 127.26C64.0283 128.604 63.8133 128.604 62.2005 127.797C61.2328 127.367 58.3298 125.163 55.6418 122.905C50.6422 118.604 46.3952 116.132 44.2448 116.132C43.5459 116.132 42.417 116.723 41.7181 117.368Z" fill="#DB3328"/>
</svg>
