<svg width="128" height="150" viewBox="0 0 128 150" fill="none" xmlns="http://www.w3.org/2000/svg">
<ellipse cx="63.8532" cy="82.3726" rx="61.779" ry="49.4825" fill="white"/>
<path d="M22.4715 0.925293C19.4072 4.41965 13.4936 21.3539 7.31129 44.3629C6.2361 48.1799 5.16091 52.4806 4.89211 53.8246C4.56956 55.2224 4.08572 56.9964 3.76316 57.8028C2.58045 60.8671 0 75.5972 0 79.1453C0 86.5641 3.27933 97.316 7.41881 103.498C9.83798 107.154 13.0098 110.917 16.1278 113.874C20.8587 118.39 20.4286 118.444 24.2993 112.906C26.1809 110.218 28.6 106.778 29.6752 105.219C30.7504 103.66 32.2019 101.671 32.7933 100.81C33.4384 99.8965 34.8361 97.9611 35.9113 96.4559C36.9865 94.9506 39.2444 91.8326 40.8572 89.5747C43.5989 85.704 49.5662 77.6938 52.308 74.1457C57.6302 67.157 62.8986 61.2972 63.8125 61.2972C65.264 61.2972 78.7039 77.6938 86.5528 89.0371C90.961 95.3807 103.057 112.476 103.595 113.175C103.863 113.444 104.616 114.627 105.315 115.702C105.96 116.831 106.713 117.745 106.981 117.745C107.895 117.745 115.153 110.487 117.895 106.831C121.658 101.832 123.969 97.2085 125.905 90.9187C127.195 86.5104 127.41 84.9514 127.41 79.0916C127.41 72.2641 127.356 71.8878 124.131 58.878C119.615 40.4385 112.465 15.8704 110.261 11.0321C107.143 4.31214 105.745 1.5704 105.046 0.871529C103.003 -1.22509 99.5088 0.871529 95.7456 6.40876C93.3802 9.84937 87.1979 21.6764 85.7464 25.4396C85.2088 26.8374 84.5637 28.1276 84.3486 28.2889C84.0798 28.3964 82.5208 28.1813 80.8005 27.7513C71.0163 25.2246 54.1358 25.4934 44.7816 28.2351C43.7065 28.5577 43.2764 27.8588 39.6207 20.3325C35.2662 11.4622 31.0192 4.52718 28.17 1.73168C26.1809 -0.203659 23.7617 -0.579971 22.4715 0.925293ZM31.9331 43.8791C32.9546 44.9005 33.0083 45.2769 32.1482 46.137C30.8042 47.481 26.3421 46.6746 26.3421 45.1156C26.3421 44.2017 28.17 43.019 29.5677 43.019C30.4279 43.019 31.5031 43.3953 31.9331 43.8791ZM100.423 43.6641C101.498 44.7393 101.175 46.1908 99.7776 46.5671C97.8422 47.0509 96.1219 46.6208 95.4768 45.5457C94.993 44.7393 95.1005 44.4167 95.9069 43.7716C97.1971 42.8577 99.5625 42.8039 100.423 43.6641ZM113.863 60.437C115.959 62.3724 115.852 63.3938 113.325 67.157C107.358 75.9198 99.455 78.554 90.531 74.737C87.0903 73.2318 83.3272 70.5438 83.3272 69.5224C83.3272 68.6622 86.3915 62.7487 88.0043 60.4908C89.0795 59.0393 89.9396 58.7167 89.4558 59.8994C89.2945 60.3295 89.402 61.9961 89.7246 63.6626C91.6061 73.9307 101.82 76.4574 106.82 67.8558C108.164 65.5979 108.325 64.7915 108.325 60.6521V55.975L110.207 57.3727C111.228 58.1254 112.895 59.5231 113.863 60.437ZM19.1921 60.3295C19.1384 65.7592 21.0737 69.7374 24.7294 71.9953C28.1162 74.0382 32.417 73.178 35.2662 70.0062C36.7715 68.2859 38.1692 64.0927 38.1692 61.0821L38.223 58.878L39.2982 60.1682C40.5884 61.7273 43.814 67.5333 44.2978 69.1998C45.0504 71.5652 35.32 76.3498 29.5677 76.5111C24.0305 76.6186 18.6008 73.2855 14.5688 67.2645C11.4508 62.6412 11.4508 62.8024 15.1602 59.4156C16.988 57.8028 18.6008 56.4588 18.8158 56.4588C19.0309 56.4588 19.1921 58.2329 19.1921 60.3295Z" fill="black"/>
<path d="M60.4788 74.5756C59.2424 74.8982 58.0596 75.7583 58.0596 76.3497C58.0596 76.511 59.0273 77.7474 60.2638 79.0914C62.7367 81.7256 62.7367 83.0696 60.3713 85.2738C58.7585 86.779 55.6405 86.9941 53.9739 85.7576C51.1784 83.661 51.0172 86.2414 53.8126 88.8219C56.1781 91.0798 59.5112 90.7572 62.3604 88.0692L63.7044 86.779L66.016 88.5531C69.0803 90.9185 71.3382 90.9185 73.9187 88.6606C75.1014 87.5854 75.8003 86.5102 75.8003 85.7038V84.3598L74.1875 85.5963C70.9619 87.9617 66.6612 86.4565 65.8548 82.7471C65.586 81.4568 65.8548 80.8655 67.4138 79.1989C68.489 78.07 69.3491 76.726 69.3491 76.2422C69.3491 74.7369 64.0269 73.7155 60.4788 74.5756Z" fill="black"/>
<path d="M41.7181 117.368C39.0839 120.003 37.2561 130.109 38.17 137.206C39.1914 145.377 41.3418 150 44.191 150C46.3952 150 49.9433 147.958 54.9967 143.764C61.9317 138.066 63.0606 137.475 65.426 138.442C66.9851 139.087 70.2106 141.56 73.8663 144.786C76.393 147.044 80.5325 149.409 82.3603 149.732C84.1343 150.054 84.5644 149.893 85.9084 148.549C91.2843 143.173 90.7468 120.54 85.2095 116.885C83.1129 115.541 80.5862 116.347 75.9629 119.895C73.6512 121.615 71.0708 123.712 70.1569 124.465C69.2967 125.271 67.4689 126.508 66.2324 127.26C64.0283 128.604 63.8132 128.604 62.2005 127.798C61.2328 127.368 58.3298 125.164 55.6418 122.906C50.6422 118.605 46.3952 116.132 44.2448 116.132C43.5459 116.132 42.417 116.723 41.7181 117.368Z" fill="black"/>
</svg>
