<svg width="128" height="150" viewBox="0 0 128 150" fill="none" xmlns="http://www.w3.org/2000/svg">
<path d="M22.4715 0.924995C19.4072 4.41936 13.4936 21.3536 7.31129 44.3627C6.2361 48.1796 5.16091 52.4804 4.89211 53.8243C4.56956 55.2221 4.08572 56.9962 3.76316 57.8025C2.58046 60.8668 0 75.5969 0 79.1451C0 86.5639 3.27933 97.3158 7.41881 103.498C9.83799 107.154 13.0098 110.917 16.1278 113.874C20.8587 118.389 20.4286 118.443 24.2993 112.906C26.1809 110.218 28.6001 106.777 29.6752 105.218C30.7504 103.659 32.2019 101.67 32.7933 100.81C33.4384 99.8962 34.8362 97.9609 35.9113 96.4556C36.9865 94.9504 39.2444 91.8323 40.8572 89.5744C43.599 85.7037 49.5663 77.6936 52.308 74.1454C57.6302 67.1567 62.8986 61.2969 63.8125 61.2969C65.264 61.2969 78.7039 77.6936 86.5528 89.0368C90.9611 95.3804 103.057 112.476 103.595 113.175C103.863 113.444 104.616 114.626 105.315 115.702C105.96 116.83 106.713 117.744 106.981 117.744C107.895 117.744 115.153 110.487 117.895 106.831C121.658 101.832 123.969 97.2083 125.905 90.9184C127.195 86.5101 127.41 84.9511 127.41 79.0913C127.41 72.2639 127.356 71.8875 124.131 58.8777C119.615 40.4382 112.465 15.8701 110.261 11.0318C107.143 4.31184 105.745 1.57011 105.046 0.871239C103.003 -1.22538 99.5088 0.871239 95.7457 6.40847C93.3802 9.84908 87.1979 21.6762 85.7464 25.4393C85.2088 26.8371 84.5637 28.1273 84.3486 28.2886C84.0798 28.3961 82.5208 28.1811 80.8005 27.751C71.0163 25.2243 54.1358 25.4931 44.7817 28.2348C43.7065 28.5574 43.2764 27.8585 39.6208 20.3322C35.2662 11.4619 31.0192 4.52689 28.17 1.73139C26.1809 -0.203949 23.7617 -0.580269 22.4715 0.924995ZM31.9331 43.8788C32.9546 44.9003 33.0083 45.2766 32.1482 46.1367C30.8042 47.4807 26.3422 46.6743 26.3422 45.1153C26.3422 44.2014 28.17 43.0187 29.5677 43.0187C30.4279 43.0187 31.5031 43.395 31.9331 43.8788ZM100.423 43.6638C101.498 44.739 101.175 46.1905 99.7776 46.5668C97.8423 47.0506 96.122 46.6206 95.4769 45.5454C94.993 44.739 95.1005 44.4164 95.9069 43.7713C97.1972 42.8574 99.5626 42.8036 100.423 43.6638ZM113.863 60.4368C115.959 62.3721 115.852 63.3935 113.325 67.1567C107.358 75.9195 99.4551 78.5537 90.531 74.7368C87.0904 73.2315 83.3272 70.5435 83.3272 69.5221C83.3272 68.662 86.3915 62.7484 88.0043 60.4905C89.0795 59.039 89.9396 58.7165 89.4558 59.8992C89.2945 60.3292 89.402 61.9958 89.7246 63.6623C91.6062 73.9304 101.82 76.4571 106.82 67.8556C108.164 65.5977 108.325 64.7913 108.325 60.6518V55.9747L110.207 57.3725C111.228 58.1251 112.895 59.5229 113.863 60.4368ZM19.1921 60.3292C19.1384 65.759 21.0737 69.7372 24.7294 71.9951C28.1162 74.0379 32.417 73.1778 35.2662 70.006C36.7715 68.2856 38.1692 64.0924 38.1692 61.0819L38.223 58.8777L39.2982 60.168C40.5884 61.727 43.814 67.533 44.2978 69.1996C45.0505 71.565 35.32 76.3496 29.5677 76.5108C24.0305 76.6184 18.6008 73.2853 14.5688 67.2642C11.4508 62.6409 11.4508 62.8022 15.1602 59.4153C16.988 57.8025 18.6008 56.4586 18.8158 56.4586C19.0309 56.4586 19.1921 58.2326 19.1921 60.3292Z" fill="black"/>
<path d="M60.4788 74.5756C59.2424 74.8982 58.0596 75.7583 58.0596 76.3497C58.0596 76.511 59.0273 77.7474 60.2638 79.0914C62.7367 81.7256 62.7367 83.0696 60.3713 85.2738C58.7585 86.779 55.6405 86.9941 53.9739 85.7576C51.1784 83.661 51.0172 86.2414 53.8126 88.8219C56.1781 91.0798 59.5112 90.7572 62.3604 88.0692L63.7044 86.779L66.0161 88.5531C69.0803 90.9185 71.3382 90.9185 73.9187 88.6606C75.1014 87.5854 75.8003 86.5102 75.8003 85.7038V84.3598L74.1875 85.5963C70.9619 87.9617 66.6612 86.4565 65.8548 82.7471C65.586 81.4568 65.8548 80.8655 67.4138 79.1989C68.489 78.07 69.3491 76.726 69.3491 76.2422C69.3491 74.7369 64.027 73.7155 60.4788 74.5756Z" fill="black"/>
<path d="M41.7181 117.368C39.0839 120.002 37.2561 130.109 38.17 137.205C39.1914 145.377 41.3418 150 44.191 150C46.3952 150 49.9433 147.957 54.9967 143.764C61.9317 138.065 63.0606 137.474 65.426 138.442C66.9851 139.087 70.2106 141.56 73.8663 144.785C76.393 147.043 80.5325 149.409 82.3603 149.731C84.1343 150.054 84.5644 149.892 85.9084 148.548C91.2844 143.173 90.7468 120.54 85.2095 116.884C83.1129 115.54 80.5862 116.347 75.9629 119.895C73.6512 121.615 71.0708 123.712 70.1569 124.464C69.2967 125.271 67.4689 126.507 66.2324 127.26C64.0283 128.604 63.8133 128.604 62.2005 127.797C61.2328 127.367 58.3298 125.163 55.6418 122.905C50.6422 118.604 46.3952 116.132 44.2448 116.132C43.5459 116.132 42.417 116.723 41.7181 117.368Z" fill="black"/>
</svg>
